<svg width="47" height="89" viewBox="0 0 47 89" fill="none" xmlns="http://www.w3.org/2000/svg">
<path d="M13.559 68.6689C13.9964 68.6689 14.2879 68.8148 14.4337 68.9606C14.5795 69.1063 14.7254 69.3979 14.7254 69.6895C14.7254 70.1269 14.4337 70.4185 13.8505 70.5643C14.2879 70.71 14.4337 70.8558 14.4337 71.2932C14.4337 71.439 14.4337 71.7306 14.2879 71.8764C14.1421 72.0222 13.9963 72.168 13.8505 72.3138C13.5589 72.4596 13.4131 72.4596 13.1215 72.4596C12.6841 72.4596 12.2468 72.3138 12.101 72.0222C11.8094 71.7306 11.6636 71.439 11.6636 71.0016C11.6636 70.5642 11.8095 70.1269 11.9553 69.8353C12.1011 69.5437 12.3927 69.2521 12.6842 69.1063C12.83 68.8147 13.1216 68.6689 13.559 68.6689ZM12.3925 70.7101V70.8559C12.3925 71.1474 12.3927 71.2933 12.5385 71.4391C12.6843 71.5849 12.8299 71.5848 13.1215 71.5848C13.4131 71.5848 13.5589 71.5849 13.7047 71.4391C13.8505 71.2933 13.8505 71.1474 13.8505 71.0016C13.8505 70.8558 13.8505 70.7101 13.7047 70.7101C13.5589 70.5643 13.4131 70.5643 13.1215 70.5643H12.3925V70.7101ZM13.559 69.2522C13.2674 69.2522 13.1216 69.3979 12.9758 69.5437C12.83 69.6895 12.6843 69.9811 12.5385 70.2726H13.2675C13.559 70.2726 13.7047 70.2727 13.8505 70.1269C13.9963 69.9811 14.1422 69.8353 14.1422 69.6895C14.1422 69.5437 14.1422 69.5437 13.9964 69.3979C13.8506 69.2521 13.7048 69.2522 13.559 69.2522Z" fill="#656553"/>
<path d="M16.4748 72.3143C16.0374 72.3143 15.7459 72.1685 15.4543 72.0227C15.1627 71.7311 15.1626 71.4395 15.1626 71.0021C15.1626 70.5647 15.3085 70.1274 15.4543 69.8358C15.6001 69.5442 15.8917 69.2526 16.1833 68.961C16.4749 68.8152 16.7664 68.6694 17.058 68.6694C17.3496 68.6694 17.6412 68.8152 17.787 68.961C17.9328 69.1068 18.0785 69.3984 18.0785 69.69C18.0785 70.1274 17.9327 70.4189 17.4953 70.5647C17.2037 70.7105 16.6205 70.8563 16.0373 70.8563H15.8916V71.0021V71.148C15.8916 71.4395 15.8915 71.5853 16.0373 71.7311C16.1831 71.8769 16.329 71.8769 16.6205 71.8769C16.7663 71.8769 16.9122 71.8769 17.058 71.8769C17.2038 71.8769 17.3496 71.7311 17.6412 71.7311V72.3143C17.4954 72.4601 17.2038 72.46 17.058 72.46C16.9122 72.3143 16.7664 72.3143 16.4748 72.3143ZM17.058 69.2526C16.9122 69.2526 16.6206 69.3984 16.4748 69.5442C16.329 69.69 16.1831 69.9815 16.0373 70.2731H16.1833C16.6206 70.2731 16.9122 70.2732 17.058 70.1274C17.3496 69.9816 17.3495 69.8358 17.3495 69.69C17.3495 69.5442 17.3495 69.5442 17.2038 69.3984C17.2038 69.2526 17.2038 69.2526 17.058 69.2526Z" fill="#656553"/>
<path d="M19.6822 68.8149L19.5365 69.6898C19.5365 69.8356 19.5365 69.9813 19.5365 70.1271C19.5365 70.2729 19.5364 70.4187 19.6822 70.4187C19.828 70.4187 19.8281 70.5645 19.9739 70.5645C20.2655 70.5645 20.4113 70.4187 20.5571 70.2729C20.7029 69.9813 20.8486 69.6898 20.9944 69.2524L21.1402 68.8149H21.8691L21.1402 72.314H20.4112L20.5571 71.2935C20.5571 71.1477 20.5571 71.0019 20.7029 70.8561C20.8487 70.7103 20.7029 70.5645 20.8486 70.5645C20.5571 70.8561 20.2655 71.1477 19.8282 71.1477C19.5366 71.1477 19.245 71.0019 19.0992 70.8561C18.9534 70.7103 18.8075 70.4187 18.8075 70.1271C18.8075 69.9813 18.8075 69.6897 18.9533 69.5439L19.0992 68.8149H19.6822Z" fill="#656553"/>
<path d="M23.6187 68.8149L23.327 70.2729H24.785L25.0766 68.8149H25.8056L25.0766 72.314H24.3477L24.6392 70.8561H23.1813L22.8897 72.314H22.1608L22.8897 68.8149H23.6187Z" fill="#656553"/>
<path d="M27.4093 68.8152L27.1178 70.2731C27.4094 70.2731 27.5552 70.1274 27.8468 70.1274C28.1384 70.1274 28.43 70.2732 28.5758 70.419C28.7216 70.5648 28.8673 70.8564 28.8673 71.148C28.8673 71.5853 28.7214 71.8769 28.4298 72.0227C28.1382 72.3143 27.8467 72.3143 27.4093 72.3143C26.972 72.3143 26.6804 72.1685 26.5346 72.0227C26.3888 71.8769 26.2429 71.5853 26.2429 71.2937C26.2429 71.1479 26.2429 70.8564 26.2429 70.7106L26.6804 68.6694H27.4093V68.8152ZM27.5551 70.7106C27.4093 70.7106 27.2635 70.7106 26.9719 70.7106V70.8563V71.0021V71.148C26.9719 71.148 26.9719 71.1479 26.9719 71.2937C26.9719 71.5853 27.1178 71.7311 27.4093 71.7311C27.5551 71.7311 27.701 71.7311 27.8468 71.5853C27.9926 71.4395 27.9926 71.2937 27.9926 71.148C27.9926 71.0022 27.9926 70.8563 27.8468 70.8563C27.8468 70.7106 27.7009 70.7106 27.5551 70.7106ZM29.8878 72.3143H29.1588L29.8878 68.8152H30.6167L29.8878 72.3143Z" fill="#656553"/>
<path d="M32.3665 71.0021L31.3458 72.1685H30.4711L31.929 70.419L31.2 68.6694H31.929L32.3665 69.8358L33.2412 68.6694H34.1159L32.658 70.419L33.387 72.1685H32.658L32.3665 71.0021Z" fill="#656553"/>
<path d="M8.16462 62.6919V63.7124C8.16462 64.2956 8.01876 64.8787 7.72717 65.1703C7.43558 65.4619 6.99816 65.6078 6.41499 65.6078C5.83181 65.6078 5.39439 65.4619 5.1028 65.1703C4.81121 64.8787 4.66553 64.2956 4.66553 63.7124V59.6302C4.66553 59.047 4.81121 58.4638 5.1028 58.1722C5.39439 57.8806 5.83181 57.7349 6.41499 57.7349C6.99816 57.7349 7.43558 57.8806 7.72717 58.1722C8.01876 58.4638 8.16462 59.047 8.16462 59.6302V60.3591H6.9982V59.4844C6.9982 59.1928 6.99823 59.047 6.85244 58.9012C6.70664 58.7554 6.56078 58.7554 6.41499 58.7554C6.26919 58.7554 6.1235 58.7554 5.97771 58.9012C5.83192 59.047 5.83177 59.1928 5.83177 59.4844V63.7124C5.83177 64.004 5.83192 64.1498 5.97771 64.2956C6.1235 64.4414 6.26919 64.4414 6.41499 64.4414C6.56078 64.4414 6.70664 64.4414 6.85244 64.2956C6.99823 64.1498 6.9982 64.004 6.9982 63.7124V62.5461H8.16462V62.6919Z" fill="#656553"/>
<path d="M11.0805 65.6078H9.76831V57.7349H10.7888V62.4003L12.101 57.7349H13.7047V65.6078H12.5384V59.9218L11.0805 65.6078Z" fill="#656553"/>
<path d="M18.9533 62.6919V63.7124C18.9533 64.2956 18.8076 64.8787 18.516 65.1703C18.2244 65.4619 17.787 65.6078 17.2038 65.6078C16.6206 65.6078 16.1832 65.4619 15.8916 65.1703C15.6 64.8787 15.4543 64.2956 15.4543 63.7124V59.6302C15.4543 59.047 15.6 58.4638 15.8916 58.1722C16.1832 57.8806 16.6206 57.7349 17.2038 57.7349C17.787 57.7349 18.2244 57.8806 18.516 58.1722C18.8076 58.4638 18.9533 59.047 18.9533 59.6302V60.3591H17.787V59.4844C17.787 59.1928 17.7871 59.047 17.6413 58.9012C17.4955 58.7554 17.3496 58.7554 17.2038 58.7554C17.058 58.7554 16.9121 58.7554 16.7664 58.9012C16.6206 59.047 16.6206 59.1928 16.6206 59.4844V63.7124C16.6206 64.004 16.6206 64.1498 16.7664 64.2956C16.9121 64.4414 17.058 64.4414 17.2038 64.4414C17.3496 64.4414 17.4955 64.4414 17.6413 64.2956C17.7871 64.1498 17.787 64.004 17.787 63.7124V62.5461H18.9533V62.6919Z" fill="#656553"/>
<path d="M20.1196 57.8804H23.9102V59.0468H22.5981V65.7533H21.4318V59.0468H20.1196V57.8804Z" fill="#656553"/>
<path d="M26.2429 61.0879H27.9925V62.2542H26.2429V64.587H28.4298V65.7533H25.0767V57.8804H28.4298V59.0468H26.2429V61.0879Z" fill="#656553"/>
<path d="M32.5121 63.4206L33.3868 57.8804H35.1365V65.7533H33.9701V60.2131L33.0953 65.7533H31.9289L31.0542 60.2131V65.7533H30.0337V57.8804H31.7831L32.5121 63.4206Z" fill="#656553"/>
<path d="M40.8224 65.6078H39.6561L39.5104 64.1498H38.0524L37.9065 65.6078H36.7402L38.0524 57.7349H39.8019L40.8224 65.6078ZM37.9065 63.1293H39.0729L38.4897 59.1928L37.9065 63.1293Z" fill="#656553"/>
<path d="M1.16642 81.9365H2.62437V75.23H3.93655V81.9365H4.51976V83.9776H3.20758V83.1029H0V75.23H1.16642V81.9365Z" fill="#656553"/>
<path d="M6.85246 78.583H8.60192V79.7493H6.85246V82.0821H9.03937V83.2484H5.68604V75.3755H9.03937V76.5419H6.85246V78.583Z" fill="#656553"/>
<path d="M11.8095 83.1029H10.6431V75.23H11.8095V78.5832H13.2674V75.23H14.5794V83.1029H13.2674V79.7496H11.8095V83.1029Z" fill="#656553"/>
<path d="M17.4953 83.1029H16.3291V75.23H17.4953V78.5832H18.9533V75.23H20.2655V83.1029H18.9533V79.7496H17.4953V83.1029Z" fill="#656553"/>
<path d="M21.7234 77.1253C21.7234 76.5421 21.8693 75.9589 22.1608 75.6673C22.4524 75.3758 22.8898 75.23 23.473 75.23C24.0562 75.23 24.4934 75.3758 24.785 75.6673C25.0766 75.9589 25.2225 76.5421 25.2225 77.1253V81.2075C25.2225 81.7907 25.0766 82.3739 24.785 82.6654C24.4934 82.957 24.0562 83.1029 23.473 83.1029C22.8898 83.1029 22.4524 82.957 22.1608 82.6654C21.8693 82.3739 21.7234 81.7907 21.7234 81.2075V77.1253ZM22.8898 81.3534C22.8898 81.6449 22.8898 81.7907 23.0356 81.9365C23.1814 82.0823 23.3272 82.0823 23.473 82.0823C23.6188 82.0823 23.7645 82.0823 23.9103 81.9365C24.0561 81.7907 24.0561 81.6449 24.0561 81.3534V77.1253C24.0561 76.8337 24.0561 76.688 23.9103 76.5422C23.7645 76.3964 23.6188 76.3963 23.473 76.3963C23.3272 76.3963 23.1814 76.3964 23.0356 76.5422C22.8898 76.688 22.8898 76.8337 22.8898 77.1253V81.3534Z" fill="#656553"/>
<path d="M30.6167 80.187V81.2075C30.6167 81.7907 30.471 82.3739 30.1794 82.6654C29.8879 82.957 29.4504 83.1029 28.8673 83.1029C28.2841 83.1029 27.8467 82.957 27.5551 82.6654C27.2635 82.3739 27.1178 81.7907 27.1178 81.2075V77.1253C27.1178 76.5421 27.2635 75.9589 27.5551 75.6673C27.8467 75.3758 28.2841 75.23 28.8673 75.23C29.4504 75.23 29.8879 75.3758 30.1794 75.6673C30.471 75.9589 30.6167 76.5421 30.6167 77.1253V77.8543H29.4505V76.9795C29.4505 76.6879 29.4505 76.5421 29.3047 76.3963C29.1589 76.2505 29.0131 76.2506 28.8673 76.2506C28.7215 76.2506 28.5756 76.2505 28.4298 76.3963C28.284 76.5421 28.284 76.6879 28.284 76.9795V81.2075C28.284 81.4991 28.284 81.6449 28.4298 81.7907C28.5756 81.9365 28.7215 81.9365 28.8673 81.9365C29.0131 81.9365 29.1589 81.9365 29.3047 81.7907C29.4505 81.6449 29.4505 81.4991 29.4505 81.2075V80.0412H30.6167V80.187Z" fill="#656553"/>
<path d="M31.6375 75.3755H35.4281V76.5419H34.1159V83.2484H32.9496V76.5419H31.6375V75.3755Z" fill="#656553"/>
<path d="M37.7607 78.583H39.5104V79.7493H37.7607V82.0821H39.9476V83.2484H36.5945V75.3755H39.9476V76.5419H37.7607V78.583Z" fill="#656553"/>
<path d="M42.5719 83.1026H41.2598V75.2297H42.2803V79.8951L43.5924 75.2297H45.1961V83.1026H44.0299V77.4166L42.5719 83.1026ZM44.6131 73.9175V74.7923H41.843V73.9175H44.6131Z" fill="#656553"/>
<path d="M8.89352 70.4188H8.60183C8.60183 70.5646 8.60186 70.5646 8.45607 70.7104C8.31028 70.8562 8.16441 70.8561 8.01862 70.8561C8.01862 70.8561 8.01865 70.8561 7.87286 70.8561C7.58127 70.8561 7.43548 70.7103 7.14389 70.5645C6.99809 70.5645 6.99816 70.4188 6.85237 70.4188L6.70661 70.5645L6.85237 70.7104C6.85237 70.7104 6.99809 70.5646 7.14389 70.4188C7.28968 70.273 7.58127 70.1272 7.87286 70.1272C8.01865 70.1272 8.16452 70.1271 8.31031 70.2729C8.45611 70.4187 8.45607 70.4187 8.45607 70.5645H8.89352H9.18504C9.18504 70.2729 9.03932 70.1271 8.89352 69.8356C8.74773 69.6898 8.45614 69.5439 8.16455 69.5439C8.16455 69.5439 8.16441 69.5439 8.01862 69.5439C7.58123 69.5439 7.28972 69.8356 6.99813 69.9814C6.70654 70.1272 6.56068 70.2729 6.56068 70.2729L6.41492 70.4188L6.56068 70.5645C6.56068 70.5645 6.70654 70.7103 6.99813 70.8561C7.28972 71.0019 7.58127 71.1477 7.87286 71.2935H8.01862C8.3102 71.2935 8.60179 71.1477 8.74759 71.0019C8.89338 70.8561 9.03928 70.5645 9.03928 70.2729H8.89352V70.4188Z" fill="#656553"/>
<path d="M4.66547 70.4189H4.37378C4.37378 70.7105 4.51968 70.8563 4.66547 71.1479C4.81127 71.2937 5.10286 71.4395 5.39444 71.4395H5.5402C5.97759 71.4395 6.2691 71.1478 6.56069 71.002C6.85228 70.8562 6.99814 70.7105 6.99814 70.7105L7.1439 70.5647L6.99814 70.4189C6.99814 70.4189 6.85228 70.2731 6.56069 70.1273C6.2691 69.9815 5.97759 69.8357 5.5402 69.6899C5.5402 69.6899 5.54024 69.6899 5.39444 69.6899C5.10286 69.6899 4.81127 69.8358 4.66547 69.9815C4.51968 70.1273 4.37378 70.4189 4.37378 70.7105H4.66547H4.95699C4.95699 70.5647 4.95696 70.5647 5.10275 70.4189C5.24854 70.2731 5.39441 70.2731 5.5402 70.2731C5.83179 70.2731 5.97759 70.4189 6.26917 70.5647C6.41497 70.5647 6.4149 70.7105 6.56069 70.7105L6.70663 70.5647L6.56069 70.4189C6.56069 70.4189 6.41497 70.5647 6.26917 70.7105C6.12338 70.8563 5.83179 71.002 5.5402 71.002C5.5402 71.002 5.54024 71.002 5.39444 71.002C5.24865 71.002 5.10279 71.0021 4.95699 70.8563C4.8112 70.7105 4.81123 70.7105 4.81123 70.5647H4.66547V70.4189Z" fill="#656553"/>
<path d="M40.6767 70.4188H40.3852C40.3852 70.5646 40.3852 70.5646 40.2394 70.7104C40.0936 70.8562 39.9477 70.8561 39.8019 70.8561C39.8019 70.8561 39.802 70.8561 39.6562 70.8561C39.3646 70.8561 39.2188 70.7103 38.9272 70.5645C38.7814 70.5645 38.7813 70.4188 38.6355 70.4188L38.4898 70.5645L38.6355 70.7104C38.6355 70.7104 38.7814 70.5646 38.9272 70.4188C39.073 70.273 39.3646 70.1272 39.6562 70.1272C39.802 70.1272 39.9477 70.1271 40.0935 70.2729C40.2393 70.4187 40.2394 70.4187 40.2394 70.5645H40.6767H40.9684C40.9684 70.2729 40.8225 70.1271 40.6767 69.8356C40.5309 69.6898 40.2393 69.5439 39.9477 69.5439C39.9477 69.5439 39.9477 69.5439 39.8019 69.5439C39.3646 69.5439 39.073 69.8356 38.7815 69.9814C38.4899 70.1272 38.344 70.2729 38.344 70.2729L38.1982 70.4188L38.344 70.5645C38.344 70.5645 38.4899 70.7103 38.7815 70.8561C39.073 71.0019 39.3646 71.1477 39.8019 71.2935H39.9477C40.2393 71.2935 40.5309 71.1477 40.6767 71.0019C40.8225 70.8561 40.9684 70.5645 40.9684 70.2729H40.6767V70.4188Z" fill="#656553"/>
<path d="M36.4485 70.4189H36.157C36.157 70.7105 36.3027 70.8563 36.4485 71.1479C36.5943 71.2937 36.8859 71.4395 37.1775 71.4395H37.3234C37.7608 71.4395 38.0523 71.1478 38.3439 71.002C38.6355 70.8562 38.7813 70.7105 38.7813 70.7105L38.9271 70.5647L38.7813 70.4189C38.7813 70.4189 38.6355 70.2731 38.3439 70.1273C38.0523 69.9815 37.7608 69.8357 37.3234 69.6899C37.3234 69.6899 37.3233 69.6899 37.1775 69.6899C36.8859 69.6899 36.5943 69.8358 36.4485 69.9815C36.3027 70.1273 36.157 70.4189 36.157 70.7105H36.4485H36.7402C36.7402 70.5647 36.7402 70.5647 36.886 70.4189C37.0317 70.2731 37.1776 70.2731 37.3234 70.2731C37.615 70.2731 37.7608 70.4189 38.0524 70.5647C38.1982 70.5647 38.1981 70.7105 38.3439 70.7105L38.4897 70.5647L38.3439 70.4189C38.3439 70.4189 38.1982 70.5647 38.0524 70.7105C37.9066 70.8563 37.615 71.002 37.3234 71.002C37.3234 71.002 37.3233 71.002 37.1775 71.002C37.0317 71.002 36.886 71.0021 36.7402 70.8563C36.5944 70.7105 36.5944 70.7105 36.5944 70.5647H36.4485V70.4189Z" fill="#656553"/>
<path d="M27.9926 88.2056H18.3702V88.7887H27.9926V88.2056Z" fill="#58969E"/>
<path d="M9.33087 38.4897C8.89349 38.4897 8.31032 38.0524 7.87293 37.615C7.58134 37.1776 7.14403 36.1571 7.58142 34.9907L8.45615 35.2822C8.16456 36.157 8.45607 36.886 8.74766 37.1776C9.03925 37.615 9.4767 37.7608 9.91409 37.7608C10.3515 37.7608 10.7888 37.4692 10.7888 36.886C10.7888 36.3029 10.2057 36.0112 9.62257 36.3028L9.47663 35.7197C10.2056 35.4281 10.6431 35.4281 11.0805 35.7197C11.3721 36.0113 11.6635 36.157 11.6635 36.7402C11.5178 38.3439 10.2056 38.6355 9.33087 38.4897Z" fill="#787762"/>
<path d="M23.1812 47.5289C23.0355 47.3831 22.8897 47.0915 22.8897 47.0915C22.8897 47.0915 22.0149 45.9251 19.3906 44.613L19.0991 44.4672V38.198L19.5364 38.3439C19.5364 38.3439 20.9943 38.6354 22.598 39.9476L22.015 40.6765C21.1402 39.9476 20.4112 39.656 19.9739 39.3644V44.0298C21.286 44.6129 22.3066 45.4877 22.8897 46.0709V41.1139V40.9681C24.4935 38.7812 26.8261 38.198 26.8261 38.198L27.4093 38.0522V44.3214L27.1178 44.4672C26.0972 44.9046 24.7851 45.7793 23.6187 46.7999C23.6187 47.0915 23.327 47.3831 23.1812 47.5289ZM23.4729 41.5513V46.2167C24.0561 45.4877 25.5141 44.613 26.3888 44.1756V39.5102C25.8056 39.656 24.4935 40.2392 23.4729 41.5513Z" fill="#58969E"/>
<path d="M23.473 28.4297H22.744V31.9287H23.473V28.4297Z" fill="#58969E"/>
<path d="M23.473 16.1831H22.744V19.6822H23.473V16.1831Z" fill="#58969E"/>
<path d="M18.8074 23.6187H15.3083V24.3476H18.8074V23.6187Z" fill="#58969E"/>
<path d="M30.9085 23.6187H27.4094V24.3476H30.9085V23.6187Z" fill="#58969E"/>
<path d="M46.6541 23.6186C46.5083 23.4728 44.0298 20.8486 41.5513 20.557C40.2391 20.4112 39.3645 20.557 38.7813 21.1402C38.4897 21.4318 38.1981 21.8692 38.1981 22.5981H39.0729C39.0729 22.3065 39.2187 22.015 39.5103 21.8692C39.9477 21.4318 40.5307 21.2859 41.5513 21.4317C42.8634 21.5775 44.4673 22.5981 45.3421 23.3271C45.3421 23.3271 45.6335 23.6186 45.7793 23.6186H36.4485V24.3476H38.0524C38.0524 24.9308 38.1981 26.2429 39.0729 26.8261C39.5102 27.2635 40.0934 27.4093 40.6766 27.4093C40.9681 27.4093 41.2597 27.4093 41.5513 27.2635C43.884 26.9719 46.5083 24.3476 46.5083 24.2018L46.8 23.9102L46.6541 23.6186ZM41.5513 26.3887C40.5307 26.5345 40.0934 26.3887 39.6561 26.0971C39.2187 25.6598 39.0729 24.785 39.0729 24.2018H39.5103H41.114L42.5719 26.0971C42.1346 26.2429 41.8429 26.3887 41.5513 26.3887ZM45.4878 24.4934C44.9047 24.9308 44.1756 25.5139 43.4467 25.8055L41.9887 24.2018H45.9251C45.7793 24.2018 45.4878 24.4934 45.4878 24.4934Z" fill="#58969E"/>
<path d="M33.9701 10.789L34.5533 11.3722L34.8448 11.0806L37.6149 8.16473C37.6149 8.01893 37.7607 7.8731 37.6149 7.58151C37.4692 7.43572 37.1775 7.43572 37.0317 7.58151L33.9701 10.789Z" fill="#787762"/>
<path d="M35.2822 12.2469L35.8654 12.8301L39.3644 9.18523C39.3644 9.03944 39.5101 8.89361 39.3644 8.60202C39.2186 8.45623 38.9271 8.45623 38.7813 8.60202L35.2822 12.2469Z" fill="#787762"/>
<path d="M32.658 16.4744C33.3869 17.2034 34.5533 17.3492 35.4281 16.3286L39.9477 11.6633C39.9477 11.5175 40.0935 11.3716 39.9477 11.08C39.8019 10.9343 39.5102 10.9343 39.3645 11.08L36.886 13.7043L34.8449 15.8912C34.2617 16.4744 33.6786 16.3287 33.2412 16.0371L32.658 16.4744Z" fill="#787762"/>
<path d="M33.9702 12.6841C33.8244 12.1009 33.5329 11.5177 32.9497 11.0804C32.8039 11.0804 32.5122 10.9346 32.5122 10.9346C32.8038 10.7888 33.2412 10.0598 33.387 9.91403C33.8243 9.03926 33.6787 8.74764 33.6787 8.60185C33.6787 8.45605 33.387 8.16445 33.0954 8.31024C33.0954 8.31024 32.658 9.62244 31.7833 10.643C31.6375 10.7888 31.6375 10.7888 31.4917 10.9346C31.0544 11.372 30.4711 12.2467 30.3253 12.9757C30.1795 13.7046 30.4712 14.2878 30.9085 14.7252C31.0543 14.871 31.2002 15.0168 31.4917 15.1626L13.2675 33.3868C12.3927 33.241 9.47673 33.0953 7.873 34.699C6.12347 36.4486 6.70675 39.9476 6.70675 40.0934V40.3849H6.99827C6.99827 40.3849 7.72717 40.5308 8.74772 40.5308C9.91408 40.5308 11.372 40.2392 12.3926 39.3645C13.4131 38.3439 13.559 36.5943 13.559 35.2821H12.9758C12.9758 36.4485 12.6843 37.9065 11.9553 38.7812C10.9347 39.8018 9.33101 39.8018 8.31045 39.8018C8.01886 39.8018 7.58151 39.8018 7.43572 39.9476C7.58151 39.8018 7.58148 39.3644 7.58148 39.2186C7.43568 38.198 7.58141 36.4486 8.60197 35.428C10.0599 33.9701 13.4132 34.4074 13.559 34.4074H13.7048C13.7048 34.4074 31.7832 16.329 32.0748 16.1832C32.3664 15.8916 32.8038 15.4542 32.8038 15.4542C32.8038 15.4542 32.3665 15.1626 32.2207 15.0168C31.7833 14.5794 31.3458 14.1421 31.3458 13.5589C31.4916 12.9757 31.9291 12.3925 32.3665 11.9551C33.2412 12.1009 33.6787 12.6841 33.6787 13.2673C33.6787 13.4131 33.5328 13.8504 33.2412 14.142L33.6787 14.5795C33.6787 13.9963 33.9702 13.413 33.9702 12.6841Z" fill="#787762"/>
<path d="M12.9757 14.4336C12.9757 14.4336 30.9084 32.5121 33.3869 34.9906C33.3869 34.9906 32.0747 35.4279 32.0747 36.74C32.0747 38.0522 33.0954 39.3643 35.2823 39.6559C37.3234 39.9475 39.9476 40.0934 39.9476 40.0934H40.3851V39.6559C40.3851 39.6559 40.2392 37.0317 39.9476 34.9906C39.8018 33.5326 39.073 32.3662 38.0524 31.9289C37.3234 31.6373 36.4487 31.7831 35.8655 32.2205C35.1365 32.8036 34.8449 33.8242 35.1365 35.1363C35.4281 36.4485 35.8655 37.1775 35.8655 37.1775L36.3028 37.0316C36.3028 37.0316 36.0113 36.1569 35.8655 35.1363C35.7197 34.2616 36.0111 33.3868 36.4485 32.9494C36.7401 32.6578 37.3233 32.6579 37.7607 32.8037C38.4897 33.0953 39.0729 33.97 39.0729 35.1363C39.2187 36.1569 39.3644 37.3233 39.3644 38.3438C39.3644 38.6354 39.5103 39.3644 39.6561 39.5102C39.5103 39.3644 38.9271 39.2186 38.4897 39.2186C37.4691 39.0728 36.4486 38.927 35.2823 38.7812C33.5327 38.4896 32.8037 37.6148 32.8037 36.5943C32.8037 36.0111 33.3869 35.4279 33.9701 35.4279C33.8243 34.699 33.8243 34.2616 33.8243 34.2616L13.2674 13.7046L12.9757 13.8504V14.4336Z" fill="#787762"/>
<path d="M12.6841 11.8093C12.8298 11.9551 12.8298 12.1008 12.9756 12.2466C13.413 13.413 13.1213 14.2878 12.3924 14.7252C12.1008 15.0167 11.3718 15.3084 10.9344 15.3084C9.47648 15.3084 8.74758 14.2878 8.45599 13.5588C9.03916 13.5588 10.0597 13.2672 10.0597 13.2672C10.0597 13.2672 7.58119 11.0803 7.87278 8.89339C8.31016 9.18497 8.89344 9.62236 9.62241 9.62236C10.7888 9.76815 11.3719 10.2056 11.3719 10.2056C11.3719 10.2056 11.8093 9.62234 11.8093 8.60178C13.1215 9.18496 14.1419 10.0598 14.4335 10.9345C14.7251 11.5177 14.871 12.2466 14.7252 12.9756H15.4542C15.6 12.3924 15.454 11.6635 15.3082 10.9345C14.5793 8.45604 11.0804 7.72705 11.0804 7.72705C11.0804 7.72705 11.2261 8.74757 11.0804 9.33075C11.0804 9.33075 10.4971 9.03914 9.91393 9.03914C8.60178 8.89335 7.87278 7.72705 7.87278 7.72705C7.87278 7.72705 6.12332 10.4972 9.0392 13.1215C8.45602 13.2672 7.72702 13.1215 7.72702 13.1215L7.87278 13.7046C8.01857 14.5793 9.18499 16.4746 11.2261 16.3288C12.2467 16.3288 13.1214 15.7457 13.7045 15.1625C14.4335 14.4335 14.2878 13.1214 13.9962 12.5382C13.8504 12.2467 13.5588 11.8093 13.5588 11.8093H12.6841Z" fill="#787762"/>
<path d="M22.5981 9.33094H19.5365V3.64502H20.4112V8.74781H21.7234V5.39448H24.6393V7.87299H23.7646V5.97769H22.5981V9.33094Z" fill="#58969E"/>
<path d="M27.2636 5.10279L23.1813 0.874729L19.0992 5.10279L18.516 4.51958L23.1813 0L27.8468 4.51958L27.2636 5.10279Z" fill="#58969E"/>
<path d="M26.8262 9.33094H23.7645V8.74781H25.9514V3.64502H26.8262V9.33094Z" fill="#58969E"/>
<path d="M23.6187 4.0822H22.744V3.06163C22.744 3.06163 22.8897 2.77002 23.1813 2.77002C23.4729 2.77002 23.6187 3.06163 23.6187 3.06163V4.0822Z" fill="#58969E"/>
<path d="M9.47662 25.3683H8.45613H8.16461L8.01868 25.6599C8.01868 25.6599 7.72723 26.6805 5.9777 26.6805C4.81135 26.6805 3.93658 26.0973 3.06182 25.3683C2.62444 25.0767 1.45805 24.4936 1.02067 24.4936H5.68601V24.6393C5.8318 24.7851 5.97763 24.931 6.26922 24.931C6.7066 24.931 6.99819 24.6394 6.99819 24.202C6.99819 23.7646 6.7066 23.473 6.26922 23.473C5.97763 23.473 5.8318 23.6188 5.68601 23.7646C5.68601 23.7646 5.68601 23.7646 5.68601 23.9104H1.02067C1.60384 23.9104 2.62444 23.3272 3.06182 23.0356C3.93658 22.3067 4.81135 21.7235 5.9777 21.7235C7.72723 21.7235 8.01868 22.5983 8.01868 22.5983L8.16461 22.8898H10.4973V22.0151H8.89358C8.60199 21.4319 7.87299 20.5571 6.12346 20.5571C4.66552 20.5571 3.49913 21.4319 2.62437 22.1608C1.7496 22.744 1.02056 23.3273 0 23.3273V24.7852C1.02056 24.7852 1.7496 25.3683 2.62437 26.0973C3.49913 26.8263 4.66552 27.5552 6.12346 27.5552C8.01878 27.5552 8.74779 26.6805 8.89358 26.0973H10.4973V23.7646H9.62255V25.3683H9.47662Z" fill="#58969E"/>
</svg>
