<svg width="139" height="141" viewBox="0 0 139 141" fill="none" xmlns="http://www.w3.org/2000/svg">
<g filter="url(#filter0_ddd)">
<path d="M120.3 66.5C118.9 61.2 118.2 55.6 118.2 49.8C118.2 42.1 119.5 34.6 122 27.8C120.4 21 114.9 15.6 108.1 14C101.2 16.4 93.8999 17.8 86.2 17.8C80.4 17.8 74.8 17 69.5 15.7C64.2 17.1 58.6 17.8 52.8 17.8C45.1 17.8 37.7 16.5 30.9 14C24 15.5 18.6 20.9 17 27.8C19.5 34.7 20.8 42.1 20.8 49.8C20.8 55.6 20 61.2 18.7 66.5C20.1 71.8 20.8 77.4 20.8 83.2C20.8 91 19.4 98.4 17 105.3C18.5 112.1 23.9 117.5 30.6 119.1C37.5 116.6 45 115.2 52.9 115.2C58.7 115.2 64.3 116 69.6 117.3C74.9 115.9 80.5 115.2 86.3 115.2C94.1001 115.2 101.6 116.6 108.6 119.1C115.4 117.5 120.7 112.1 122.2 105.3C119.7 98.4 118.4 90.8999 118.4 83.2C118.1 77.4 118.9 71.8 120.3 66.5Z" fill="white" stroke="black" stroke-width="1.3488" stroke-miterlimit="10"/>
<path d="M57.2001 72.3C53.3001 72.5 50.7001 70.8 50.2001 67.5C49.8001 65.2 50.6001 63.1 52.2001 61.5C54.4001 59.2 56.8001 56.9 59.4001 55.1C61.3001 53.8 62.1001 52.5 62.0001 50.1C62.0001 47 62.3 43.8 63.1 40.8C64.3 36.4 68.7001 33.8999 73.2001 34.6999C78.6001 35.5999 81.3001 40.9999 78.4001 45.6999C76.9001 47.9999 74.7001 49.9 72.8001 52C72.6001 52.2 72.3 52.5 72.1 52.6C69.2 54.2 68.5001 56.5999 68.7001 59.8999C69.0001 66.5999 63.7001 72 57.2001 72.3ZM68.1 48.8C71 46.3 73.4001 44.2 74.5001 41C75.2001 39.1 74.8001 37.8 73.5001 37C72.1001 36.2 70.3001 36.8 69.4001 38.5C68.0001 41.5 67.2 44.7 68.1 48.8ZM63.1 59.3C60.4 61.2 57.7001 62.7 55.9001 65.3C55.1001 66.4 54.6001 67.7 55.7001 68.8C56.7001 69.8 58.0001 69.7999 59.3001 69.1999C59.9001 68.8999 60.4001 68.6 60.9001 68.1C63.0001 65.8 64.2 63.1 63.1 59.3Z" fill="black"/>
<path d="M92.4001 53.3C91.7001 53.3 89.2002 53.3 87.3002 53.3C87.9002 51.5 88.7001 49.1 88.9001 48.4C89.2001 47.3 88.9001 46.5 88.1001 45.2C86.7001 45.8 86.0001 46.2 85.6001 47.3C85.3001 48.2 84.2001 51.5 83.7001 53.3C81.8001 53.3 78.3001 53.3 77.4001 53.3C76.2001 53.3 75.6001 53.9 74.6001 55.1C75.6001 56.2 76.2001 56.8 77.4001 56.9C78.1001 56.9 80.6001 56.9 82.5001 56.9C81.9001 58.7 81.1001 61.1 80.9001 61.8C80.6001 62.9 80.9001 63.7 81.7001 65C83.1001 64.4 83.8001 64 84.2001 62.9C84.5001 62 85.6001 58.7 86.1001 56.9C88.0001 56.9 91.5001 56.9 92.4001 56.9C93.6001 56.9 94.2001 56.3 95.2001 55.1C94.2001 53.9 93.6001 53.3 92.4001 53.3Z" fill="black"/>
<path d="M81.9001 90.5001C82.1001 90.6001 82.4001 90.7 82.7001 90.8C82.7001 90.9 82.7001 91 82.7001 91.1C81.6001 91.1 80.5001 91.1 79.1001 91.1C79.5001 90.8 79.8001 90.6 80.1001 90.4C80.1001 88.3 80.1001 86.2 80.1001 84.1C80.1001 83.3 80.1001 82.4 79.0001 82.2C78.0001 82.1 76.5001 82.8 76.4001 83.7C76.2001 85.8 76.1001 87.9001 76.1001 90.0001C76.1001 90.3001 76.8001 90.5 77.1001 90.8C77.0001 90.9 77.0001 91 76.9001 91.1C75.7001 91.1 74.5001 91.1 73.3001 91.1C73.3001 91 73.3001 90.9 73.2001 90.8C73.6001 90.7 73.9001 90.5 74.5001 90.3C74.5001 88.3 74.5001 86.2001 74.5001 84.0001C74.5001 82.6001 74.2001 82.4 72.1001 82.4C73.3001 81.7 74.5001 81.1 75.7001 80.4C75.8001 80.5 75.8001 80.5 75.9001 80.6C75.8001 80.9 75.6001 81.2 75.5001 81.6C75.8001 81.9 76.0001 82.2001 76.3001 82.5001C79.1001 80.6001 80.7001 80.8001 81.6001 83.0001C82.2001 82.5001 82.7001 82 83.4001 81.6C85.5001 80.4 87.1001 81.2 87.2001 83.6C87.3001 85.3 87.2001 87.1 87.2001 88.8C87.2001 89.3 87.2001 89.8 87.2001 90.3C87.7001 90.5 88.0001 90.6 88.4001 90.7C88.4001 90.8 88.4001 90.9001 88.4001 91.0001C87.2001 91.0001 86.0002 91.0001 84.8002 91.0001C85.8002 90.5001 85.7001 89.7 85.6001 88.9C85.5001 87.1 85.5001 85.2 85.4001 83.4C85.3001 82.1 84.6001 81.8 83.4001 82.3C82.4001 82.8 81.8002 83.5 81.8002 84.7C81.9002 86.7 81.9001 88.5001 81.9001 90.5001Z" fill="black"/>
<path d="M54.9001 83.0999C54.1001 85.2999 53.4001 87.2999 52.7001 89.1999C52.5001 89.7999 52.3001 90.3999 51.9001 90.8999C51.6001 91.1999 51.0001 91.2999 50.6001 91.2999C50.4001 91.2999 50.3001 90.6999 50.1001 90.3999C50.4001 90.2999 50.7001 90.0999 51.1001 90.0999C51.3001 90.0999 51.5001 90.1999 51.8001 90.2999C52.7001 87.6999 53.6001 85.0999 54.5001 82.4999C54.2001 82.2999 53.9001 82.0999 53.5001 81.7999C55.3001 81.0999 55.9001 81.3999 56.6001 82.8999C57.6001 85.2999 58.6001 87.5999 59.7001 89.9999C59.9001 90.3999 60.4001 90.6999 60.8001 91.0999C59.9001 91.7999 58.5001 91.4999 58.1001 90.2999C57.3001 88.3999 56.5001 86.3999 55.7001 84.4999C55.4001 83.8999 55.2001 83.6999 54.9001 83.0999Z" fill="black"/>
<path d="M70.6999 88.7C69.4999 90.3 67.1999 90.3 65.9999 89.7C64.2999 88.9 63.4999 87.3 63.8999 85.4C63.9999 85.1 64.3999 84.6 64.6999 84.6C66.5999 84.5 68.5999 84.6 70.4999 84.6C70.5999 84.5 70.6999 84.4 70.7999 84.3C70.3999 83.6 70.0999 82.8 69.5999 82.2C68.4999 80.9 67.0999 81.1 65.5999 81.6C63.3999 82.4 61.1999 84.7 61.8999 87.8C62.6999 91.2 65.9999 92.3 68.9999 90.9C69.9999 90.4 70.9999 89.7 71.3999 88.5C71.0999 88.4 70.7999 88.5 70.6999 88.7ZM67.0999 82C68.1999 82.1 68.2999 83 68.6999 84C67.0999 84 65.6999 84 64.2999 84C64.9999 82.5 65.8999 81.9 67.0999 82Z" fill="black"/>
</g>
<defs>
<filter id="filter0_ddd" x="0.297852" y="0.298584" width="138.603" height="140.504" filterUnits="userSpaceOnUse" color-interpolation-filters="sRGB">
<feFlood flood-opacity="0" result="BackgroundImageFix"/>
<feColorMatrix in="SourceAlpha" type="matrix" values="0 0 0 0 0 0 0 0 0 0 0 0 0 0 0 0 0 0 127 0"/>
<feOffset dy="5"/>
<feGaussianBlur stdDeviation="3"/>
<feColorMatrix type="matrix" values="0 0 0 0 0 0 0 0 0 0 0 0 0 0 0 0 0 0 0.2 0"/>
<feBlend mode="normal" in2="BackgroundImageFix" result="effect1_dropShadow"/>
<feColorMatrix in="SourceAlpha" type="matrix" values="0 0 0 0 0 0 0 0 0 0 0 0 0 0 0 0 0 0 127 0"/>
<feOffset dy="3"/>
<feGaussianBlur stdDeviation="8"/>
<feColorMatrix type="matrix" values="0 0 0 0 0 0 0 0 0 0 0 0 0 0 0 0 0 0 0.12 0"/>
<feBlend mode="normal" in2="effect1_dropShadow" result="effect2_dropShadow"/>
<feColorMatrix in="SourceAlpha" type="matrix" values="0 0 0 0 0 0 0 0 0 0 0 0 0 0 0 0 0 0 127 0"/>
<feOffset dy="9"/>
<feGaussianBlur stdDeviation="6"/>
<feColorMatrix type="matrix" values="0 0 0 0 0 0 0 0 0 0 0 0 0 0 0 0 0 0 0.14 0"/>
<feBlend mode="normal" in2="effect2_dropShadow" result="effect3_dropShadow"/>
<feBlend mode="normal" in="SourceGraphic" in2="effect3_dropShadow" result="shape"/>
</filter>
</defs>
</svg>
