<!--?xml version="1.0" encoding="utf-8"?-->
<!-- Generator: Adobe Illustrator 22.1.0, SVG Export Plug-In . SVG Version: 6.00 Build 0)  -->
<svg version="1.1" id="Layer_1" xmlns="http://www.w3.org/2000/svg" xmlns:xlink="http://www.w3.org/1999/xlink" x="0px" y="0px" viewBox="0 0 841.9 595.3" style="" xml:space="preserve">
<style type="text/css">
	.st0{fill:#FFFFFF;}
	.st1{fill:#000B18;}
	.st2{fill:#FFF9DF;}
	.st3{fill:#331A0F;}
	.st4{fill:none;}
</style>
<path class="st0 gynWvJFV_0" d="M414,338.6l11.7-35.8l11.6-2.1l23.8-2.5l36.7,1.3L516,303l18,3.3l17.5,4.2l17,6l10,5.8l4.1,1.8l-8.1,5.3
	l-2.1,4.5l7,3.2c0,0,10.8,6.1,16.1,9.8s11.2,9.4,11.2,9.4s6.2,12.4,5.9,12s-9.4-6.8-9.4-6.8l-8.1-3.4l-5,0.1l-4.3,0.2l2.8,2.8
	l3.5,7.5l2,7.9l-2.4,6.4l-7.5-11.4l-9-4.9l-8.2-2.6l-12-2.8l-9.2-1.5l-10.5-2.4l-5.8-3.5l-1.7-2.2l3.8-7.5l-2.9-1.1l-16.9-3.4
	l-20.8-2l-25.4-1.2l-18.9,0.1l-20.8,0.3l-6,0.5L414,338.6z"></path>
<g>
	<path class="st1 gynWvJFV_1" d="M336,188.6c6.9,14,10.6,27,13.4,40.2c3.8,17.8,2.9,34.9-9.6,49.5c-4.4,5.1-9.9,9.4-17.1,7.1
		c-8-2.6-13.1-8.5-13.9-17.3c-1.8-19,7.9-32.5,21.3-44.1c3.6-3,6.5-1.5,6.2,3.1c-0.2,3.8-0.7,7.5-3.2,11.1
		c-6.6,9.3-9.5,20.1-10.3,31.3c-0.3,3.4-0.2,7.5,3.9,8.9c4.3,1.5,6.3-2.1,8.1-5.1c8.3-14.3,8-29.7,5.1-45.2
		c-3.1-16.5-11.4-31.1-19.2-45.7c-1.7-3.1-4.1-6.4-0.7-9.4c3.4-3.1,6.7-0.3,9.3,1.8c11.7,9.4,25.4,12.1,39.8,12.7
		c32.9,1.2,64.7-6.1,96.6-12.3c14-2.7,28.1-4.4,42.3-3.8c14.7,0.6,26.5,6.7,34.3,19.6c8.3,13.9,2.6,32.9-11.8,39
		c-2.5,1.1-5.7,3-7.8,0.2c-2.3-3.2,1.6-4.4,3.2-6.1c5.7-6.1,6.5-13.1,4-20.7c-4.6-14.1-18.1-23.8-34.6-24.7c-15.7-0.9-30.8,3-46,5.9
		c-22.8,4.2-43.7,8.3-68.7,9.7C366.2,195.3,352,193.7,336,188.6z"></path>
	<path class="st1 gynWvJFV_2" d="M182,266.5c0.3-35.8,31.1-75.3,65.8-83.6c12.5-3,25.3-4.2,34.9,7.8c7.4,9.2,5.6,24-3.8,30.2
		c-2.3,1.5-4.8,2.9-7.2,1.1c-2.8-2.1-0.1-4.3,0.7-6.3c0.6-1.4,1.4-2.8,1.8-4.2c4.7-15.4-2.7-23.9-18.2-20.1
		c-19.3,4.7-32.6,17.4-41.7,34.4c-9.8,18.3-16.3,37.9-12.5,59.1c4.5,24.7,23.1,34.1,45.7,23.5c7.2-3.4,13.5-8,18.8-14
		c1.3-1.4,2.6-3.6,4.8-2.2c2.2,1.5,0.9,3.6-0.1,5.2c-16.7,24.8-53.2,35.9-77.7,7.9C185.6,296.7,181.9,282.3,182,266.5z"></path>
	<path class="st1 gynWvJFV_3" d="M386.7,261.1c-5.1,4.2-8.9,7.6-13,10.7c-3.8,2.9-8.2,4.5-12.8,2.3c-4.7-2.3-4.9-6.9-4.8-11.3
		c0.3-12.2,5.1-22.8,11.9-32.7c0.5-0.7,1.1-1.3,1.8-1.9c3.4-2.7,7.3-6.5,11.6-3.5c4.1,2.9,1.5,7.5-0.1,11.3
		c-2.8,6.9-5.6,13.7-8.3,20.6c-0.6,1.5-1.5,3.6,0.3,4.7c1.8,1.1,3.2-0.8,4.5-1.9c5.4-4.8,9.9-10.4,14.6-15.9c2.6-3,5.3-5.8,8.2-8.4
		c2-1.7,4.6-2.9,7.2-1.3c2.7,1.6,2.7,4.4,2.1,7c-0.8,3.4-1.8,6.7-2.9,10c-2.1,6-4,12-5.1,18.2c-0.9,4.8-0.7,9.2,2.4,13
		c3,3.6,0.4,4-2.3,4.1c-7.7,0.4-14.5-5.8-15.3-14.1C386.4,268.8,386.7,265.4,386.7,261.1z"></path>
	<path class="st1 gynWvJFV_4" d="M277.7,265.6c-4.5,3.2-8.3,6.5-12.6,8.9c-7.6,4.3-15.4,3.4-19.7-3c-2.3-3.5-2.5-7.9-1.2-11.9
		c2.8-8.6,6.9-16.5,13.1-23.2c1.2-1.3,2.6-2.4,4.1-3.1c2.4-1.2,5.2-1.9,7.4-0.1c2.4,2,0.6,4.5-0.4,6.5c-3.2,6.7-15.2,24.8-9.7,28.6
		c4.6,3.2,23.3-15,28.7-23c1-1.5,1.9-2.9,3-4.3c2.2-2.9,4.7-5.7,8.7-3.9c4.4,2,4.3,5.9,2.6,9.5c-11.8,25.1-9.6,42.8,1.6,44.5
		c2.2,0.4,1.2,2.3-0.3,3.3c-2.8,1.9-5.8,1.7-8.8,0.4C285.6,291.2,277.4,284.3,277.7,265.6z"></path>
	<path class="st1 gynWvJFV_5" d="M284.8,316.3c4-5.6,10-7.9,15.6-10.5c18.9-8.8,38.6-13.5,59.5-11.5c11.6,1.1,21.1,8.6,24.3,20.9
		C350.4,297.5,317.6,304.2,284.8,316.3z"></path>
	<path class="st1 gynWvJFV_6" d="M456.7,262.1c-3.5-14.6-8.1-29.1-7.5-44.4c0.1-3.3-1.6-3.1-3.7-1.6c-2.1,1.6-4.2,3.1-6.2,4.8
		C426,232.4,420.2,248,417,264.4c-4.6,23.6-8,47.3-12,71c-1.1,6.5-2.9,12.8-6.5,18.4c-1,1.6-2,3.6-4.4,3.4c-2.4-0.2-3-2.2-3.3-4.2
		c-0.3-3-1.6-5.4-4.9-4.4c-3.5,1-3.4,4-2.4,7c2.5,7.1,10.5,10.2,17.1,6.5c5.5-3.1,9.3-7.9,12.5-13.1c9.7-15.8,13.7-33.5,16.5-51.4
		c0.9-5.8,2.8-7.3,8.6-7.1c12,0.4,20.1-7.8,19.7-20.3C457.5,268.5,457.4,265.2,456.7,262.1z M444.3,275.4c-0.4,4.3-2.2,7.8-7.3,7.4
		c-5.4-0.4-5.9-4.5-5.4-8.7c1-8.7,2-17.3,6.4-25.6C441.4,257.3,445.1,265.9,444.3,275.4z"></path>
	<path class="st1 gynWvJFV_7" d="M536.9,273.5c-5.8-2.4-9.6-2.5-19.6-1.8s-11.1-1-15.6-9c-0.8-1.5-2-2.9-3.1-4.2c-7-8.4-7.3-10.7-1.2-19.8
		c1.7-2.5,3.9-4.6,5.9-7c1.1-1.4,3.9-2.4,2.2-4.7c-1.5-1.9-3.7-0.3-5.4,0.4c-8.8,3.4-14.9,9.7-18.6,18.3c-4.5,10.4-8.4,18.6-12.8,29
		c-0.9,2.2-3.9,4.7-2.8,6.6c1.2,2.1,3.6,1.3,5.4,1.1c10.2-1.3,20.3-2.8,30.5-4.2c8.2-1.1,16.6-2.2,24.7-0.1c7.1,1.8,9.3,7.2,6,12.9
		c-0.9,1.6-3.7,2.8-1.9,4.9c1.9,2.3,4.9,1.7,7.3,0.6c4.6-2.2,7.8-5.6,7.8-11.1C545.5,279.4,542.1,275.6,536.9,273.5z M489.3,274.6
		c-2.7,0.5-3.8-0.4-3.2-2.7c1-3.7-0.2-9.7,3.8-10.5c2.7-0.5,4.2,5.3,4.6,8.9C495.1,274.5,491.5,274,489.3,274.6z"></path>
</g>
<path class="st2 gynWvJFV_8" d="M432.1,337.1C432,337.1,432,337.1,432.1,337.1c-0.1,0.1,0,0.1,0,0.1C432.1,337.2,432.1,337.2,432.1,337.1
	C432.1,337.2,432.1,337.1,432.1,337.1z"></path>
<path class="st2 gynWvJFV_9" d="M430.9,337.1c0,0,0,0.1,0,0.1C430.9,337.2,430.9,337.2,430.9,337.1C431,337.2,431,337.1,430.9,337.1
	C430.9,337.1,430.9,337.1,430.9,337.1z"></path>
<path class="st2 gynWvJFV_10" d="M446.6,337c-0.1,0-0.1,0-0.2,0.1c0.1,0,0.1,0.1,0.2,0.1C446.6,337.2,446.7,337.1,446.6,337
	C446.7,337,446.6,337,446.6,337z"></path>
<path d="M507.2,340.5c-0.1,0-0.2,0-0.2,0c-0.1,0.1,0,0.2,0.1,0.2c0.1,0,0.1-0.1,0.2-0.1C507.3,340.6,507.3,340.5,507.2,340.5z" class="gynWvJFV_11"></path>
<path d="M512.9,341.4C512.9,341.4,513,341.5,512.9,341.4c0.1,0,0.1,0,0.2,0C513.1,341.4,513,341.4,512.9,341.4
	C513,341.4,512.9,341.4,512.9,341.4z" class="gynWvJFV_12"></path>
<path d="M517.5,341.1L517.6,341.1L517.5,341.1Z" class="gynWvJFV_13"></path>
<path d="M515.6,342c0.1,0,0.1,0.1,0.2,0.1c0.1,0,0.1-0.1,0.2-0.1c-0.1,0-0.1-0.1-0.2-0.1C515.8,341.8,515.7,341.9,515.6,342z" class="gynWvJFV_14"></path>
<path d="M511.2,341c-0.1,0-0.4,0-0.4,0.1c-0.1,0.3,0.2,0.3,0.4,0.4C511.3,341.3,511.6,341.2,511.2,341z" class="gynWvJFV_15"></path>
<path d="M510.2,340.8c-0.6-0.1-1.1-0.1-1.8-0.2C509,341.2,509.6,341.1,510.2,340.8z" class="gynWvJFV_16"></path>
<path d="M527.5,343.5c0.3,0.2,0.6,0.2,1,0C528.1,343.3,527.8,343.4,527.5,343.5z" class="gynWvJFV_17"></path>
<path d="M496.9,339.2L497,339.2L496.9,339.1Z" class="gynWvJFV_18"></path>
<path class="st2 gynWvJFV_19" d="M471.2,337.2c0,0,0.1,0.1,0.1,0.1c0,0,0.1-0.1,0.2-0.1C471.4,337.2,471.3,337.1,471.2,337.2
	C471.2,337.1,471.2,337.2,471.2,337.2z"></path>
<path class="st2 gynWvJFV_20" d="M475.2,338.6L475.3,338.6L475.2,338.6Z"></path>
<path class="st2 gynWvJFV_21" d="M485.1,339.5L485.2,339.5L485.1,339.5Z"></path>
<path class="st2 gynWvJFV_22" d="M467.1,336.7L467.1,336.6L467,336.7Z"></path>
<path class="st2 gynWvJFV_23" d="M453.9,337c0.4,0.3,0.6,0.1,1-0.2C454.5,336.6,454.1,336.5,453.9,337z"></path>
<path class="st2 gynWvJFV_24" d="M451.1,336.9C451.1,337,451.1,337,451.1,336.9c0.1,0.1,0.2,0.1,0.2,0C451.3,336.9,451.2,336.9,451.1,336.9
	C451.2,336.9,451.1,336.9,451.1,336.9z"></path>
<path d="M502,339.8c-0.4-0.1-0.7-0.1-1.1-0.2C501.2,340.1,501.6,340,502,339.8z" class="gynWvJFV_25"></path>
<path d="M504,340c-0.1,0-0.2,0-0.3,0c0,0.1,0.1,0.2,0.1,0.2c0.1,0,0.2,0,0.3-0.1C504,340.1,504,340,504,340z" class="gynWvJFV_26"></path>
<path class="st2 gynWvJFV_27" d="M485.4,338L485.4,338L485.4,337.9Z"></path>
<path d="M506.2,340.6C506.2,340.6,506.2,340.7,506.2,340.6c0.1,0.1,0.1,0,0.1,0C506.3,340.6,506.3,340.6,506.2,340.6
	C506.2,340.6,506.2,340.6,506.2,340.6z" class="gynWvJFV_28"></path>
<path d="M499.3,339.6L499.4,339.6L499.4,339.6Z" class="gynWvJFV_29"></path>
<path d="M431.3,301.6L431.3,301.6L431.3,301.6Z" class="gynWvJFV_30"></path>
<path class="st2 gynWvJFV_31" d="M468.6,298.4C468.6,298.4,468.6,298.3,468.6,298.4C468.6,298.4,468.6,298.4,468.6,298.4
	C468.6,298.4,468.6,298.4,468.6,298.4z"></path>
<path class="st2 gynWvJFV_32" d="M461.2,298.3L461.2,298.3L461.3,298.3Z"></path>
<path class="st2 gynWvJFV_33" d="M481.4,299.2C481.4,299.2,481.4,299.1,481.4,299.2c-0.1-0.1-0.1-0.1-0.2-0.1
	C481.3,299.2,481.3,299.2,481.4,299.2C481.4,299.2,481.4,299.2,481.4,299.2z"></path>
<path d="M577.8,336.4c0,0-0.1-0.1-0.1-0.1c0,0,0,0-0.1,0.1C577.6,336.4,577.6,336.4,577.8,336.4
	C577.7,336.4,577.7,336.4,577.8,336.4z" class="gynWvJFV_34"></path>
<path d="M589.8,341.9L589.8,341.9L589.8,341.9Z" class="gynWvJFV_35"></path>
<path d="M594.2,345.8c0.1,0,0.1,0,0.2,0c0-0.1-0.1-0.1-0.1-0.1c-0.1,0-0.1,0-0.2,0C594.1,345.7,594.1,345.8,594.2,345.8z" class="gynWvJFV_36"></path>
<path d="M591.8,344.1L591.8,344.2L591.8,344.1Z" class="gynWvJFV_37"></path>
<path class="st2 gynWvJFV_38" d="M610.4,364L610.4,364L610.5,364Z"></path>
<path d="M528.3,354.7L528.3,354.7L528.3,354.7Z" class="gynWvJFV_39"></path>
<path d="M559.8,313.2c-0.3-0.1-0.5-0.1-0.6-0.1l-0.1,0l0,0.1C559.2,313.4,559.4,313.4,559.8,313.2z" class="gynWvJFV_40"></path>
<path d="M562.8,314.5C562.8,314.5,562.8,314.5,562.8,314.5L562.8,314.5z" class="gynWvJFV_41"></path>
<path d="M564.7,315.3c-0.1,0-0.1,0-0.2-0.1C564.5,315.3,564.5,315.4,564.7,315.3z" class="gynWvJFV_42"></path>
<path d="M578.6,336.6L578.5,336.6L578.6,336.7Z" class="gynWvJFV_43"></path>
<path d="M580.3,337.3L580.2,337.3L580.3,337.3Z" class="gynWvJFV_44"></path>
<path class="st2 gynWvJFV_45" d="M588.4,379.3C588.4,379.3,588.4,379.3,588.4,379.3C588.4,379.3,588.4,379.3,588.4,379.3
	C588.4,379.3,588.4,379.3,588.4,379.3z"></path>
<path d="M592.7,371.9C592.7,371.8,592.7,371.8,592.7,371.9c-0.1,0-0.2,0-0.2,0.1c0,0,0.1,0.1,0.1,0
	C592.6,371.9,592.7,371.9,592.7,371.9z" class="gynWvJFV_46"></path>
<path d="M592,368.9c-0.1,0-0.1-0.1-0.2-0.1c0,0-0.1,0.1-0.1,0.1c0,0.1,0.1,0.1,0.1,0.2C591.9,369,592,368.9,592,368.9z" class="gynWvJFV_47"></path>
<path d="M554.9,360.2C554.9,360.2,554.9,360.2,554.9,360.2L554.9,360.2z" class="gynWvJFV_48"></path>
<path d="M580.1,339L580,339L580.1,339.1Z" class="gynWvJFV_49"></path>
<path class="st2 gynWvJFV_50" d="M488.2,334.8C488.2,334.8,488.2,334.8,488.2,334.8c0.1,0,0.1,0,0.1,0C488.2,334.7,488.2,334.7,488.2,334.8
	C488.2,334.7,488.1,334.8,488.2,334.8z"></path>
<path class="st2 gynWvJFV_51" d="M462.1,300.7L462.2,300.7L462.2,300.7Z"></path>
<path d="M588.2,360.8L588.2,360.8L588.2,360.8z" class="gynWvJFV_52"></path>
<path class="st2 gynWvJFV_53" d="M450.8,300.8C450.8,300.8,450.8,300.8,450.8,300.8C450.8,300.8,450.9,300.9,450.8,300.8
	C450.9,300.8,450.9,300.8,450.8,300.8C450.9,300.8,450.8,300.8,450.8,300.8z"></path>
<path class="st2 gynWvJFV_54" d="M588.2,378.6L588.2,378.5L588.2,378.6Z"></path>
<path d="M541.5,357.1c-0.3-0.1-0.5-0.3-0.9,0.1C541,357.3,541.3,357.5,541.5,357.1z" class="gynWvJFV_55"></path>
<path d="M540.5,356.8c-1.8-0.4-3.4-0.9-5.3-1C536.7,356.6,539.4,357.1,540.5,356.8z" class="gynWvJFV_56"></path>
<path d="M541.4,359.1C541.4,359.2,541.4,359.2,541.4,359.1c0.1,0.1,0.1,0,0.1,0C541.5,359.1,541.5,359.1,541.4,359.1
	C541.4,359.1,541.4,359.1,541.4,359.1z" class="gynWvJFV_57"></path>
<path d="M535.9,356.8L535.8,356.8L535.8,356.8Z" class="gynWvJFV_58"></path>
<path d="M548,361.5c0,0,0.1,0.1,0.1,0.1c0,0,0.1,0,0.1-0.1C548.1,361.5,548.1,361.4,548,361.5C548,361.4,548,361.4,548,361.5z" class="gynWvJFV_59"></path>
<path d="M585.3,374.6L585.4,374.6L585.3,374.5Z" class="gynWvJFV_60"></path>
<path d="M570,331.2C570,331.2,570.1,331.2,570,331.2c0.1,0,0.1,0,0.1,0C570.1,331.2,570.1,331.2,570,331.2z" class="gynWvJFV_61"></path>
<path d="M533,355.2C533,355.2,532.9,355.2,533,355.2c-0.1-0.1-0.2,0-0.3,0c0,0,0.1,0.1,0.1,0.1C532.9,355.3,532.9,355.3,533,355.2z" class="gynWvJFV_62"></path>
<path d="M529.2,354.3L529.3,354.3L529.3,354.2Z" class="gynWvJFV_63"></path>
<path d="M529.8,343L529.8,342.9L529.8,342.9Z" class="gynWvJFV_64"></path>
<path d="M538.9,358c-2.6-0.6-5.1-1.6-7.7-2C533.5,357.6,536.2,357.8,538.9,358z" class="gynWvJFV_65"></path>
<path d="M534.7,355.6c0,0-0.1,0-0.2-0.1c0,0-0.1,0.1-0.1,0.1c0.1,0,0.1,0.1,0.2,0.1C534.6,355.8,534.7,355.8,534.7,355.6z" class="gynWvJFV_66"></path>
<path class="st0 gynWvJFV_67" d="M569.4,337.5c0.3,0.2,0.6,0.4,0.9,0.3c0.2-0.4,0.4-0.7,0.6-1.1l0,0c0.5-0.9,1-1.8,1.6-2.9
	C571.5,334.3,570.1,336.1,569.4,337.5z"></path>
<path d="M548.3,358.8c0-0.1-0.1-0.1-0.2-0.2c-0.1,0-0.2,0.1-0.2,0.1c0,0.1,0,0.2,0.1,0.3C548.1,359,548.2,358.9,548.3,358.8z" class="gynWvJFV_68"></path>
<path class="st2 gynWvJFV_69" d="M611.1,366.2c0,0,0,0.1,0.1,0.1c0,0,0,0,0.1-0.1C611.2,366.2,611.2,366.2,611.1,366.2
	C611.1,366.1,611.1,366.2,611.1,366.2z"></path>
<path class="st2 gynWvJFV_70" d="M611.6,365.4L611.7,365.3L611.6,365.3Z"></path>
<path d="M550.5,358.9L550.6,358.9L550.6,358.9Z" class="gynWvJFV_71"></path>
<path d="M551.6,359.1c-0.2-0.3-0.4-0.3-0.6,0C551.2,359.4,551.4,359.4,551.6,359.1z" class="gynWvJFV_72"></path>
<path d="M570.1,325.6C570.2,325.6,570.2,325.6,570.1,325.6C570.2,325.6,570.2,325.6,570.1,325.6L570.1,325.6z" class="gynWvJFV_73"></path>
<path d="M566,325.3C566,325.3,566,325.3,566,325.3C566.1,325.3,566,325.3,566,325.3L566,325.3z" class="gynWvJFV_74"></path>
<path d="M556.1,325.7C556.1,325.7,556.1,325.7,556.1,325.7C556.1,325.7,556.1,325.7,556.1,325.7L556.1,325.7z" class="gynWvJFV_75"></path>
<path d="M558.6,344.8C558.6,344.8,558.7,344.8,558.6,344.8C558.7,344.8,558.7,344.8,558.6,344.8L558.6,344.8z" class="gynWvJFV_76"></path>
<path d="M571,329.7C571.1,329.7,571.1,329.7,571,329.7C571.1,329.7,571.1,329.7,571,329.7L571,329.7z" class="gynWvJFV_77"></path>
<path class="st3 gynWvJFV_78" d="M447.8,298.5L447.8,298.5c-0.1,0-0.2,0-0.3,0l0,0C447.6,298.5,447.7,298.5,447.8,298.5
	C447.8,298.5,447.8,298.5,447.8,298.5z"></path>
<path d="M500.8,335.2c-1.6-0.2-3.2-0.3-4.7-0.3c-1.7,0-3.5-0.2-5.1-0.4c-2-0.3-4-0.3-5.9-0.7c-0.4-0.1-0.7,0.1-1,0.4
	c0.5,0.1,0.7,0.5,1.1,0.5c2.8,0.3,5.7,0.6,8.5,0.8c3.1,0.3,6.2,0.1,9.2,0.8c3.7,0.8,7.5,1,11.6,1.3c-2.4-1.3-4.8-1.1-7-1.5
	C505.2,335.6,502.9,335.5,500.8,335.2z M488.2,334.8C488.2,334.8,488.2,334.8,488.2,334.8C488.1,334.8,488.2,334.7,488.2,334.8
	C488.2,334.7,488.2,334.7,488.2,334.8C488.2,334.7,488.2,334.8,488.2,334.8z" class="gynWvJFV_79"></path>
<path d="M510.4,304.1L510.4,304.1L510.4,304.1Z" class="gynWvJFV_80"></path>
<path d="M505.9,303.2c-4.3-0.4-8.7-0.8-13-1c-2.8-0.2-5.6-0.2-8.4,0c8.7,0.4,17.2,1.8,25.9,1.9C509,303.2,507.4,303.3,505.9,303.2z" class="gynWvJFV_81"></path>
<path d="M510.4,304.1L510.4,304.1L510.4,304.1Z" class="gynWvJFV_82"></path>
<path class="st3 gynWvJFV_83" d="M470.8,332.8c-0.9,0.1-1.8,0.2-2.7,0.1c-1.5-0.1-3-0.4-4.6-0.5c-1.9-0.1-3.7-0.2-5.6-0.2
	c-0.7,0-1.5-0.1-2.3,0.7c5.7,0.2,11.1,1.1,16.6,0.7C472,332.8,471.5,332.7,470.8,332.8z"></path>
<path d="M550.7,312c-3.9-0.9-7.3-2.7-11.3-3.1c-1.1-0.1-2-0.6-3.2-0.5c0.1,0.2,0.1,0.4,0.1,0.4c6.5,1.7,12.9,3.4,19.4,5.1
	C554.2,312.8,552.3,312.4,550.7,312z" class="gynWvJFV_84"></path>
<path d="M555.6,313.9L555.6,313.9L555.6,313.9Z" class="gynWvJFV_85"></path>
<path d="M445.9,332.1c-1.8,0.3-3.6,0.9-5.4,1c-1.4,0.1-2.8,0.3-4.1,0.8c5.6,0.1,11.1-1.5,16.7-1.4
	C450.7,331.7,448.3,331.8,445.9,332.1z" class="gynWvJFV_86"></path>
<path d="M558.9,349c-0.1,0-0.4-0.1-0.4-0.2c-0.5-0.9-1.5-1-2.4-1.2c-1.9-0.5-3.5-1.4-5.2-2.2c-1.7-0.8-3.4-1.4-5.4-1.7
	c0.4,0.5,0.9,0.5,1.3,0.6c1.9,0.5,3.6,1.3,5.4,2.1c3.1,1.3,6.2,2.8,9.3,4.2c0,0,0,0,0,0v0C560.9,349.6,560.3,348.8,558.9,349z" class="gynWvJFV_87"></path>
<path d="M557.1,323.9c4,1.6,7.9,3.4,11.8,5.2c0.7,0.3,1.3,0.9,2.1,0.6c-4.9-2.1-9.5-4.8-14.8-6.2
	C556.5,323.7,556.8,323.8,557.1,323.9z" class="gynWvJFV_88"></path>
<path d="M571,329.7C571,329.7,571.1,329.7,571,329.7C571,329.7,571,329.7,571,329.7C571,329.7,571,329.7,571,329.7z" class="gynWvJFV_89"></path>
<path d="M531.8,340.5c0.5,0.1,0.9,0.2,1.4,0.2C532.7,340.7,532.2,340.6,531.8,340.5z" class="gynWvJFV_90"></path>
<path d="M523.4,338.9c2.8,0.4,5.6,1.1,8.4,1.6C529,339.9,526.5,338.1,523.4,338.9z" class="gynWvJFV_91"></path>
<path d="M570.7,321.6c2.4,1.3,4.9,2.6,7,4.4C573.9,322.8,572.6,322,570.7,321.6z" class="gynWvJFV_92"></path>
<path d="M521.1,305.6c1.4,0.8,3.1,0.6,4.7,0.8C524.4,305.7,522.7,305.9,521.1,305.6z" class="gynWvJFV_93"></path>
<path d="M565.9,325.2c-1-0.4-1.8-1.2-3-1.2C563.9,324.6,564.8,325,565.9,325.2z" class="gynWvJFV_94"></path>
<path d="M566,325.3C566,325.3,566,325.3,566,325.3C566,325.3,565.9,325.3,566,325.3C565.9,325.3,566,325.3,566,325.3z" class="gynWvJFV_95"></path>
<path d="M432.4,304.5L432.4,304.5L432.4,304.5Z" class="gynWvJFV_96"></path>
<path d="M543.9,344.2c-0.4-0.6-1.1-0.6-1.7-0.6C542.5,344.2,543.4,343.8,543.9,344.2L543.9,344.2L543.9,344.2L543.9,344.2z" class="gynWvJFV_97"></path>
<path d="M570.1,325.6L570.1,325.6C570.1,325.6,570.1,325.6,570.1,325.6C570.1,325.6,570.1,325.6,570.1,325.6z" class="gynWvJFV_98"></path>
<path d="M568.8,324.8c0.5,0.3,0.9,0.5,1.3,0.7C570.1,324.9,569.6,324.7,568.8,324.8z" class="gynWvJFV_99"></path>
<path d="M543.9,344.2L543.9,344.2L543.9,344.2c0.4,0.3,0.8,0.5,1.3,0.9C545.1,344.2,544.4,344.4,543.9,344.2z" class="gynWvJFV_100"></path>
<path d="M556.1,325.7C556.1,325.7,556.1,325.7,556.1,325.7L556.1,325.7C556.1,325.7,556.1,325.7,556.1,325.7z" class="gynWvJFV_101"></path>
<path d="M554.8,325.1c0.4,0.2,0.9,0.4,1.3,0.6C555.8,325.4,555.5,325,554.8,325.1z" class="gynWvJFV_102"></path>
<path d="M557.8,344.6c0.4,0.1,0.6,0.1,0.8,0.2C558.5,344.5,558.4,344.2,557.8,344.6z" class="gynWvJFV_103"></path>
<path d="M558.6,344.8L558.6,344.8C558.6,344.8,558.6,344.8,558.6,344.8C558.6,344.8,558.6,344.8,558.6,344.8z" class="gynWvJFV_104"></path>
<path d="M555.7,314C555.8,313.9,555.7,313.9,555.7,314C555.6,313.9,555.6,313.9,555.7,314L555.7,314
	C555.7,313.9,555.7,313.9,555.7,314z" class="gynWvJFV_105"></path>
<path d="M562.7,315.6C562.7,315.6,562.7,315.6,562.7,315.6c0.2,0.1,0.3,0.2,0.5,0.2c0,0,0,0,0,0c0,0,0,0,0,0l0,0
	C563.1,315.7,562.9,315.7,562.7,315.6z" class="gynWvJFV_106"></path>
<path d="M562.7,315.6c-0.2-0.1-0.3-0.2-0.5-0.2l0,0C562.4,315.5,562.5,315.5,562.7,315.6C562.7,315.6,562.7,315.6,562.7,315.6
	L562.7,315.6z" class="gynWvJFV_107"></path>
<path d="M561.8,315.1c0.1,0,0.2,0.1,0.2,0.1C561.9,315.2,561.9,315.2,561.8,315.1L561.8,315.1z" class="gynWvJFV_108"></path>
<path d="M562.2,315.4c-0.1,0-0.2-0.1-0.2-0.1C562.1,315.3,562.2,315.3,562.2,315.4L562.2,315.4L562.2,315.4z" class="gynWvJFV_109"></path>
<path d="M561.3,314.9c0.2,0.1,0.3,0.2,0.5,0.2l0,0C561.6,315.1,561.4,315,561.3,314.9L561.3,314.9z" class="gynWvJFV_110"></path>
<path d="M510.4,304.2C510.4,304.2,510.4,304.1,510.4,304.2L510.4,304.2L510.4,304.2L510.4,304.2L510.4,304.2
	C510.4,304.1,510.4,304.2,510.4,304.2z" class="gynWvJFV_111"></path>
<path d="M574.1,362.6c0.2-0.1,0.2-0.1,0.1,0.1c1.1,0.6,2.2,1.3,3.5,1.7c-2-3.2-22-8.6-24.9-6.9c0.3,0.4,0.7,0.6,1.2,0.6
	c2.5,0,5,0.4,7.4,0.8c2.3,0.4,4.6,0.6,6.8,1.5C570.2,361.2,572.2,361.9,574.1,362.6z" class="gynWvJFV_112"></path>
<path d="M584,343.1C584,343.1,584,343.1,584,343.1c-1.1-0.7-2.3-1-3.1-0.5c9,2.9,15.5,8.5,22,14.4c-1.7-2.2-4-3.9-6-5.8l-0.1,0
	l0-0.1c-0.1-0.1-0.1-0.3-0.2-0.4c-2.2-1.7-4.3-3.4-6.8-4.8C587.9,344.9,586.1,343.7,584,343.1z" class="gynWvJFV_113"></path>
<path d="M582.6,368.2c-4.9-3.1-9.9-5.8-15.8-7.1c-0.6-0.1-1.3-0.7-2.1,0.4c4,0.7,7.6,1.8,10.9,3.5c3.4,1.7,6.6,3.6,9.8,5.5
	C584.8,369.4,583.7,368.9,582.6,368.2z" class="gynWvJFV_114"></path>
<path d="M589.4,344.6c0.5,0.3,1,0.5,1.6,0.4c-4.2-3.4-7.7-5.3-12.6-6.9c-0.9-0.3-2-0.8-3.1,0.1c1.3,0.4,2.4,0.7,3.5,1
	C582.8,340.5,586.3,342.3,589.4,344.6z" class="gynWvJFV_115"></path>
<path d="M579.7,344.1c4.4,1.7,8.7,3.5,12.7,5.7C590.5,347.5,581,343.4,579.7,344.1z" class="gynWvJFV_116"></path>
<path d="M564.1,357.5c4,0.8,7.8,1.7,11.6,3.7C574.7,359.3,565.3,356.4,564.1,357.5z" class="gynWvJFV_117"></path>
<path d="M599.8,356.4c0.3,0.7,4.9,4.3,5.7,4.2C603.7,359.1,602.6,357,599.8,356.4z" class="gynWvJFV_118"></path>
<path d="M595.4,347.1c0,0,0-0.1,0.1-0.1c0,0,0,0,0,0c0,0,0,0,0,0c0,0-0.1,0-0.2,0.1C595.3,347,595.4,347.1,595.4,347.1z" class="gynWvJFV_119"></path>
<path d="M431.3,301.6L431.3,301.6L431.3,301.6L431.3,301.6Z" class="gynWvJFV_120"></path>
<path d="M462,308.3c0.3-0.1,0.6-0.3,1-0.5c-0.3-0.2-0.6-0.5-0.9-0.5c-1.3,0-2.6,0-3.9,0c-0.3,0-0.7,0.2-1,0.3c0,0.1,0,0.3,0,0.4
	c0.6,0.1,1.2,0.2,1.8,0.3c-0.2,2.3-0.5,4.5-0.7,6.9c-3.6,0.1-7,0.2-10.7,0.4c0.2-1.9,0.5-3.7,0.5-5.4c0-1.2,0.3-2,1.7-2
	c0,0,0.1-0.1,0.3-0.3c-0.3-0.1-0.5-0.3-0.7-0.3c-1.2,0-2.4,0.1-3.6,0.2c-0.2,0-0.5,0.3-0.7,0.5c0.2,0.2,0.4,0.5,0.6,0.4
	c0.6,0,0.9,0.2,0.8,0.8c-0.4,4.3-0.8,8.6-1.2,12.9c-0.1,0.7-0.3,1.1-1.1,1.1c-0.3,0-0.6,0.4-0.9,0.6c0.1,0.1,0.1,0.2,0.2,0.3
	c1.5-0.1,3-0.2,4.5-0.3c0.2,0,0.5-0.3,0.7-0.5c-0.2-0.1-0.4-0.3-0.6-0.4c-0.3-0.1-0.6,0-1,0c0.2-2.3,0.5-4.6,0.7-6.8
	c3.3-0.2,6.5-0.3,9.7-0.3c0.3,0,0.7,0.4,0.7,0.6c-0.2,2-0.4,4-0.6,6.1c-0.4,0-0.8,0-1.1,0.1c-0.3,0.1-0.5,0.4-0.7,0.5
	c0.2,0.1,0.4,0.3,0.7,0.3c1.1,0,2.1,0,3.2-0.1c0.4,0,1.2,0.4,1.3-0.5c0-0.2-0.7-0.4-1.3-0.7c0.5-4.7,1-9.5,1.5-14.4
	C461.4,308.3,461.7,308.4,462,308.3z" class="gynWvJFV_121"></path>
<path d="M488.1,323.8c0.5-4.5,0.9-9.1,1.5-13.6c0-0.2,0.5-0.4,0.8-0.6c0.3-0.2,0.6-0.3,0.9-0.5c0-0.1-0.1-0.2-0.1-0.3
	c-1.5-0.1-3.1-0.3-4.6-0.4c-0.1,0.1-0.1,0.2-0.2,0.3c0.4,0.3,0.8,0.6,1.3,1c-0.1,0.6-0.1,1.3-0.2,2c-0.1,0.8-0.2,1.5-0.2,2.3
	c-0.2,1.9-1.8,3-3.7,2.7c-0.9-0.2-1.3-0.6-1.2-1.6c0.2-1.6,0.3-3.2,0.4-4.7c0.1-0.7,0.1-1.4,0.2-2c-1.1-0.1-2-0.3-3-0.4
	c-0.2,0-0.4,0.2-0.7,0.3c0.2,0.2,0.3,0.4,0.6,0.5c0.3,0.1,0.7,0.2,1.1,0.3c-0.1,0.9-0.2,1.7-0.3,2.5c-0.1,0.9-0.2,1.7-0.3,2.6
	c-0.1,2.2,1,3.5,3.2,3.3c1-0.1,1.9-0.4,3-0.7c-0.3,2.3-0.5,4.7-0.8,7.2c-0.5,0-0.9-0.1-1.2-0.1c-0.2,0-0.4,0.3-0.5,0.4
	c0.1,0.2,0.2,0.4,0.4,0.4c1.5,0.1,3.1,0.2,4.6,0.3c0.1,0,0.3-0.2,0.6-0.4c-0.6-0.2-1-0.4-1.5-0.6
	C488.1,323.9,488.1,323.9,488.1,323.8z" class="gynWvJFV_122"></path>
<path d="M527.4,328.7c-1.3-4.6-2.6-9.2-4-13.7c-0.8-2.5-0.3-2-2.7-2.5c-0.6-0.1-1.2-0.2-1.8-0.3c0,0.1-0.1,0.3-0.1,0.4
	c0.3,0.2,0.6,0.4,0.9,0.5c1.3,0.5,1.5,1,0.8,2.1c-0.8,1.2-1.5,2.5-2.3,3.8c-1.4,2.2-2.8,4.3-4.2,6.5c-0.4,0.6-0.9,0.9-1.7,0.3
	c-0.3-0.2-1.1,0-1.3,0.2c-0.2,0.3-0.1,1,0.2,1.3c0.5,0.7,1.5,0.7,2.2,0c0.8-0.9,1.6-1.7,2.2-2.7c1.9-2.9,3.8-5.9,5.8-9
	c0.1,0.4,0.3,0.6,0.3,0.8c1.2,4.3,2.5,8.5,3.7,12.8c0.2,0.8,0.6,1.1,1.2,1.2c0.8,0.2,1.6,0.4,2.3,0.5c0.2,0,0.5-0.2,0.7-0.2
	c-0.2-0.2-0.4-0.5-0.7-0.6C528,330.2,527.6,329.6,527.4,328.7z" class="gynWvJFV_123"></path>
<path d="M539.4,315.7c-4.9-1.4-9.3,2-9.5,6.8c-1,5.2,3.8,9.8,8.1,10.8c4.5,1.1,8.5-1.3,9.1-6.4C547.6,322.2,544.4,317.2,539.4,315.7
	z M542.6,331.4c-2.6,2.3-6.3,1.1-8.6-1.2c-1.5-1.5-2-3.4-2.1-5.2c-0.1-2.6,0.5-5,2.1-6.9c1.7-1.9,3.9-2.1,6.4-1.1
	c2.3,0.9,3.6,2.7,4.1,5.1c0.3,1.4,0.3,2.8,0.4,4.2C544.7,328.3,544.1,330.1,542.6,331.4z" class="gynWvJFV_124"></path>
<path d="M507.3,325.8c-1.1-3.4-2.1-6.8-3.1-10.1c-0.6-1.9-1-3.8-1.6-6c-0.4,0.5-0.7,0.7-0.9,1c-0.4,0.8-0.8,1.8-1.3,2.6
	c-2.1,3.4-4.2,6.7-6.2,10.1c-0.4,0.7-0.9,1.4-1.9,1.2c-0.1,0-0.3,0.3-0.5,0.5c0,0.1,0.1,0.3,0.1,0.4c1,0.1,1.9,0.2,2.9,0.3
	c0.3,0,0.7-0.2,1-0.3c-0.2-0.2-0.5-0.4-0.7-0.6c-0.1-0.1-0.2-0.2-0.3-0.3c0.9-1.5,1.8-2.9,2.8-4.3c0.2-0.3,0.8-0.5,1.2-0.5
	c1.4,0.1,2.8,0.3,4.2,0.6c0.4,0.1,0.8,0.5,0.9,0.9c0.5,1.4,1,2.8,1.3,4.2c0.3,1.3,0.9,1.8,2.1,1.8c0.6,0,1.3,0.1,1.9,0.2
	c0-0.2,0-0.3,0.1-0.5c-0.3-0.1-0.7-0.2-1-0.3C507.8,326.2,507.4,326.1,507.3,325.8z M498.2,318.7c1.1-1.8,2.1-3.5,3.2-5.2
	c0.1,0,0.2,0,0.3,0c0.5,1.9,1,3.8,1.5,5.9C501.4,319.1,499.9,318.9,498.2,318.7z" class="gynWvJFV_125"></path>
<path d="M477.6,322.9c-1.1-3.3-2.1-6.5-3.1-9.8c-0.6-1.8-1-3.7-1.6-5.8c-0.4,0.5-0.7,0.8-0.9,1.1c-0.4,0.9-0.8,1.8-1.3,2.7
	c-2.1,3.5-4.1,7.1-6.2,10.7c-0.4,0.7-0.9,1.5-1.9,1.4c-0.1,0-0.3,0.3-0.5,0.5c0,0.1,0.1,0.2,0.1,0.4c1,0,1.9,0,2.9,0
	c0.3,0,0.7-0.3,1-0.4c-0.2-0.2-0.5-0.4-0.7-0.5c-0.1-0.1-0.2-0.2-0.3-0.3c0.9-1.6,1.8-3.1,2.8-4.6c0.2-0.3,0.8-0.6,1.2-0.6
	c1.4,0,2.8,0,4.2,0.2c0.4,0,0.8,0.4,0.9,0.8c0.5,1.3,1,2.7,1.3,4.1c0.3,1.2,0.9,1.7,2.1,1.5c0.6-0.1,1.3,0,1.9,0
	c0-0.2,0-0.3,0.1-0.5c-0.3-0.1-0.7-0.1-1-0.2C478.1,323.3,477.7,323.1,477.6,322.9z M468.5,316.7c1.1-1.9,2.1-3.7,3.2-5.5
	c0.1,0,0.2,0,0.3,0c0.5,1.8,1,3.7,1.5,5.7C471.7,316.8,470.2,316.8,468.5,316.7z" class="gynWvJFV_126"></path>
<path class="st4 gynWvJFV_127" d="M564.7,315.3c-0.1,0-0.1,0-0.2-0.1C564.5,315.3,564.5,315.4,564.7,315.3z"></path>
<path class="st4 gynWvJFV_128" d="M570.2,331.2c0,0-0.1,0-0.1,0C570,331.2,570.1,331.2,570.2,331.2C570.1,331.2,570.1,331.2,570.2,331.2z"></path>
<path class="st4 gynWvJFV_129" d="M432,337.2C432,337.2,432,337.2,432,337.2c0.1,0,0.1,0,0.1,0C432.1,337.2,432.1,337.1,432,337.2
	C432,337.1,432,337.1,432,337.2z"></path>
<path class="st4 gynWvJFV_130" d="M559.1,313.1L559.1,313.1c0.1,0.3,0.3,0.3,0.7,0.1C559.5,313.1,559.3,313.1,559.1,313.1L559.1,313.1z"></path>
<path class="st4 gynWvJFV_131" d="M430.9,337.2C430.9,337.2,430.9,337.2,430.9,337.2C431,337.2,431,337.1,430.9,337.2c0.1-0.1,0-0.1,0-0.1
	C430.9,337.1,430.9,337.2,430.9,337.2z"></path>
<path class="st4 gynWvJFV_132" d="M481.3,299.1c0,0,0,0.1,0.1,0.1c0,0,0.1,0,0.1-0.1c0,0,0-0.1,0-0.1C481.3,299.1,481.3,299.1,481.3,299.1z"></path>
<path class="st4 gynWvJFV_133" d="M461.2,298.3L461.3,298.3L461.2,298.3Z"></path>
<path class="st4 gynWvJFV_134" d="M450.9,300.8C450.9,300.8,450.8,300.8,450.9,300.8C450.8,300.8,450.8,300.8,450.9,300.8
	C450.8,300.8,450.9,300.9,450.9,300.8C450.9,300.8,450.9,300.8,450.9,300.8z"></path>
<path class="st4 gynWvJFV_135" d="M468.6,298.5C468.6,298.4,468.6,298.4,468.6,298.5c0.1-0.1,0-0.1,0-0.1C468.6,298.4,468.6,298.4,468.6,298.5z"></path>
<path class="st4 gynWvJFV_136" d="M528.3,354.7L528.3,354.7L528.3,354.7Z"></path>
<path class="st4 gynWvJFV_137" d="M485.4,338L485.4,338L485.4,337.9Z"></path>
<path class="st4 gynWvJFV_138" d="M485.1,339.5L485.2,339.5L485.1,339.5Z"></path>
<path class="st4 gynWvJFV_139" d="M462.2,300.7L462.1,300.7L462.2,300.7Z"></path>
<path class="st4 gynWvJFV_140" d="M446.4,337.1c0.1,0,0.1,0.1,0.2,0.1c0,0,0-0.1,0.1-0.1c0,0-0.1-0.1-0.1-0.1C446.6,337,446.5,337,446.4,337.1z"></path>
<path class="st4 gynWvJFV_141" d="M610.4,364L610.4,364L610.5,364Z"></path>
<path class="st4 gynWvJFV_142" d="M467.1,336.7L467.1,336.6L467,336.7Z"></path>
<path class="st4 gynWvJFV_143" d="M475.2,338.6L475.3,338.6L475.2,338.6Z"></path>
<path class="st4 gynWvJFV_144" d="M471.2,337.2c0,0,0.1,0.1,0.1,0.1c0,0,0.1-0.1,0.2-0.1C471.4,337.2,471.3,337.1,471.2,337.2
	C471.2,337.1,471.2,337.2,471.2,337.2z"></path>
<path class="st4 gynWvJFV_145" d="M430.5,305c-1.8,0.3-3.7,0.6-5.5,0.9l-7.5,29.9c0.3,0,0.5-0.1,0.8-0.1l0,0c3.5-0.7,7-1.3,10.8-1.2
	c-1,0.9-2.1,0.6-3.1,0.8c-2.8,0.5-5.6,0.9-8.4,1.4c-0.1,0-0.2,0-0.2,0l-0.2,0.7c0.6-0.1,1.1-0.1,1.7-0.2c4-0.4,8.1-0.8,12.1-1
	c3.2-0.1,6.3-0.3,9.5-0.4c3.1-0.1,6.2,0,9.2-0.3c3.7-0.4,7.5-0.1,11.2-0.3c3-0.1,6,0.2,8.9,0.4c1.1,0.1,2.3,0.1,3.4,0.3
	c4.4,0.7,8.8,1.2,13.3,1.4c3.7,0.2,7.3,0.3,11,0.7c5.6,0.5,11.1,1.3,16.7,2.2c4.5,0.7,9,1.2,13.5,1.9c2.8,0.4,5.6,0.8,8.4,1.5
	c3.7,1,7.3,2,11,2.9c4.7,1.1,9.5,2.2,12.9,5.7c0.7-0.4,1.5-0.7,1.7-1.5c0,0,0,0,0,0v0l0,0c1.9-1.3,2.6-3.3,4.1-4.8
	c-0.4-0.4-0.9-0.5-1.4-0.6c-1.3,1.1-1.6,2.8-2.6,4.1c-2.8-1.6-5.6-3.2-8.5-4.5c-0.4-0.2-0.8-0.4-0.6-1.1c3,1.8,6.1,3.2,8.8,5.1
	c1.2-1.2,1.1-1.7-0.4-2.5c-0.7-0.4-1.5-0.8-2.2-1.2c0.8,0.1,1.6,0,2.2,0.6c0.5,0.5,1.1,0.8,1.7,0.6c0.5-0.1,1-0.5,1-1
	c0-0.7-0.8-0.8-1.3-1.1c-0.6-0.4-1.5-0.4-1.8-1.4c1.4,0.1,2.5,0.8,3.6,1.4c0.3-0.6,0.5-1.1,0.7-1.6c-1.7-0.9-3.4-1.9-5.2-2.9
	c1.5-0.1,2.3,0.9,3.5,1c0.3-0.7,0.9-1.2,1-2c-1.4-0.7-2.7-1.3-4.2-2.1c0.7-0.2,0.9,0.3,1.5,0.2c-0.3-0.4,0-0.7,0.3-1
	c0.7-0.6,0.5-0.9-0.2-1.3c-1-0.5-2-0.8-3.1-1.1c-0.4-0.1-0.7-0.2-0.5-0.7c1,0.3,2.1,0.5,3,0.8c1.9,0.7,1.9,0.8,3-0.7
	c0-0.1,0-0.1,0-0.3c-2.7-1.3-5.5-2.7-8.3-4.1c2.1,0.8,4.1,1.6,6.2,2.4c1.3,0.5,2.4,2,4.1,0.7c0.1,0.6-0.7,1.1-0.1,1.2
	c0.7,0.1,1.4,1,2.1,0.1l0,0c0.1-0.3,0.6-0.4,0.5-0.8c-4.1-2.1-8.1-4.4-12.3-6.2c0.3,0.1,0.7,0.1,1,0.2c2.8,1.2,5.5,2.5,8.3,3.7
	c1.7,0.8,3.4,2.4,5.5,0.6c0.2,0.8-0.9,1-0.9,1.8c0.7,0.3,1.4,0.6,2,0.8c0.4-0.6,0.8-1.1,1.2-1.7c-0.7-0.4-1.3-0.9-2.1-1.1
	c0-0.1,0-0.3,0-0.4c0.6,0.2,1.2,0.5,1.7,0.7c0.4,0.2,0.8,0.2,1.1-0.2c0.3-0.4-0.1-0.7-0.4-0.9c-0.9-0.5-1.9-1-2.8-1.5
	c-1.5-0.9-3.3-1.4-4.6-2.6c2.9,1.3,5.7,2.5,8.4,4.1c0.3-0.6,0.1-0.9-0.7-1.5c-1.1-0.8-2.6-1.3-3.6-2.3c1.9,0.7,3.6,1.6,5.4,2.6
	c0.4-0.9,0.4-0.9-0.2-1.3c-0.8-0.5-1.7-0.8-2.4-1.4l0-0.1l-0.1,0c-0.6-0.3-1.2-0.6-1.5-1.2c1.5,0.6,3,1.3,4.4,2.1
	c2,1.1,2,1.2,3.5-0.3c0.1-0.1,0.1-0.2,0.2-0.3c-5.1-3.7-10.4-7.1-16.3-9.8l0,0c0,0,0,0,0,0c0.9,0.4,1.9,0.6,2.8,1.1
	c2.8,1.5,5.7,2.8,8.4,4.5c1.9,1.2,4.1,2.1,5.6,3.6c0.2,0.2,0.4,0.2,0.6,0.1c0.2-0.2,0.2-0.4,0-0.6c-0.3-0.4-0.7-0.7-1.1-1
	c-2.2-2-4.9-3.4-7.7-4.7c-4.5-2-8.9-4-13.6-5.5c-3.6-1.1-7-2.6-10.7-3.5c-1-0.2-2-0.3-3-0.7c-3-1.1-6.2-1.6-9.3-2.6
	c0-0.1,0.1-0.2,0.1-0.2c-0.1,0-0.2,0.1-0.3,0.1c-0.4,0-0.8,0-1.1-0.1c-2.8-0.9-5.6-1.1-8.5-1.4c-3.7-0.4-7.3-1.2-11-1.8
	c-2.1-0.3-4.3-0.6-6.4-0.8c-2.1-0.2-4.1-0.3-6.2-0.6c-2.7-0.4-5.4-0.9-8.1-1.2c-4.4-0.4-8.8-0.7-13.1-1c-5.2-0.4-10.3-0.5-15.5-0.6
	c-3.5,0-7,0-10.5,0.3c-1.7,0.1-3.4,0.4-5.1,0.3c0-0.1,0-0.1-0.1-0.1c-0.4,0-0.6,0.4-1.1,0.4c-1.9,0.1-3.9,0.2-5.8,0.4l0,0
	c-0.7,0.4-1.7-0.1-2.5,0.5c0.7,0.3,1.3,0.2,1.9,0.2c2.4-0.3,4.8-0.4,7.2-0.4c2.9-0.1,5.7,0.1,8.6-0.1c2.2-0.1,4.3,0,6.5,0.2
	c1.6,0.1,3.4,0.2,5.1,0.1c3.2-0.1,6.2,0.8,9.3,1.2c-0.4,0.3-0.8,0.2-1.3,0.2c-2-0.2-3.9-0.5-5.9-0.5c-4,0-7.9-0.6-11.9-0.4
	c-2.8,0.1-5.6,0.2-8.4,0.2c-3.5,0-6.9,0.2-10.4,0.4c-5.1,0.3-10.2,1.1-15.2,1.6l-0.6,2.3C426.8,305.4,428.6,305.1,430.5,305z"></path>
<path class="st4 gynWvJFV_146" d="M569.4,337.5c0.3,0.2,0.6,0.4,0.9,0.3c0.2-0.4,0.4-0.7,0.6-1.1l0,0c0.5-0.9,1-1.8,1.6-2.9
	C571.5,334.3,570.1,336.1,569.4,337.5z"></path>
<path class="st4 gynWvJFV_147" d="M451.1,336.9C451.1,337,451.1,337,451.1,336.9c0.1,0.1,0.2,0.1,0.2,0C451.3,336.9,451.2,336.9,451.1,336.9
	C451.2,336.9,451.1,336.9,451.1,336.9z"></path>
<path class="st4 gynWvJFV_148" d="M540.5,356.8c-1.8-0.4-3.4-0.9-5.3-1C536.7,356.6,539.4,357.1,540.5,356.8z"></path>
<path class="st4 gynWvJFV_149" d="M585.3,374.6L585.4,374.6L585.3,374.5Z"></path>
<path class="st4 gynWvJFV_150" d="M535.9,356.8L535.8,356.8L535.8,356.8Z"></path>
<path class="st4 gynWvJFV_151" d="M532.5,346.7c-0.3-0.3-0.8-0.6-0.9-0.2c-0.4,1.2-1.4,2.3-1,4C531.6,349.1,531.8,347.8,532.5,346.7z"></path>
<path class="st4 gynWvJFV_152" d="M538.9,358c-2.6-0.6-5.1-1.6-7.7-2C533.5,357.6,536.2,357.8,538.9,358z"></path>
<path class="st4 gynWvJFV_153" d="M532.3,350.2c0.7-0.8,1.1-1.5,0.9-2.4C532.8,348.5,531.8,349,532.3,350.2z"></path>
<path class="st4 gynWvJFV_154" d="M534,347c0-0.2-0.2-0.2-0.3-0.2c-0.3,0.1-0.3,0.3-0.3,0.7C533.8,347.4,534,347.3,534,347z"></path>
<path class="st4 gynWvJFV_155" d="M533.8,351.8L533.9,351.8L533.8,351.7Z"></path>
<path class="st4 gynWvJFV_156" d="M609.4,363.3c0.1-0.1,0-0.2-0.1-0.1c-0.1-0.3-0.5-0.6-0.4-1l-0.1,0c-0.3-0.6-0.7-1.1-1-1.7
	c-2.7-5.4-6.6-10-12.3-13.2c0.1-0.1,0.1-0.2-0.1-0.3c0,0,0,0,0,0c0,0,0,0,0,0c-0.1-0.1-0.2-0.1-0.3-0.1c-0.9-0.6-1.8-1.3-2.8-1.9
	c0.1-0.1,0.1-0.2,0.2-0.2c-0.1,0-0.2,0.1-0.3,0.1c-2.1-1.4-4.1-2.8-6.2-4.2l0,0l-0.1,0c-2.2-1.1-4.3-2.2-6.5-3.3
	c0.1-0.1,0-0.2-0.1-0.1c-1.3-0.4-2.7-0.8-4-1.2c-2.1-0.7-2.3-0.7-3.1,1.2c-0.8,1.7-1.8,3.4-2.8,5c-0.4,0.7-0.7,1.3-0.5,2
	c-0.3,0.2-0.7,0.3-0.9,0.5c-0.9,1.6-2.3,2.9-3.4,4.4c-1.8,2.6-4.1,4.8-7.6,5.6c-0.5,0.1-1,0.3-1.4,0.3c-2.7-0.1-5.4-0.6-8-1.3
	c-3.6-1-7.2-1.9-10.9-2.2c-0.8-0.1-1.6-0.2-2.5,0.4c2,1,4.5,0.5,6.1,2.1c-3.1-0.8-6.3-0.6-9.6-0.6c-0.1,0.4-0.5,0.9-0.3,1.4
	c0.4,0,0.8,0,1.1,0.1c0.2,0.1,0.4,0.3,0.6,0.1c-0.1-0.2-0.3-0.2-0.5-0.3c-0.1-0.1-0.3-0.2-0.3-0.3c0.1-0.3,0.4-0.2,0.7-0.2
	c2.3,0.3,4.5,1.1,6.8,1.5c1.8,0.3,3.5,0.9,5.3,1.4c1.7,0.4,3.4,0.4,5.1,0.9l0,0c3.2,0.1,6.2,1,9.2,1.9c2.9,0.9,5.7,1.9,8.5,2.9
	c0.3,0.1,1.1-0.1,1,0.7c-2.2-1-4.5-1.2-6.6-2c-1.8-0.7-3.6-1.2-5.4-1.7c-0.4-0.1-1-0.5-1,0.3l0,0c0,0,0,0,0,0
	c-0.5-0.1-1-0.7-1.3-0.7c-1.2,0.5-2.3,0-3.5-0.2c-2.8-0.4-5.7-0.9-8.5-1.2c-0.7-0.1-1.6-0.7-2.3,0.2l0.1,0c1.9,0.3,3.8,0.6,5.8,0.8
	c3.6,0.5,7.2,1.1,10.7,2c2.5,0.7,5,1.3,7.5,1.9c4,0.9,8.1,1.6,11.9,3.2c5.1,2.1,9.8,4.5,12.4,9.2c0.8,1.5,1.8,2.9,2.8,4.3
	c0.4,0.6,0.7,1.2,1.5,1.6c0.1-1.2,0.3-2.2,0.4-3.2c0.1-1.6-0.2-3.2-0.4-4.9c0.1-0.1,0-0.2-0.1-0.1c-0.2-2.2-1-4.2-1.3-6.4
	c-0.3-1.9-1.2-3.6-2-5.4l0,0c-0.5-0.2-0.7-0.6-0.9-1.1l0-0.1l-0.1,0c-0.6-0.6-1.2-1.1-1.8-1.7c-0.3-0.3-0.3-0.7-0.2-1
	c0.1-0.3,0.6-0.5,0.9-0.4c1.3,0.3,2.6,0,3.9,0.4l0,0c0.6,0,1.2,0.1,1.8,0.1c3.8,0.1,7.2,1.3,10.4,3.1c2.6,1.5,5,3.2,7.5,4.8
	c0.3,0.2,0.5,0.6,0.9,0.1c0.1-0.1,0-0.2-0.1-0.1C610.3,364.8,609.8,364,609.4,363.3z"></path>
<path class="st4 gynWvJFV_157" d="M567.4,342.9c0.4-0.7,0.8-1.3,1.1-1.9c-0.3-0.4-0.7-0.6-1.2-0.8c-0.5,0.7-1,1.3-1.6,2
	C566.4,342.4,566.9,342.6,567.4,342.9z"></path>
<path class="st4 gynWvJFV_158" d="M588.2,378.6L588.2,378.5L588.2,378.6Z"></path>
<path class="st4 gynWvJFV_159" d="M551.6,359.1c-0.2-0.3-0.4-0.3-0.6,0C551.2,359.4,551.4,359.4,551.6,359.1z"></path>
<path class="st4 gynWvJFV_160" d="M611.1,366.2c0,0,0,0.1,0.1,0.1c0,0,0,0,0.1-0.1C611.2,366.2,611.2,366.2,611.1,366.2
	C611.1,366.1,611.1,366.2,611.1,366.2z"></path>
<path class="st4 gynWvJFV_161" d="M541.5,357.1c-0.3-0.1-0.5-0.3-0.9,0.1C541,357.3,541.3,357.5,541.5,357.1z"></path>
<path class="st4 gynWvJFV_162" d="M592.7,371.9C592.7,371.8,592.7,371.8,592.7,371.9c-0.1,0-0.2,0-0.2,0.1c0,0,0.1,0.1,0.1,0
	C592.6,371.9,592.7,371.9,592.7,371.9z"></path>
<path class="st4 gynWvJFV_163" d="M588.4,379.3C588.4,379.3,588.4,379.3,588.4,379.3C588.4,379.3,588.4,379.3,588.4,379.3
	C588.4,379.3,588.4,379.3,588.4,379.3z"></path>
<path class="st4 gynWvJFV_164" d="M592,368.9c-0.1,0-0.1-0.1-0.2-0.1c0,0-0.1,0.1-0.1,0.1c0,0.1,0.1,0.1,0.1,0.2C591.9,369,592,368.9,592,368.9z"></path>
<path class="st4 gynWvJFV_165" d="M535.6,348.2c-1.1-0.1-1.3,0-1.6,1.5C535,350,535.1,349.9,535.6,348.2z"></path>
<path class="st4 gynWvJFV_166" d="M548.8,352.2c-0.2-0.6,0-1.2,0.3-1.7c0.2-0.3,0.1-0.6-0.3-0.8c-0.4-0.2-0.7-0.1-0.9,0.2
	c-0.4,0.6-0.7,1.3-1.1,1.9C547.5,352.1,548,352.4,548.8,352.2z"></path>
<path class="st4 gynWvJFV_167" d="M566.9,339.9c-0.9-0.3-1.6-1-2.6-1c-0.1,0.9-1.7,2,0.5,2.5C566.4,341.9,566.1,340.3,566.9,339.9z"></path>
<path class="st4 gynWvJFV_168" d="M557.5,352.7c-0.6-0.4-0.8-0.8-1.4-0.3c-0.7,0.6-2.2,0.1-2.1-0.6c0.1-0.8-0.5-0.7-1-0.9
	c-0.6,0.6-0.4,1.3-0.6,1.9C554,353.3,555.6,353.3,557.5,352.7z"></path>
<path class="st4 gynWvJFV_169" d="M566.5,344.4c0.2-0.3,0.3-0.6,0.5-0.9c-0.4-0.3-0.8-0.7-1.4-0.7c-1.5,1.3-1.4,1.8,0.3,2.4
	C566.1,344.9,566.3,344.7,566.5,344.4z"></path>
<path class="st4 gynWvJFV_170" d="M551.5,352.7c-0.2-0.4-0.3-0.8-0.1-1.3c0.3-0.7-0.1-1.1-1-1.1c-0.6,0.7-0.8,1.4-0.5,2.1
	C550.1,352.9,550.8,352.8,551.5,352.7z"></path>
<path class="st4 gynWvJFV_171" d="M544.2,349.1c-0.1,0-0.2,0-0.3-0.1c-0.3,0.6-0.5,1.3-0.8,1.9c0.1,0,0.2,0.1,0.3,0.1
	C544,350.5,544.5,350,544.2,349.1z"></path>
<path class="st4 gynWvJFV_172" d="M546.1,351.5c0.8-2.1,0.8-2.1-0.7-2.4C544.3,351.5,544.3,351.5,546.1,351.5z"></path>
<path class="st4 gynWvJFV_173" d="M611.6,365.4L611.7,365.3L611.6,365.3Z"></path>
<path class="st4 gynWvJFV_174" d="M567.8,338.4c0.5-1.1-0.8-1.3-1.4-1.4c-1.3-0.3-0.8,1-1.3,1.5C566.1,338.4,567.1,339.9,567.8,338.4z"></path>
<path class="st4 gynWvJFV_175" d="M569.9,338.4c-0.6-0.4-1-0.6-1.4,0.1c-0.4,0.6-0.7,1.1,0.4,1.6C569.5,339.6,569.6,338.9,569.9,338.4z"></path>
<path class="st4 gynWvJFV_176" d="M571.1,333.4c-0.3-0.4-1-0.8-1.6-0.8c-0.6,0-0.8,0.6-1.1,1c0.7,0.5,1.2,1,2.1,1
	C570.7,334.2,571.6,333.9,571.1,333.4z"></path>
<path class="st4 gynWvJFV_177" d="M542.5,350.7c-0.2-0.7,0.7-1.4-0.1-2.2C541.3,350.1,541.4,350.6,542.5,350.7z"></path>
<path class="st4 gynWvJFV_178" d="M564.8,337.7c0.2-0.5,0.9-1.1,0.2-1.5c-1.8-1-2.5-1.5-3.2,0.9c0.8,0,1.4,0.5,2,0.7
	C564.2,337.9,564.6,338.2,564.8,337.7z"></path>
<path class="st4 gynWvJFV_179" d="M564.9,335.3c0.2,0.2,0.6,0.3,1,0.4c0.4-0.6,0.7-1.1,1.1-1.7c-0.2-0.3-0.5-0.5-0.8-0.6c-1.3-0.5-2-0.4-2.5,0.7
	C563.2,335.1,564.5,334.9,564.9,335.3z"></path>
<path class="st4 gynWvJFV_180" d="M566.5,336.2c0.7,0.2,1.4,0.5,2,1c0.6-0.5,0.9-1.2,1.4-1.7c0,0,0.1-0.1,0.1-0.1c0,0-0.1,0.1-0.1,0.1
	c-2.2-1-2.2-1-3.4,0.5C566.5,336,566.5,336,566.5,336.2z"></path>
<path class="st4 gynWvJFV_181" d="M541,348.4c-1.6-0.1-0.9,1.2-1.5,1.9C541.5,350.4,540.6,349,541,348.4z"></path>
<path class="st4 gynWvJFV_182" d="M538.9,348.1c-1.5,0-1,1.1-1.4,1.8C539,350.1,539.1,349.9,538.9,348.1z"></path>
<path class="st4 gynWvJFV_183" d="M536.7,348.2c-0.2,0.5-0.9,1-0.4,1.9C536.8,349.4,537,348.9,536.7,348.2z"></path>
<path d="M427.5,301.7L427.4,301.6L427.5,301.7Z" class="gynWvJFV_184"></path>
<path d="M429.2,301.4L429.2,301.5L429.2,301.5Z" class="gynWvJFV_185"></path>
<path class="st2 gynWvJFV_186" d="M424.7,335.2L424.7,335.2L424.7,335.3Z"></path>
<path d="M425.9,335.3c1-0.2,2.1,0.1,3.1-0.8c-3.8-0.1-7.3,0.5-10.8,1.2l0,0c-0.3,0-0.5,0.1-0.8,0.1l-0.2,0.9c0.1,0,0.2,0,0.2,0
	C420.2,336.2,423.1,335.8,425.9,335.3z M424.7,335.2L424.7,335.2L424.7,335.2L424.7,335.2z" class="gynWvJFV_187"></path>
<path d="M614.1,368.9c-0.5-1.8-1.6-3.4-2.4-5c-1.4-2.9-2.7-5.8-4.7-8.4c-0.9-1.2-1.7-2.6-3-3.5l0,0c-8.6-7.6-18-14.3-29.6-18
	c0.8-1,1.6-2,2.3-3.1c1.4-2,3.2-3.6,5.5-4.8c1.1-0.6,1.4-1.2,0.6-2c-1.3-1.2-2.5-2.5-4-3.5c-2.8-1.8-5.8-3.3-8.9-4.6
	c-6.6-2.8-13.3-5.2-20.3-7.2c-3-0.9-6.2-1.5-9.2-2.4c-3.9-1.2-7.9-2.1-12-2.7c-3.3-0.5-6.6-1-9.9-1.5c-3.5-0.5-7-1.2-10.6-1.5
	c-3.3-0.3-6.5-0.7-9.8-1.1c-4.5-0.6-9.1-1.1-13.7-1.3c-2.3-0.1-4.6-0.2-6.9-0.4c-4.8-0.5-9.6-0.3-14.3-0.4c-2,0-4.1,0-6.1,0.2
	c-3,0.3-6,0.2-9,0.8c-0.1,0-0.2,0-0.3,0c-0.7,0.1-1.5-0.1-2.2,0.1c0,0,0,0,0,0c-2.1,0.2-4.2,0.3-6.3,0.6c-3.3,0.4-6.6,0.9-9.9,1.5
	c-1,0.2-2,0.3-3,0.5l-0.4,1.5c0,0,0,0,0.1,0.1c0,0-0.1,0-0.1,0.1l-0.1,0.5c5.1-0.5,10.1-1.3,15.2-1.6c3.4-0.2,6.9-0.4,10.4-0.4
	c2.8,0,5.6-0.1,8.4-0.2c4-0.1,7.9,0.4,11.9,0.4c2,0,3.9,0.3,5.9,0.5c0.4,0,0.9,0.1,1.3-0.2c-3.1-0.4-6.1-1.3-9.3-1.2
	c-1.7,0.1-3.4,0-5.1-0.1c-2.2-0.2-4.4-0.3-6.5-0.2c-2.9,0.2-5.7,0-8.6,0.1c-2.4,0.1-4.8,0.2-7.2,0.4c-0.6,0.1-1.2,0.1-1.9-0.2
	c0.8-0.6,1.8-0.1,2.5-0.5l0,0c1.9-0.1,3.8-0.3,5.8-0.4c0.5,0,0.7-0.4,1.1-0.4c0.1,0,0.1,0,0.1,0.1c1.7,0.1,3.4-0.2,5.1-0.3
	c3.5-0.3,7-0.4,10.5-0.3c5.2,0,10.4,0.1,15.5,0.6c4.4,0.3,8.8,0.6,13.1,1c2.7,0.3,5.4,0.8,8.1,1.2c2,0.3,4.1,0.4,6.2,0.6
	c2.1,0.2,4.3,0.5,6.4,0.8c3.7,0.6,7.3,1.4,11,1.8c2.8,0.3,5.7,0.5,8.5,1.4c0.3,0.1,0.7,0.1,1.1,0.1c0.1,0,0.2-0.1,0.3-0.1
	c0,0.1-0.1,0.2-0.1,0.2c3.1,0.9,6.3,1.5,9.3,2.6c0.9,0.3,2,0.4,3,0.7c3.7,0.9,7.1,2.4,10.7,3.5c4.7,1.5,9.2,3.6,13.6,5.5
	c2.8,1.2,5.5,2.7,7.7,4.7c0.4,0.3,0.7,0.7,1.1,1c0.2,0.2,0.2,0.4,0,0.6c-0.2,0.2-0.4,0.1-0.6-0.1c-1.6-1.6-3.7-2.5-5.6-3.6
	c-2.7-1.7-5.6-2.9-8.4-4.5c-0.9-0.5-1.9-0.7-2.8-1.1c0,0,0,0,0,0l0,0c5.8,2.7,11.1,6.1,16.3,9.8c-0.1,0.1-0.1,0.3-0.2,0.3
	c-1.5,1.5-1.5,1.5-3.5,0.3c-1.4-0.8-2.9-1.4-4.4-2.1c0.3,0.6,0.9,0.9,1.5,1.2l0.1,0l0,0.1c0.7,0.6,1.7,0.9,2.4,1.4
	c0.6,0.4,0.6,0.4,0.2,1.3c-1.7-1-3.5-1.9-5.4-2.6c1,1,2.5,1.5,3.6,2.3c0.8,0.6,1,0.8,0.7,1.5c-2.7-1.6-5.5-2.8-8.4-4.1
	c1.4,1.1,3.1,1.6,4.6,2.6c0.9,0.6,1.9,1,2.8,1.5c0.3,0.2,0.7,0.4,0.4,0.9c-0.3,0.4-0.7,0.3-1.1,0.2c-0.6-0.2-1.2-0.5-1.7-0.7
	c0,0.1,0,0.3,0,0.4c0.8,0.2,1.4,0.6,2.1,1.1c-0.4,0.6-0.8,1.1-1.2,1.7c-0.7-0.3-1.4-0.6-2-0.8c0-0.7,1.1-1,0.9-1.8
	c-2.1,1.8-3.7,0.2-5.5-0.6c-2.8-1.3-5.5-2.5-8.3-3.7c-0.3-0.1-0.7-0.2-1-0.2c4.3,1.9,8.3,4.1,12.3,6.2c0.1,0.4-0.3,0.5-0.5,0.8l0,0
	c-0.7,0.9-1.5,0-2.1-0.1c-0.7-0.1,0.1-0.6,0.1-1.2c-1.8,1.3-2.8-0.2-4.1-0.7c-2-0.8-4.1-1.7-6.2-2.4c2.8,1.4,5.6,2.7,8.3,4.1
	c0,0.2,0,0.3,0,0.3c-1.1,1.5-1.1,1.5-3,0.7c-1-0.4-2-0.6-3-0.8c-0.2,0.5,0.1,0.6,0.5,0.7c1.1,0.2,2.1,0.6,3.1,1.1
	c0.7,0.4,1,0.7,0.2,1.3c-0.3,0.2-0.6,0.5-0.3,1c-0.5,0-0.7-0.5-1.5-0.2c1.5,0.7,2.8,1.4,4.2,2.1c-0.1,0.8-0.7,1.3-1,2
	c-1.1-0.2-2-1.2-3.5-1c1.9,1,3.5,1.9,5.2,2.9c-0.2,0.5-0.5,1-0.7,1.6c-1.2-0.6-2.2-1.3-3.6-1.4c0.3,0.9,1.2,1,1.8,1.4
	c0.5,0.3,1.3,0.4,1.3,1.1c0,0.5-0.6,0.9-1,1c-0.6,0.2-1.2,0-1.7-0.6c-0.5-0.6-1.4-0.5-2.2-0.6c0.7,0.4,1.5,0.8,2.2,1.2
	c1.5,0.8,1.6,1.3,0.4,2.5c-2.8-1.9-5.9-3.2-8.8-5.1c-0.2,0.8,0.2,1,0.6,1.1c2.9,1.3,5.7,2.9,8.5,4.5c1-1.3,1.2-2.9,2.6-4.1
	c0.5,0.1,0.9,0.2,1.4,0.6c-1.4,1.6-2.1,3.6-4.1,4.8l0,0v0c0,0,0,0,0,0c-0.2,0.8-0.9,1.1-1.7,1.5c-3.4-3.5-8.2-4.6-12.9-5.7
	c-3.7-0.9-7.3-1.9-11-2.9c-2.7-0.7-5.6-1.1-8.4-1.5c-4.5-0.7-9-1.2-13.5-1.9c-5.5-0.9-11.1-1.6-16.7-2.2c-3.7-0.4-7.3-0.5-11-0.7
	c-4.4-0.2-8.9-0.7-13.3-1.4c-1.1-0.2-2.3-0.2-3.4-0.3c-3-0.2-6-0.5-8.9-0.4c-3.7,0.2-7.5-0.2-11.2,0.3c-3,0.3-6.2,0.2-9.2,0.3
	c-3.2,0.1-6.3,0.3-9.5,0.4c-4.1,0.2-8.1,0.6-12.1,1c-0.6,0.1-1.1,0.1-1.7,0.2l-0.5,2l0.1,0l0,0l0.3,0.4c0.6-0.2,1.3-0.3,2.1-0.3
	c1.9,0.1,3.7-0.1,5.6-0.3c2.4-0.2,4.9-0.6,7.3-0.4c2.4,0.2,4.8,0,7.1-0.1c4-0.2,8,0.2,12-0.2c2.3-0.2,4.6,0.1,6.9,0.1
	c1.3,0,2.5-0.1,3.8,0c2.1,0.1,4.2,0.1,6.2,0.1c4.7,0,9.4,0.1,14.1,0.6c4.8,0.5,9.6,0.8,14.5,1.4c3.3,0.4,6.5,0.8,9.8,1.3
	c2.9,0.4,5.8,0.9,8.7,1.3c4.6,0.7,9.2,1.6,13.8,2.5c0.7,0.1,0.9,0.7,0.5,1.1c-1.5,1.4-2.1,3.1-3,4.8c-0.2,0.4-0.4,0.9,0.2,1
	c0.6,0.1,0.7,0.5,0.7,0.8c0.5,1.8,1.6,3.1,3.4,4.1c1.4,0.8,3,1.1,4.6,1.5c3.3,0.9,6.7,1.6,10.1,2.2c3.6,0.7,7.2,1,10.8,1.6
	c4.1,0.7,8.1,1.8,12.1,2.9l0.1,0l0,0.1c0.3,0.1,0.6,0.2,0.9,0.3c4.9,1.7,9.4,3.9,13.6,6.6c2.2,1.4,3.6,3.4,5,5.4l0,0
	c0,0.5,0.5,0.9,0.7,1.3c0,0,0,0,0,0c0.2,0.4,0.5,0.7,0.7,1.1l0,0c0.9,1.2,2.1,2.4,2.3,3.9c2-0.2,2-0.2,2.2-1.9
	c0.1-0.9,0.1-1.9,0.3-2.8c0.1-0.9,0.5-1.9,0.2-2.8l0,0c-0.8-6.2-1.2-12.5-5.6-18c1.7,0.2,3.1,0.3,4.4,0.4c0-0.1,0-0.2,0.2-0.1
	c2.5,0.4,4.9,1.1,7.2,1.9c0.1,0,0.1,0,0.2,0c0,0.1,0,0.1,0,0.2c0.6,0.3,1.1,0.6,1.7,0.9c0,0,0,0,0,0c0.8,0.5,1.6,1,2.3,1.5
	c0.1,0,0.2,0,0.1,0.1c3,1.7,5.7,3.7,8,6.1c0.5,0.5,1,0.7,1.6,0.4C614.6,369.9,614.2,369.4,614.1,368.9z M462.2,300.7L462.2,300.7
	L462.2,300.7L462.2,300.7z M450.8,300.8C450.8,300.8,450.9,300.8,450.8,300.8C450.9,300.8,450.9,300.8,450.8,300.8
	C450.9,300.9,450.8,300.8,450.8,300.8C450.8,300.8,450.8,300.8,450.8,300.8z M429.2,301.4L429.2,301.4L429.2,301.4L429.2,301.4z
	 M427.5,301.7L427.5,301.7L427.5,301.7L427.5,301.7z M439.2,301c-2.3,0.4-4.5,0.9-6.8,1.2c-1.7,0.3-3.4,0.3-5.1,0.5
	c-0.3,0-0.7,0.1-1-0.3c1.6-0.3,3.3-0.5,4.9-0.8c0,0,0,0,0,0c1.1-0.4,2.3-0.3,3.5-0.5c1.6-0.2,3.1-0.7,4.8-0.6
	C439.5,300.8,439.4,301,439.2,301z M461.2,298.3L461.2,298.3L461.2,298.3L461.2,298.3z M468.6,298.5c0,0,0-0.1,0-0.1
	C468.6,298.3,468.6,298.4,468.6,298.5C468.6,298.4,468.6,298.4,468.6,298.5z M481.3,299.3c0,0,0-0.1-0.1-0.1c0,0,0.1,0,0.1,0
	C481.4,299.1,481.4,299.2,481.3,299.3C481.4,299.2,481.4,299.2,481.3,299.3z M559.1,313.1L559.1,313.1L559.1,313.1
	c0.2,0,0.4,0,0.7,0.1C559.4,313.4,559.2,313.4,559.1,313.1z M562.8,314.5C562.8,314.5,562.8,314.5,562.8,314.5
	C562.8,314.5,562.8,314.5,562.8,314.5z M564.5,315.2c0.1,0,0.1,0,0.2,0.1C564.5,315.4,564.5,315.3,564.5,315.2z M570.2,331.2
	C570.1,331.2,570.1,331.2,570.2,331.2c-0.1,0-0.1,0-0.1,0C570.1,331.2,570.1,331.2,570.2,331.2z M431,337.2
	C430.9,337.2,430.9,337.2,431,337.2C430.9,337.2,430.9,337.1,431,337.2C430.9,337.1,430.9,337.1,431,337.2
	C431,337.1,431,337.2,431,337.2z M432,337.2C432,337.2,432,337.2,432,337.2c-0.1-0.1,0-0.1,0-0.1C432.1,337.1,432.1,337.2,432,337.2
	C432.1,337.2,432.1,337.2,432,337.2z M446.6,337.1c-0.1,0-0.1-0.1-0.2-0.1c0.1,0,0.1-0.1,0.2-0.1C446.6,337,446.7,337,446.6,337.1
	C446.7,337.1,446.6,337.2,446.6,337.1z M451.1,337C451.1,337,451.1,337,451.1,337c0-0.1,0-0.2,0-0.2c0.1,0,0.1,0.1,0.2,0.1
	C451.3,337,451.2,337,451.1,337z M467.1,336.7L467.1,336.7L467.1,336.7L467.1,336.7z M471.3,337.3c0,0-0.1-0.1-0.1-0.1
	c0,0,0.1-0.1,0.1-0.1c0.1,0,0.1,0,0.2,0.1C471.4,337.2,471.3,337.3,471.3,337.3z M475.2,338.6L475.2,338.6L475.2,338.6L475.2,338.6z
	 M485.1,339.5L485.1,339.5L485.1,339.5L485.1,339.5z M485.4,338L485.4,338L485.4,338L485.4,338z M528.3,354.7L528.3,354.7
	L528.3,354.7L528.3,354.7z M610.4,364L610.4,364L610.4,364L610.4,364z M572.4,333.9c-0.6,1-1.1,1.9-1.6,2.9l0,0
	c-0.2,0.3-0.4,0.7-0.6,1.1c-0.4,0.1-0.6-0.1-0.9-0.3C570.1,336.1,571.5,334.3,572.4,333.9z M567.3,340.2c0.5,0.2,0.9,0.4,1.2,0.8
	c-0.3,0.6-0.7,1.2-1.1,1.9c-0.6-0.3-1-0.5-1.6-0.8C566.3,341.5,566.8,340.8,567.3,340.2z M565.1,338.5c0.5-0.5,0-1.8,1.3-1.5
	c0.6,0.1,1.9,0.3,1.4,1.4C567.1,339.9,566.1,338.4,565.1,338.5z M568.5,338.5c0.4-0.7,0.8-0.5,1.4-0.1c-0.3,0.6-0.4,1.2-1,1.7
	C567.8,339.6,568.1,339.1,568.5,338.5z M569.5,332.6c0.6,0,1.3,0.4,1.6,0.8c0.4,0.6-0.5,0.8-0.6,1.2c-0.9-0.1-1.5-0.6-2.1-1
	C568.7,333.1,568.9,332.6,569.5,332.6z M569.9,335.4c0,0,0.1-0.1,0.1-0.1C570,335.4,569.9,335.4,569.9,335.4
	c-0.4,0.6-0.7,1.2-1.4,1.7c-0.6-0.5-1.3-0.8-2-1c0-0.1,0-0.2,0-0.2C567.7,334.4,567.7,334.4,569.9,335.4z M563.6,334.2
	c0.5-1.1,1.2-1.2,2.5-0.7c0.4,0.1,0.6,0.3,0.8,0.6c-0.3,0.5-0.7,1-1.1,1.7c-0.4-0.2-0.8-0.2-1-0.4
	C564.5,334.9,563.2,335.1,563.6,334.2z M563.8,337.7c-0.7-0.2-1.2-0.7-2-0.7c0.7-2.4,1.4-1.9,3.2-0.9c0.7,0.4,0,1-0.2,1.5
	C564.6,338.2,564.2,337.9,563.8,337.7z M564.8,341.5c-2.2-0.5-0.5-1.6-0.5-2.5c1.1,0,1.7,0.6,2.6,1
	C566.1,340.3,566.4,341.9,564.8,341.5z M565.6,342.8c0.6,0,1,0.4,1.4,0.7c-0.2,0.3-0.3,0.6-0.5,0.9c-0.2,0.3-0.4,0.5-0.6,0.8
	C564.2,344.6,564.1,344.1,565.6,342.8z M552.9,351c0.5,0.2,1.1,0.1,1,0.9c-0.1,0.7,1.4,1.2,2.1,0.6c0.6-0.5,0.8-0.1,1.4,0.3
	c-1.9,0.5-3.4,0.6-5.2,0.2C552.5,352.3,552.4,351.6,552.9,351z M550.4,350.3c0.9,0,1.3,0.4,1,1.1c-0.2,0.5-0.1,0.8,0.1,1.3
	c-0.7,0.1-1.4,0.2-1.6-0.2C549.5,351.7,549.8,351,550.4,350.3z M547.9,349.9c0.2-0.3,0.5-0.5,0.9-0.2c0.4,0.2,0.5,0.5,0.3,0.8
	c-0.3,0.5-0.5,1.1-0.3,1.7c-0.8,0.2-1.3,0-2-0.4C547.2,351.2,547.5,350.5,547.9,349.9z M545.4,349.1c1.5,0.3,1.5,0.3,0.7,2.4
	C544.3,351.5,544.3,351.5,545.4,349.1z M543.9,349.1c0.1,0,0.2,0,0.3,0.1c0.2,0.8-0.3,1.4-0.8,2c-0.1,0-0.2-0.1-0.3-0.1
	C543.4,350.4,543.6,349.7,543.9,349.1z M542.4,348.5c0.8,0.8-0.1,1.5,0.1,2.2C541.4,350.6,541.3,350.1,542.4,348.5z M541,348.4
	c-0.4,0.6,0.5,2-1.5,1.9C540.1,349.6,539.5,348.3,541,348.4z M538.9,348.1c0.2,1.8,0,2-1.4,1.8C537.9,349.2,537.5,348.1,538.9,348.1
	z M536.7,348.2c0.3,0.6,0.1,1.2-0.4,1.9C535.8,349.3,536.4,348.8,536.7,348.2z M535.6,348.2c-0.5,1.6-0.6,1.7-1.6,1.5
	C534.3,348.3,534.4,348.1,535.6,348.2z M533.7,346.8c0.2,0,0.3,0,0.3,0.2c0,0.3-0.2,0.4-0.6,0.5
	C533.4,347.2,533.4,346.9,533.7,346.8z M533.9,351.8l-0.1,0L533.9,351.8L533.9,351.8z M532.3,350.2c-0.5-1.2,0.5-1.7,0.9-2.4
	C533.4,348.7,533,349.4,532.3,350.2z M531.6,346.5c0.1-0.4,0.6-0.1,0.9,0.2c-0.7,1.1-0.9,2.5-1.9,3.8
	C530.2,348.8,531.1,347.7,531.6,346.5z M531.2,356.1c2.7,0.3,5.1,1.4,7.7,2C536.2,357.8,533.5,357.6,531.2,356.1z M535.3,355.8
	c1.9,0.2,3.5,0.6,5.3,1C539.4,357.1,536.7,356.6,535.3,355.8z M535.9,356.8L535.9,356.8L535.9,356.8L535.9,356.8z M585.3,374.6
	L585.3,374.6L585.3,374.6L585.3,374.6z M588.2,378.6L588.2,378.6L588.2,378.6L588.2,378.6z M588.4,379.3
	C588.4,379.3,588.4,379.3,588.4,379.3C588.4,379.3,588.4,379.3,588.4,379.3C588.4,379.3,588.4,379.3,588.4,379.3z M592.6,371.8
	C592.7,371.8,592.7,371.8,592.6,371.8c0,0.1,0,0.1,0,0.2c0,0-0.1,0-0.1,0C592.5,371.9,592.6,371.8,592.6,371.8z M591.8,368.8
	c0.1,0,0.1,0.1,0.2,0.1c0,0-0.1,0.1-0.1,0.1C591.8,369,591.8,368.9,591.8,368.8C591.8,368.9,591.8,368.8,591.8,368.8z M610.8,365.7
	c-0.4,0.4-0.6,0-0.9-0.1c-2.5-1.6-4.9-3.3-7.5-4.8c-3.1-1.8-6.6-3-10.4-3.1c-0.6,0-1.2-0.1-1.8-0.1l0,0c-1.3-0.4-2.6,0-3.9-0.4
	c-0.3-0.1-0.7,0.1-0.9,0.4c-0.2,0.3-0.1,0.7,0.2,1c0.6,0.5,1.2,1.1,1.8,1.7l0.1,0l0,0.1c0.2,0.4,0.4,0.8,0.9,1.1l0,0
	c0.7,1.8,1.7,3.5,2,5.4c0.3,2.1,1.1,4.2,1.3,6.4c0.1,0,0.2,0,0.1,0.1c0.2,1.6,0.5,3.2,0.4,4.9c-0.1,1-0.2,2.1-0.4,3.2
	c-0.8-0.4-1.1-1.1-1.5-1.6c-0.9-1.4-1.9-2.9-2.8-4.3c-2.7-4.7-7.4-7.1-12.4-9.2c-3.8-1.6-7.8-2.3-11.9-3.2c-2.5-0.6-5-1.2-7.5-1.9
	c-3.5-0.9-7.1-1.5-10.7-2c-1.9-0.3-3.8-0.6-5.8-0.8l-0.1,0c0.7-0.9,1.6-0.2,2.3-0.2c2.8,0.3,5.7,0.8,8.5,1.2
	c1.2,0.2,2.2,0.6,3.5,0.2c0.2-0.1,0.7,0.6,1.3,0.7c0,0,0,0,0,0l0,0c0-0.8,0.7-0.4,1-0.3c1.8,0.5,3.6,1,5.4,1.7c2.1,0.8,4.5,1,6.6,2
	c0.1-0.8-0.7-0.6-1-0.7c-2.8-1-5.6-2-8.5-2.9c-3-0.9-6-1.8-9.2-1.9l0,0c-1.6-0.5-3.4-0.5-5.1-0.9c-1.8-0.5-3.5-1.1-5.3-1.4
	c-2.3-0.4-4.5-1.2-6.8-1.5c-0.3,0-0.6-0.1-0.7,0.2c0,0.1,0.2,0.2,0.3,0.3c0.2,0.1,0.4,0,0.5,0.3c-0.3,0.2-0.4,0-0.6-0.1
	c-0.4,0-0.7,0-1.1-0.1c-0.2-0.6,0.2-1,0.3-1.4c3.2,0,6.4-0.3,9.6,0.6c-1.7-1.5-4.1-1.1-6.1-2.1c0.9-0.7,1.8-0.5,2.5-0.4
	c3.7,0.3,7.3,1.2,10.9,2.2c2.6,0.7,5.3,1.2,8,1.3c0.5,0,1-0.2,1.4-0.3c3.5-0.8,5.8-2.9,7.6-5.6c1.1-1.5,2.5-2.8,3.4-4.4
	c0.1-0.2,0.5-0.3,0.9-0.5c-0.2-0.7,0.1-1.3,0.5-2c1-1.6,2-3.3,2.8-5c0.9-1.9,1-1.9,3.1-1.2c1.3,0.4,2.7,0.8,4,1.2
	c0.2-0.1,0.2,0,0.1,0.1c2.2,1.1,4.3,2.2,6.5,3.3l0.1,0l0,0c2.1,1.4,4.1,2.8,6.2,4.2c0.1,0,0.2-0.1,0.3-0.1c-0.1,0.1-0.1,0.2-0.2,0.2
	c0.9,0.6,1.8,1.3,2.8,1.9c0.1-0.1,0.2-0.1,0.3,0.1c0,0,0,0,0,0c0,0,0,0,0,0c0.2,0.1,0.1,0.2,0.1,0.3c5.7,3.2,9.6,7.7,12.3,13.2
	c0.3,0.6,0.7,1.1,1,1.7l0.1,0c-0.1,0.4,0.2,0.7,0.4,1c0.2-0.1,0.2,0,0.1,0.1c0.4,0.8,0.9,1.5,1.3,2.3
	C610.8,365.6,610.9,365.6,610.8,365.7z M588.3,360.8L588.3,360.8L588.3,360.8z M540.7,357.2c0.3-0.4,0.6-0.2,0.9-0.1
	C541.3,357.5,541,357.3,540.7,357.2z M551,359.2c0.2-0.3,0.4-0.3,0.6,0C551.4,359.4,551.2,359.4,551,359.2z M611.1,366.3
	c0,0,0-0.1-0.1-0.1c0,0,0.1,0,0.1,0C611.2,366.2,611.2,366.2,611.1,366.3C611.2,366.2,611.2,366.3,611.1,366.3z M611.6,365.4
	L611.6,365.4L611.6,365.4L611.6,365.4z" class="gynWvJFV_188"></path>
<path d="M447.8,298.5L447.8,298.5L447.8,298.5Z" class="gynWvJFV_189"></path>
<path d="M431.3,301.6C431.3,301.6,431.3,301.6,431.3,301.6c-1.6,0.2-3.3,0.5-4.9,0.8c0.2,0.3,0.6,0.3,1,0.3c1.7-0.1,3.4-0.2,5.1-0.5
	c2.3-0.3,4.5-0.8,6.8-1.2c0.2,0,0.3-0.2,0.4-0.4c-1.7-0.1-3.2,0.4-4.8,0.6C433.6,301.3,432.4,301.2,431.3,301.6z" class="gynWvJFV_190"></path>
<path d="M425.5,302.7c0.1,0,0.1,0.1,0.2,0.1c0,0,0,0,0.1-0.1l0-0.1c0,0-0.1-0.1-0.1-0.1C425.6,302.6,425.6,302.7,425.5,302.7z" class="gynWvJFV_191"></path>
<path d="M425.8,302.7C425.8,302.7,425.8,302.7,425.8,302.7L425.8,302.7C425.8,302.8,425.8,302.7,425.8,302.7z" class="gynWvJFV_192"></path>
<path d="M423.6,302.9c-0.1,0-0.2,0-0.3,0c0,0.1-0.1,0.1-0.1,0.2c0.1,0,0.1-0.1,0.2-0.1C423.5,303,423.5,302.9,423.6,302.9z" class="gynWvJFV_193"></path>
<path d="M418.9,304C418.9,304,418.9,304,418.9,304C418.9,304,418.9,304,418.9,304L418.9,304z" class="gynWvJFV_194"></path>
<path d="M425,305.6l-0.1,0.3c1.8-0.3,3.7-0.6,5.5-0.9C428.6,305.1,426.8,305.4,425,305.6z" class="gynWvJFV_195"></path>
<path d="M418.9,304C418.9,304,418.9,304,418.9,304C418.9,304,418.9,304,418.9,304C418.9,304,418.9,304,418.9,304z" class="gynWvJFV_196"></path>
<path d="M419.8,303.9c-0.3-0.1-0.6-0.1-0.8,0.1C419.2,303.9,419.5,304.1,419.8,303.9z" class="gynWvJFV_197"></path>
<style data-made-with="vivus-instant">.gynWvJFV_0{stroke-dasharray:527 529;stroke-dashoffset:528;animation:gynWvJFV_draw 197ms linear 0ms forwards;}.gynWvJFV_1{stroke-dasharray:899 901;stroke-dashoffset:900;animation:gynWvJFV_draw 336ms linear 197ms forwards;}.gynWvJFV_2{stroke-dasharray:588 590;stroke-dashoffset:589;animation:gynWvJFV_draw 220ms linear 533ms forwards;}.gynWvJFV_3{stroke-dasharray:274 276;stroke-dashoffset:275;animation:gynWvJFV_draw 102ms linear 753ms forwards;}.gynWvJFV_4{stroke-dasharray:294 296;stroke-dashoffset:295;animation:gynWvJFV_draw 110ms linear 856ms forwards;}.gynWvJFV_5{stroke-dasharray:218 220;stroke-dashoffset:219;animation:gynWvJFV_draw 81ms linear 966ms forwards;}.gynWvJFV_6{stroke-dasharray:454 456;stroke-dashoffset:455;animation:gynWvJFV_draw 169ms linear 1048ms forwards;}.gynWvJFV_7{stroke-dasharray:314 316;stroke-dashoffset:315;animation:gynWvJFV_draw 117ms linear 1218ms forwards;}.gynWvJFV_8{stroke-dasharray:1 3;stroke-dashoffset:2;animation:gynWvJFV_draw 0ms linear 1335ms forwards;}.gynWvJFV_9{stroke-dasharray:1 3;stroke-dashoffset:2;animation:gynWvJFV_draw 0ms linear 1336ms forwards;}.gynWvJFV_10{stroke-dasharray:1 3;stroke-dashoffset:2;animation:gynWvJFV_draw 0ms linear 1337ms forwards;}.gynWvJFV_11{stroke-dasharray:1 3;stroke-dashoffset:2;animation:gynWvJFV_draw 0ms linear 1338ms forwards;}.gynWvJFV_12{stroke-dasharray:1 3;stroke-dashoffset:2;animation:gynWvJFV_draw 0ms linear 1338ms forwards;}.gynWvJFV_13{stroke-dasharray:1 3;stroke-dashoffset:2;animation:gynWvJFV_draw 0ms linear 1339ms forwards;}.gynWvJFV_14{stroke-dasharray:1 3;stroke-dashoffset:2;animation:gynWvJFV_draw 0ms linear 1340ms forwards;}.gynWvJFV_15{stroke-dasharray:2 4;stroke-dashoffset:3;animation:gynWvJFV_draw 1ms linear 1341ms forwards;}.gynWvJFV_16{stroke-dasharray:4 6;stroke-dashoffset:5;animation:gynWvJFV_draw 1ms linear 1342ms forwards;}.gynWvJFV_17{stroke-dasharray:3 5;stroke-dashoffset:4;animation:gynWvJFV_draw 1ms linear 1344ms forwards;}.gynWvJFV_18{stroke-dasharray:1 3;stroke-dashoffset:2;animation:gynWvJFV_draw 0ms linear 1345ms forwards;}.gynWvJFV_19{stroke-dasharray:1 3;stroke-dashoffset:2;animation:gynWvJFV_draw 0ms linear 1346ms forwards;}.gynWvJFV_20{stroke-dasharray:1 3;stroke-dashoffset:2;animation:gynWvJFV_draw 0ms linear 1347ms forwards;}.gynWvJFV_21{stroke-dasharray:1 3;stroke-dashoffset:2;animation:gynWvJFV_draw 0ms linear 1347ms forwards;}.gynWvJFV_22{stroke-dasharray:1 3;stroke-dashoffset:2;animation:gynWvJFV_draw 0ms linear 1348ms forwards;}.gynWvJFV_23{stroke-dasharray:3 5;stroke-dashoffset:4;animation:gynWvJFV_draw 1ms linear 1349ms forwards;}.gynWvJFV_24{stroke-dasharray:1 3;stroke-dashoffset:2;animation:gynWvJFV_draw 0ms linear 1350ms forwards;}.gynWvJFV_25{stroke-dasharray:3 5;stroke-dashoffset:4;animation:gynWvJFV_draw 1ms linear 1351ms forwards;}.gynWvJFV_26{stroke-dasharray:2 4;stroke-dashoffset:3;animation:gynWvJFV_draw 1ms linear 1353ms forwards;}.gynWvJFV_27{stroke-dasharray:1 3;stroke-dashoffset:2;animation:gynWvJFV_draw 0ms linear 1354ms forwards;}.gynWvJFV_28{stroke-dasharray:1 3;stroke-dashoffset:2;animation:gynWvJFV_draw 0ms linear 1354ms forwards;}.gynWvJFV_29{stroke-dasharray:1 3;stroke-dashoffset:2;animation:gynWvJFV_draw 0ms linear 1355ms forwards;}.gynWvJFV_30{stroke-dasharray:0 2;stroke-dashoffset:1;animation:gynWvJFV_draw 0ms linear 1356ms forwards;}.gynWvJFV_31{stroke-dasharray:1 3;stroke-dashoffset:2;animation:gynWvJFV_draw 0ms linear 1356ms forwards;}.gynWvJFV_32{stroke-dasharray:1 3;stroke-dashoffset:2;animation:gynWvJFV_draw 0ms linear 1357ms forwards;}.gynWvJFV_33{stroke-dasharray:1 3;stroke-dashoffset:2;animation:gynWvJFV_draw 0ms linear 1358ms forwards;}.gynWvJFV_34{stroke-dasharray:1 3;stroke-dashoffset:2;animation:gynWvJFV_draw 0ms linear 1358ms forwards;}.gynWvJFV_35{stroke-dasharray:0 2;stroke-dashoffset:1;animation:gynWvJFV_draw 0ms linear 1359ms forwards;}.gynWvJFV_36{stroke-dasharray:1 3;stroke-dashoffset:2;animation:gynWvJFV_draw 0ms linear 1360ms forwards;}.gynWvJFV_37{stroke-dasharray:1 3;stroke-dashoffset:2;animation:gynWvJFV_draw 0ms linear 1360ms forwards;}.gynWvJFV_38{stroke-dasharray:1 3;stroke-dashoffset:2;animation:gynWvJFV_draw 0ms linear 1361ms forwards;}.gynWvJFV_39{stroke-dasharray:0 2;stroke-dashoffset:1;animation:gynWvJFV_draw 0ms linear 1362ms forwards;}.gynWvJFV_40{stroke-dasharray:2 4;stroke-dashoffset:3;animation:gynWvJFV_draw 1ms linear 1362ms forwards;}.gynWvJFV_41{stroke-dasharray:0 2;stroke-dashoffset:1;animation:gynWvJFV_draw 0ms linear 1363ms forwards;}.gynWvJFV_42{stroke-dasharray:1 3;stroke-dashoffset:2;animation:gynWvJFV_draw 0ms linear 1364ms forwards;}.gynWvJFV_43{stroke-dasharray:1 3;stroke-dashoffset:2;animation:gynWvJFV_draw 0ms linear 1364ms forwards;}.gynWvJFV_44{stroke-dasharray:1 3;stroke-dashoffset:2;animation:gynWvJFV_draw 0ms linear 1365ms forwards;}.gynWvJFV_45{stroke-dasharray:0 2;stroke-dashoffset:1;animation:gynWvJFV_draw 0ms linear 1366ms forwards;}.gynWvJFV_46{stroke-dasharray:1 3;stroke-dashoffset:2;animation:gynWvJFV_draw 0ms linear 1366ms forwards;}.gynWvJFV_47{stroke-dasharray:1 3;stroke-dashoffset:2;animation:gynWvJFV_draw 0ms linear 1367ms forwards;}.gynWvJFV_48{stroke-dasharray:0 2;stroke-dashoffset:1;animation:gynWvJFV_draw 0ms linear 1368ms forwards;}.gynWvJFV_49{stroke-dasharray:1 3;stroke-dashoffset:2;animation:gynWvJFV_draw 0ms linear 1368ms forwards;}.gynWvJFV_50{stroke-dasharray:1 3;stroke-dashoffset:2;animation:gynWvJFV_draw 0ms linear 1369ms forwards;}.gynWvJFV_51{stroke-dasharray:1 3;stroke-dashoffset:2;animation:gynWvJFV_draw 0ms linear 1370ms forwards;}.gynWvJFV_52{stroke-dasharray:0 2;stroke-dashoffset:1;animation:gynWvJFV_draw 0ms linear 1370ms forwards;}.gynWvJFV_53{stroke-dasharray:1 3;stroke-dashoffset:2;animation:gynWvJFV_draw 0ms linear 1371ms forwards;}.gynWvJFV_54{stroke-dasharray:1 3;stroke-dashoffset:2;animation:gynWvJFV_draw 0ms linear 1372ms forwards;}.gynWvJFV_55{stroke-dasharray:3 5;stroke-dashoffset:4;animation:gynWvJFV_draw 1ms linear 1372ms forwards;}.gynWvJFV_56{stroke-dasharray:11 13;stroke-dashoffset:12;animation:gynWvJFV_draw 4ms linear 1374ms forwards;}.gynWvJFV_57{stroke-dasharray:1 3;stroke-dashoffset:2;animation:gynWvJFV_draw 0ms linear 1378ms forwards;}.gynWvJFV_58{stroke-dasharray:1 3;stroke-dashoffset:2;animation:gynWvJFV_draw 0ms linear 1379ms forwards;}.gynWvJFV_59{stroke-dasharray:1 3;stroke-dashoffset:2;animation:gynWvJFV_draw 0ms linear 1380ms forwards;}.gynWvJFV_60{stroke-dasharray:1 3;stroke-dashoffset:2;animation:gynWvJFV_draw 0ms linear 1381ms forwards;}.gynWvJFV_61{stroke-dasharray:1 3;stroke-dashoffset:2;animation:gynWvJFV_draw 0ms linear 1381ms forwards;}.gynWvJFV_62{stroke-dasharray:1 3;stroke-dashoffset:2;animation:gynWvJFV_draw 0ms linear 1382ms forwards;}.gynWvJFV_63{stroke-dasharray:1 3;stroke-dashoffset:2;animation:gynWvJFV_draw 0ms linear 1383ms forwards;}.gynWvJFV_64{stroke-dasharray:1 3;stroke-dashoffset:2;animation:gynWvJFV_draw 0ms linear 1384ms forwards;}.gynWvJFV_65{stroke-dasharray:17 19;stroke-dashoffset:18;animation:gynWvJFV_draw 6ms linear 1384ms forwards;}.gynWvJFV_66{stroke-dasharray:1 3;stroke-dashoffset:2;animation:gynWvJFV_draw 0ms linear 1391ms forwards;}.gynWvJFV_67{stroke-dasharray:11 13;stroke-dashoffset:12;animation:gynWvJFV_draw 4ms linear 1392ms forwards;}.gynWvJFV_68{stroke-dasharray:2 4;stroke-dashoffset:3;animation:gynWvJFV_draw 1ms linear 1396ms forwards;}.gynWvJFV_69{stroke-dasharray:1 3;stroke-dashoffset:2;animation:gynWvJFV_draw 0ms linear 1397ms forwards;}.gynWvJFV_70{stroke-dasharray:1 3;stroke-dashoffset:2;animation:gynWvJFV_draw 0ms linear 1398ms forwards;}.gynWvJFV_71{stroke-dasharray:1 3;stroke-dashoffset:2;animation:gynWvJFV_draw 0ms linear 1399ms forwards;}.gynWvJFV_72{stroke-dasharray:2 4;stroke-dashoffset:3;animation:gynWvJFV_draw 1ms linear 1400ms forwards;}.gynWvJFV_73{stroke-dasharray:1 3;stroke-dashoffset:2;animation:gynWvJFV_draw 0ms linear 1401ms forwards;}.gynWvJFV_74{stroke-dasharray:1 3;stroke-dashoffset:2;animation:gynWvJFV_draw 0ms linear 1401ms forwards;}.gynWvJFV_75{stroke-dasharray:0 2;stroke-dashoffset:1;animation:gynWvJFV_draw 0ms linear 1402ms forwards;}.gynWvJFV_76{stroke-dasharray:1 3;stroke-dashoffset:2;animation:gynWvJFV_draw 0ms linear 1403ms forwards;}.gynWvJFV_77{stroke-dasharray:1 3;stroke-dashoffset:2;animation:gynWvJFV_draw 0ms linear 1403ms forwards;}.gynWvJFV_78{stroke-dasharray:1 3;stroke-dashoffset:2;animation:gynWvJFV_draw 0ms linear 1404ms forwards;}.gynWvJFV_79{stroke-dasharray:62 64;stroke-dashoffset:63;animation:gynWvJFV_draw 23ms linear 1405ms forwards;}.gynWvJFV_80{stroke-dasharray:0 2;stroke-dashoffset:1;animation:gynWvJFV_draw 0ms linear 1428ms forwards;}.gynWvJFV_81{stroke-dasharray:53 55;stroke-dashoffset:54;animation:gynWvJFV_draw 20ms linear 1429ms forwards;}.gynWvJFV_82{stroke-dasharray:0 2;stroke-dashoffset:1;animation:gynWvJFV_draw 0ms linear 1449ms forwards;}.gynWvJFV_83{stroke-dasharray:34 36;stroke-dashoffset:35;animation:gynWvJFV_draw 13ms linear 1449ms forwards;}.gynWvJFV_84{stroke-dasharray:41 43;stroke-dashoffset:42;animation:gynWvJFV_draw 15ms linear 1462ms forwards;}.gynWvJFV_85{stroke-dasharray:0 2;stroke-dashoffset:1;animation:gynWvJFV_draw 0ms linear 1478ms forwards;}.gynWvJFV_86{stroke-dasharray:34 36;stroke-dashoffset:35;animation:gynWvJFV_draw 13ms linear 1478ms forwards;}.gynWvJFV_87{stroke-dasharray:36 38;stroke-dashoffset:37;animation:gynWvJFV_draw 13ms linear 1491ms forwards;}.gynWvJFV_88{stroke-dasharray:33 35;stroke-dashoffset:34;animation:gynWvJFV_draw 12ms linear 1505ms forwards;}.gynWvJFV_89{stroke-dasharray:1 3;stroke-dashoffset:2;animation:gynWvJFV_draw 0ms linear 1518ms forwards;}.gynWvJFV_90{stroke-dasharray:3 5;stroke-dashoffset:4;animation:gynWvJFV_draw 1ms linear 1519ms forwards;}.gynWvJFV_91{stroke-dasharray:18 20;stroke-dashoffset:19;animation:gynWvJFV_draw 7ms linear 1520ms forwards;}.gynWvJFV_92{stroke-dasharray:17 19;stroke-dashoffset:18;animation:gynWvJFV_draw 6ms linear 1527ms forwards;}.gynWvJFV_93{stroke-dasharray:10 12;stroke-dashoffset:11;animation:gynWvJFV_draw 4ms linear 1534ms forwards;}.gynWvJFV_94{stroke-dasharray:7 9;stroke-dashoffset:8;animation:gynWvJFV_draw 2ms linear 1538ms forwards;}.gynWvJFV_95{stroke-dasharray:1 3;stroke-dashoffset:2;animation:gynWvJFV_draw 0ms linear 1541ms forwards;}.gynWvJFV_96{stroke-dasharray:0 2;stroke-dashoffset:1;animation:gynWvJFV_draw 0ms linear 1542ms forwards;}.gynWvJFV_97{stroke-dasharray:4 6;stroke-dashoffset:5;animation:gynWvJFV_draw 1ms linear 1542ms forwards;}.gynWvJFV_98{stroke-dasharray:0 2;stroke-dashoffset:1;animation:gynWvJFV_draw 0ms linear 1544ms forwards;}.gynWvJFV_99{stroke-dasharray:4 6;stroke-dashoffset:5;animation:gynWvJFV_draw 1ms linear 1545ms forwards;}.gynWvJFV_100{stroke-dasharray:4 6;stroke-dashoffset:5;animation:gynWvJFV_draw 1ms linear 1546ms forwards;}.gynWvJFV_101{stroke-dasharray:0 2;stroke-dashoffset:1;animation:gynWvJFV_draw 0ms linear 1548ms forwards;}.gynWvJFV_102{stroke-dasharray:3 5;stroke-dashoffset:4;animation:gynWvJFV_draw 1ms linear 1549ms forwards;}.gynWvJFV_103{stroke-dasharray:2 4;stroke-dashoffset:3;animation:gynWvJFV_draw 1ms linear 1550ms forwards;}.gynWvJFV_104{stroke-dasharray:0 2;stroke-dashoffset:1;animation:gynWvJFV_draw 0ms linear 1551ms forwards;}.gynWvJFV_105{stroke-dasharray:1 3;stroke-dashoffset:2;animation:gynWvJFV_draw 0ms linear 1552ms forwards;}.gynWvJFV_106{stroke-dasharray:2 4;stroke-dashoffset:3;animation:gynWvJFV_draw 1ms linear 1552ms forwards;}.gynWvJFV_107{stroke-dasharray:2 4;stroke-dashoffset:3;animation:gynWvJFV_draw 1ms linear 1553ms forwards;}.gynWvJFV_108{stroke-dasharray:1 3;stroke-dashoffset:2;animation:gynWvJFV_draw 0ms linear 1555ms forwards;}.gynWvJFV_109{stroke-dasharray:1 3;stroke-dashoffset:2;animation:gynWvJFV_draw 0ms linear 1555ms forwards;}.gynWvJFV_110{stroke-dasharray:2 4;stroke-dashoffset:3;animation:gynWvJFV_draw 1ms linear 1556ms forwards;}.gynWvJFV_111{stroke-dasharray:1 3;stroke-dashoffset:2;animation:gynWvJFV_draw 0ms linear 1557ms forwards;}.gynWvJFV_112{stroke-dasharray:53 55;stroke-dashoffset:54;animation:gynWvJFV_draw 20ms linear 1558ms forwards;}.gynWvJFV_113{stroke-dasharray:54 56;stroke-dashoffset:55;animation:gynWvJFV_draw 20ms linear 1578ms forwards;}.gynWvJFV_114{stroke-dasharray:47 49;stroke-dashoffset:48;animation:gynWvJFV_draw 17ms linear 1599ms forwards;}.gynWvJFV_115{stroke-dasharray:36 38;stroke-dashoffset:37;animation:gynWvJFV_draw 13ms linear 1617ms forwards;}.gynWvJFV_116{stroke-dasharray:29 31;stroke-dashoffset:30;animation:gynWvJFV_draw 11ms linear 1630ms forwards;}.gynWvJFV_117{stroke-dasharray:25 27;stroke-dashoffset:26;animation:gynWvJFV_draw 9ms linear 1642ms forwards;}.gynWvJFV_118{stroke-dasharray:15 17;stroke-dashoffset:16;animation:gynWvJFV_draw 5ms linear 1651ms forwards;}.gynWvJFV_119{stroke-dasharray:1 3;stroke-dashoffset:2;animation:gynWvJFV_draw 0ms linear 1657ms forwards;}.gynWvJFV_120{stroke-dasharray:0 2;stroke-dashoffset:1;animation:gynWvJFV_draw 0ms linear 1658ms forwards;}.gynWvJFV_121{stroke-dasharray:115 117;stroke-dashoffset:116;animation:gynWvJFV_draw 43ms linear 1658ms forwards;}.gynWvJFV_122{stroke-dasharray:78 80;stroke-dashoffset:79;animation:gynWvJFV_draw 29ms linear 1702ms forwards;}.gynWvJFV_123{stroke-dasharray:81 83;stroke-dashoffset:82;animation:gynWvJFV_draw 30ms linear 1731ms forwards;}.gynWvJFV_124{stroke-dasharray:103 105;stroke-dashoffset:104;animation:gynWvJFV_draw 38ms linear 1762ms forwards;}.gynWvJFV_125{stroke-dasharray:84 86;stroke-dashoffset:85;animation:gynWvJFV_draw 31ms linear 1801ms forwards;}.gynWvJFV_126{stroke-dasharray:84 86;stroke-dashoffset:85;animation:gynWvJFV_draw 31ms linear 1833ms forwards;}.gynWvJFV_127{stroke-dasharray:1 3;stroke-dashoffset:2;animation:gynWvJFV_draw 0ms linear 1864ms forwards;}.gynWvJFV_128{stroke-dasharray:1 3;stroke-dashoffset:2;animation:gynWvJFV_draw 0ms linear 1865ms forwards;}.gynWvJFV_129{stroke-dasharray:1 3;stroke-dashoffset:2;animation:gynWvJFV_draw 0ms linear 1866ms forwards;}.gynWvJFV_130{stroke-dasharray:2 4;stroke-dashoffset:3;animation:gynWvJFV_draw 1ms linear 1867ms forwards;}.gynWvJFV_131{stroke-dasharray:1 3;stroke-dashoffset:2;animation:gynWvJFV_draw 0ms linear 1868ms forwards;}.gynWvJFV_132{stroke-dasharray:1 3;stroke-dashoffset:2;animation:gynWvJFV_draw 0ms linear 1868ms forwards;}.gynWvJFV_133{stroke-dasharray:1 3;stroke-dashoffset:2;animation:gynWvJFV_draw 0ms linear 1869ms forwards;}.gynWvJFV_134{stroke-dasharray:1 3;stroke-dashoffset:2;animation:gynWvJFV_draw 0ms linear 1870ms forwards;}.gynWvJFV_135{stroke-dasharray:1 3;stroke-dashoffset:2;animation:gynWvJFV_draw 0ms linear 1871ms forwards;}.gynWvJFV_136{stroke-dasharray:0 2;stroke-dashoffset:1;animation:gynWvJFV_draw 0ms linear 1871ms forwards;}.gynWvJFV_137{stroke-dasharray:1 3;stroke-dashoffset:2;animation:gynWvJFV_draw 0ms linear 1872ms forwards;}.gynWvJFV_138{stroke-dasharray:1 3;stroke-dashoffset:2;animation:gynWvJFV_draw 0ms linear 1872ms forwards;}.gynWvJFV_139{stroke-dasharray:1 3;stroke-dashoffset:2;animation:gynWvJFV_draw 0ms linear 1873ms forwards;}.gynWvJFV_140{stroke-dasharray:1 3;stroke-dashoffset:2;animation:gynWvJFV_draw 0ms linear 1874ms forwards;}.gynWvJFV_141{stroke-dasharray:1 3;stroke-dashoffset:2;animation:gynWvJFV_draw 0ms linear 1875ms forwards;}.gynWvJFV_142{stroke-dasharray:1 3;stroke-dashoffset:2;animation:gynWvJFV_draw 0ms linear 1875ms forwards;}.gynWvJFV_143{stroke-dasharray:1 3;stroke-dashoffset:2;animation:gynWvJFV_draw 0ms linear 1876ms forwards;}.gynWvJFV_144{stroke-dasharray:1 3;stroke-dashoffset:2;animation:gynWvJFV_draw 0ms linear 1877ms forwards;}.gynWvJFV_145{stroke-dasharray:696 698;stroke-dashoffset:697;animation:gynWvJFV_draw 260ms linear 1878ms forwards;}.gynWvJFV_146{stroke-dasharray:11 13;stroke-dashoffset:12;animation:gynWvJFV_draw 4ms linear 2138ms forwards;}.gynWvJFV_147{stroke-dasharray:1 3;stroke-dashoffset:2;animation:gynWvJFV_draw 0ms linear 2143ms forwards;}.gynWvJFV_148{stroke-dasharray:11 13;stroke-dashoffset:12;animation:gynWvJFV_draw 4ms linear 2143ms forwards;}.gynWvJFV_149{stroke-dasharray:1 3;stroke-dashoffset:2;animation:gynWvJFV_draw 0ms linear 2148ms forwards;}.gynWvJFV_150{stroke-dasharray:1 3;stroke-dashoffset:2;animation:gynWvJFV_draw 0ms linear 2149ms forwards;}.gynWvJFV_151{stroke-dasharray:10 12;stroke-dashoffset:11;animation:gynWvJFV_draw 4ms linear 2149ms forwards;}.gynWvJFV_152{stroke-dasharray:17 19;stroke-dashoffset:18;animation:gynWvJFV_draw 6ms linear 2153ms forwards;}.gynWvJFV_153{stroke-dasharray:6 8;stroke-dashoffset:7;animation:gynWvJFV_draw 2ms linear 2160ms forwards;}.gynWvJFV_154{stroke-dasharray:3 5;stroke-dashoffset:4;animation:gynWvJFV_draw 1ms linear 2163ms forwards;}.gynWvJFV_155{stroke-dasharray:1 3;stroke-dashoffset:2;animation:gynWvJFV_draw 0ms linear 2164ms forwards;}.gynWvJFV_156{stroke-dasharray:303 305;stroke-dashoffset:304;animation:gynWvJFV_draw 113ms linear 2165ms forwards;}.gynWvJFV_157{stroke-dasharray:9 11;stroke-dashoffset:10;animation:gynWvJFV_draw 3ms linear 2279ms forwards;}.gynWvJFV_158{stroke-dasharray:1 3;stroke-dashoffset:2;animation:gynWvJFV_draw 0ms linear 2282ms forwards;}.gynWvJFV_159{stroke-dasharray:2 4;stroke-dashoffset:3;animation:gynWvJFV_draw 1ms linear 2283ms forwards;}.gynWvJFV_160{stroke-dasharray:1 3;stroke-dashoffset:2;animation:gynWvJFV_draw 0ms linear 2284ms forwards;}.gynWvJFV_161{stroke-dasharray:3 5;stroke-dashoffset:4;animation:gynWvJFV_draw 1ms linear 2285ms forwards;}.gynWvJFV_162{stroke-dasharray:1 3;stroke-dashoffset:2;animation:gynWvJFV_draw 0ms linear 2286ms forwards;}.gynWvJFV_163{stroke-dasharray:0 2;stroke-dashoffset:1;animation:gynWvJFV_draw 0ms linear 2287ms forwards;}.gynWvJFV_164{stroke-dasharray:1 3;stroke-dashoffset:2;animation:gynWvJFV_draw 0ms linear 2288ms forwards;}.gynWvJFV_165{stroke-dasharray:6 8;stroke-dashoffset:7;animation:gynWvJFV_draw 2ms linear 2288ms forwards;}.gynWvJFV_166{stroke-dasharray:9 11;stroke-dashoffset:10;animation:gynWvJFV_draw 3ms linear 2291ms forwards;}.gynWvJFV_167{stroke-dasharray:10 12;stroke-dashoffset:11;animation:gynWvJFV_draw 4ms linear 2295ms forwards;}.gynWvJFV_168{stroke-dasharray:13 15;stroke-dashoffset:14;animation:gynWvJFV_draw 5ms linear 2299ms forwards;}.gynWvJFV_169{stroke-dasharray:8 10;stroke-dashoffset:9;animation:gynWvJFV_draw 3ms linear 2304ms forwards;}.gynWvJFV_170{stroke-dasharray:8 10;stroke-dashoffset:9;animation:gynWvJFV_draw 3ms linear 2307ms forwards;}.gynWvJFV_171{stroke-dasharray:5 7;stroke-dashoffset:6;animation:gynWvJFV_draw 2ms linear 2311ms forwards;}.gynWvJFV_172{stroke-dasharray:8 10;stroke-dashoffset:9;animation:gynWvJFV_draw 3ms linear 2313ms forwards;}.gynWvJFV_173{stroke-dasharray:1 3;stroke-dashoffset:2;animation:gynWvJFV_draw 0ms linear 2316ms forwards;}.gynWvJFV_174{stroke-dasharray:8 10;stroke-dashoffset:9;animation:gynWvJFV_draw 3ms linear 2317ms forwards;}.gynWvJFV_175{stroke-dasharray:6 8;stroke-dashoffset:7;animation:gynWvJFV_draw 2ms linear 2320ms forwards;}.gynWvJFV_176{stroke-dasharray:8 10;stroke-dashoffset:9;animation:gynWvJFV_draw 3ms linear 2323ms forwards;}.gynWvJFV_177{stroke-dasharray:6 8;stroke-dashoffset:7;animation:gynWvJFV_draw 2ms linear 2326ms forwards;}.gynWvJFV_178{stroke-dasharray:10 12;stroke-dashoffset:11;animation:gynWvJFV_draw 4ms linear 2329ms forwards;}.gynWvJFV_179{stroke-dasharray:10 12;stroke-dashoffset:11;animation:gynWvJFV_draw 4ms linear 2333ms forwards;}.gynWvJFV_180{stroke-dasharray:9 11;stroke-dashoffset:10;animation:gynWvJFV_draw 3ms linear 2337ms forwards;}.gynWvJFV_181{stroke-dasharray:6 8;stroke-dashoffset:7;animation:gynWvJFV_draw 2ms linear 2341ms forwards;}.gynWvJFV_182{stroke-dasharray:6 8;stroke-dashoffset:7;animation:gynWvJFV_draw 2ms linear 2344ms forwards;}.gynWvJFV_183{stroke-dasharray:5 7;stroke-dashoffset:6;animation:gynWvJFV_draw 2ms linear 2346ms forwards;}.gynWvJFV_184{stroke-dasharray:1 3;stroke-dashoffset:2;animation:gynWvJFV_draw 0ms linear 2348ms forwards;}.gynWvJFV_185{stroke-dasharray:1 3;stroke-dashoffset:2;animation:gynWvJFV_draw 0ms linear 2349ms forwards;}.gynWvJFV_186{stroke-dasharray:1 3;stroke-dashoffset:2;animation:gynWvJFV_draw 0ms linear 2350ms forwards;}.gynWvJFV_187{stroke-dasharray:25 27;stroke-dashoffset:26;animation:gynWvJFV_draw 9ms linear 2351ms forwards;}.gynWvJFV_188{stroke-dasharray:1656 1658;stroke-dashoffset:1657;animation:gynWvJFV_draw 618ms linear 2360ms forwards;}.gynWvJFV_189{stroke-dasharray:0 2;stroke-dashoffset:1;animation:gynWvJFV_draw 0ms linear 2979ms forwards;}.gynWvJFV_190{stroke-dasharray:28 30;stroke-dashoffset:29;animation:gynWvJFV_draw 10ms linear 2980ms forwards;}.gynWvJFV_191{stroke-dasharray:1 3;stroke-dashoffset:2;animation:gynWvJFV_draw 0ms linear 2991ms forwards;}.gynWvJFV_192{stroke-dasharray:1 3;stroke-dashoffset:2;animation:gynWvJFV_draw 0ms linear 2991ms forwards;}.gynWvJFV_193{stroke-dasharray:1 3;stroke-dashoffset:2;animation:gynWvJFV_draw 0ms linear 2992ms forwards;}.gynWvJFV_194{stroke-dasharray:0 2;stroke-dashoffset:1;animation:gynWvJFV_draw 0ms linear 2993ms forwards;}.gynWvJFV_195{stroke-dasharray:12 14;stroke-dashoffset:13;animation:gynWvJFV_draw 4ms linear 2993ms forwards;}.gynWvJFV_196{stroke-dasharray:0 2;stroke-dashoffset:1;animation:gynWvJFV_draw 0ms linear 2998ms forwards;}.gynWvJFV_197{stroke-dasharray:2 4;stroke-dashoffset:3;animation:gynWvJFV_draw 1ms linear 2998ms forwards;}@keyframes gynWvJFV_draw{100%{stroke-dashoffset:0;}}@keyframes gynWvJFV_fade{0%{stroke-opacity:1;}94.44444444444444%{stroke-opacity:1;}100%{stroke-opacity:0;}}</style></svg>
