<?xml version="1.0" encoding="UTF-8"?>
<svg version="1.1" xmlns="http://www.w3.org/2000/svg" xmlns:xlink="http://www.w3.org/1999/xlink">
<defs>
<filter id="filter0_ddd" x="0" y="0" width="84" height="86" filterUnits="userSpaceOnUse" color-interpolation-filters="sRGB"><feFlood flood-opacity="0" result="BackgroundImageFix"/><feColorMatrix in="SourceAlpha" values="0 0 0 0 0 0 0 0 0 0 0 0 0 0 0 0 0 0 127 0"/><feOffset dy="7"/><feGaussianBlur stdDeviation="4"/><feColorMatrix values="0 0 0 0 0 0 0 0 0 0 0 0 0 0 0 0 0 0 0.2 0"/><feBlend in2="BackgroundImageFix" result="effect1_dropShadow"/><feColorMatrix in="SourceAlpha" values="0 0 0 0 0 0 0 0 0 0 0 0 0 0 0 0 0 0 127 0"/><feOffset dy="5"/><feGaussianBlur stdDeviation="11"/><feColorMatrix values="0 0 0 0 0 0 0 0 0 0 0 0 0 0 0 0 0 0 0.12 0"/><feBlend in2="effect1_dropShadow" result="effect2_dropShadow"/><feColorMatrix in="SourceAlpha" values="0 0 0 0 0 0 0 0 0 0 0 0 0 0 0 0 0 0 127 0"/><feOffset dy="12"/><feGaussianBlur stdDeviation="8.5"/><feColorMatrix values="0 0 0 0 0 0 0 0 0 0 0 0 0 0 0 0 0 0 0.14 0"/><feBlend in2="effect2_dropShadow" result="effect3_dropShadow"/><feBlend in="SourceGraphic" in2="effect3_dropShadow" result="shape"/></filter>
<clipPath id="clip0"><path fill="#fff" d="M0 0h24v24H0z"/></clipPath>
</defs>
<symbol id="i-arrowtotop" viewBox="0 0 84 86" fill="none" xmlns="http://www.w3.org/2000/svg"><g filter="url(#filter0_ddd)"><circle cx="42" cy="37" r="20" fill="currentColor"/></g><path d="M34 40.333l8.333-8 8.334 8" stroke="#fff" stroke-width="2" stroke-linejoin="round"/></symbol>
<symbol id="i-box" viewBox="0 0 24 24" fill="none" xmlns="http://www.w3.org/2000/svg"><path d="M20.981 8.05c-.019-.032-.019-.048-.056-.08-.02-.033-.057-.05-.113-.066L16.5 5.964l-4.368-1.94a.319.319 0 00-.245 0L7.5 5.964l-4.33 1.94a.215.215 0 00-.132.114c-.02.033-.02.05-.038.082v7.776c0 .081.056.163.15.212l8.718 3.863s.019 0 .019.016c0 0 .019 0 .019.017.037.016.056.016.094.016s.056 0 .094-.016c0 0 .019 0 .019-.017 0 0 .019 0 .019-.016l8.717-3.863c.095-.05.151-.13.151-.212v-7.76c0-.032 0-.049-.019-.065zM12 4.498l4.236 1.891 3.898 1.728-2.674 1.19-8.134-3.619L12 4.497zm3.54 6.178l.941-.423.621-.277v1.01l-.508-.195a.288.288 0 00-.32.065l-.715.766v-.946h-.02zM7.764 6.388l.96-.424 8.134 3.603-1.582.717-8.134-3.619.622-.277zm3.972 12.993l-8.19-3.652V8.507l3.973 1.761 4.217 1.875v7.238zM12 11.735l-4.236-1.89-3.898-1.729 2.674-1.19 8.134 3.62L12 11.735zm8.454 4.01l-8.19 3.62v-7.222l2.749-1.223v1.37c0 .13.113.228.263.228.094 0 .17-.033.226-.098l1.054-1.125.716.26c.132.05.301 0 .358-.13.018-.016.018-.049.018-.081V9.746l2.806-1.239v7.238z" fill="#000" stroke="#000" stroke-width=".4"/></symbol>
<symbol id="i-facebook" viewBox="0 0 30 30" fill="none" xmlns="http://www.w3.org/2000/svg"><path d="M30 15c0-8.285-6.715-15-15-15S0 6.715 0 15s6.715 15 15 15c.088 0 .176 0 .264-.006V18.322H12.04v-3.756h3.223v-2.765c0-3.205 1.957-4.951 4.816-4.951 1.371 0 2.549.1 2.889.146v3.352H21c-1.553 0-1.857.738-1.857 1.822v2.39h3.72l-.486 3.756h-3.234V29.42C25.413 27.62 30 21.85 30 15z" fill="currentColor"/></symbol>
<symbol id="i-instagram" viewBox="0 0 30 30" fill="none" xmlns="http://www.w3.org/2000/svg"><path d="M17.871 15a2.871 2.871 0 11-5.742 0 2.871 2.871 0 015.742 0z" fill="currentColor"/><path d="M21.714 9.92a2.669 2.669 0 00-.644-.99 2.666 2.666 0 00-.99-.645c-.304-.117-.76-.258-1.6-.296-.908-.041-1.18-.05-3.48-.05s-2.572.008-3.48.05c-.84.038-1.297.179-1.6.296a2.665 2.665 0 00-.99.645 2.67 2.67 0 00-.645.99c-.118.304-.258.76-.296 1.6-.042.908-.05 1.18-.05 3.48s.008 2.572.05 3.48c.038.84.178 1.296.296 1.6.138.374.358.713.645.99.277.287.616.507.99.645.303.118.76.258 1.6.296.908.042 1.18.05 3.48.05s2.572-.008 3.48-.05c.84-.038 1.296-.178 1.6-.296a2.852 2.852 0 001.634-1.635c.118-.303.259-.76.297-1.6.041-.908.05-1.18.05-3.48s-.009-2.572-.05-3.48c-.038-.84-.178-1.296-.297-1.6zM15 19.423a4.423 4.423 0 110-8.846 4.423 4.423 0 010 8.846zm4.598-7.987a1.034 1.034 0 110-2.068 1.034 1.034 0 010 2.068z" fill="currentColor"/><path d="M15 0C6.717 0 0 6.717 0 15c0 8.283 6.717 15 15 15 8.283 0 15-6.717 15-15 0-8.283-6.717-15-15-15zm8.561 18.551c-.041.917-.187 1.543-.4 2.09a4.404 4.404 0 01-2.52 2.52c-.547.213-1.173.358-2.09.4-.918.042-1.212.052-3.55.052-2.34 0-2.633-.01-3.552-.052-.917-.042-1.543-.187-2.09-.4a4.22 4.22 0 01-1.526-.994 4.22 4.22 0 01-.994-1.525c-.213-.548-.358-1.174-.4-2.09-.042-.92-.052-1.213-.052-3.552 0-2.34.01-2.633.052-3.551.041-.917.187-1.543.4-2.09a4.22 4.22 0 01.994-1.526c.43-.439.95-.778 1.525-.994.548-.213 1.174-.358 2.09-.4.92-.042 1.213-.052 3.552-.052 2.34 0 2.633.01 3.551.052.917.042 1.543.187 2.09.4a4.222 4.222 0 011.527.994c.438.43.777.95.993 1.525.213.548.359 1.174.4 2.09.042.92.052 1.213.052 3.552 0 2.34-.01 2.633-.052 3.551z" fill="currentColor"/></symbol>
<symbol id="i-sprite" xmlns="http://www.w3.org/2000/svg"/>
<symbol id="i-truck" viewBox="0 0 24 24" fill="none" xmlns="http://www.w3.org/2000/svg"><g clip-path="url(#clip0)" fill="#000"><path d="M6.5 17h-2a.5.5 0 010-1h2a.5.5 0 010 1zM22.75 17H21.5a.5.5 0 010-1h.835l.674-3.592C23 10.57 21.43 9 19.5 9h-3.283l-1.59 7H17.5a.5.5 0 010 1H14a.5.5 0 01-.488-.61l1.818-8a.5.5 0 01.488-.39H19.5c2.481 0 4.5 2.019 4.5 4.5l-.759 4.092a.499.499 0 01-.49.408z"/><path d="M19.5 19a2.503 2.503 0 01-2.5-2.5c0-1.379 1.122-2.5 2.5-2.5s2.5 1.121 2.5 2.5-1.122 2.5-2.5 2.5zm0-4c-.827 0-1.5.673-1.5 1.5s.673 1.5 1.5 1.5 1.5-.673 1.5-1.5-.673-1.5-1.5-1.5zM8.5 19A2.503 2.503 0 016 16.5C6 15.121 7.122 14 8.5 14s2.5 1.121 2.5 2.5S9.878 19 8.5 19zm0-4c-.827 0-1.5.673-1.5 1.5S7.673 18 8.5 18s1.5-.673 1.5-1.5S9.327 15 8.5 15zM6.5 8h-4a.5.5 0 010-1h4a.5.5 0 010 1zM6.5 11h-5a.5.5 0 010-1h5a.5.5 0 010 1zM6.5 14h-6a.5.5 0 010-1h6a.5.5 0 010 1z"/><path d="M14 17h-3.5a.5.5 0 010-1h3.101l2.272-10H4.5a.5.5 0 010-1h12a.5.5 0 01.488.61l-2.5 11A.5.5 0 0114 17z"/></g></symbol>
<symbol id="i-vk" viewBox="0 0 30 30" fill="none" xmlns="http://www.w3.org/2000/svg"><path d="M15 0C6.716 0 0 6.716 0 15c0 8.284 6.716 15 15 15 8.284 0 15-6.716 15-15 0-8.284-6.716-15-15-15zm7.609 16.622c.699.683 1.439 1.326 2.066 2.08.278.333.54.677.74 1.065.285.553.027 1.159-.467 1.192l-3.073-.001c-.794.066-1.426-.255-1.958-.797-.425-.433-.82-.894-1.229-1.342a2.871 2.871 0 00-.553-.492c-.42-.272-.783-.189-1.023.249-.245.445-.3.939-.324 1.434-.033.725-.252.914-.979.948-1.554.073-3.028-.163-4.398-.946-1.208-.69-2.144-1.666-2.959-2.77-1.587-2.152-2.803-4.514-3.895-6.944-.246-.547-.066-.84.538-.85a85.522 85.522 0 013.009-.002c.408.007.678.24.835.625.542 1.334 1.206 2.603 2.039 3.78.222.313.448.625.77.846.357.245.628.164.796-.233.107-.253.154-.523.177-.794.08-.927.09-1.854-.049-2.777-.086-.578-.41-.951-.987-1.06-.293-.056-.25-.165-.108-.332.248-.29.48-.47.944-.47h3.472c.547.107.67.353.744.904l.003 3.859c-.006.213.107.845.49.985.307.101.51-.145.693-.34.833-.883 1.426-1.926 1.957-3.005.235-.476.437-.969.634-1.462.146-.365.373-.545.785-.539l3.343.004c.099 0 .199.001.296.018.564.097.718.339.544.889-.275.863-.808 1.583-1.329 2.304-.558.772-1.154 1.517-1.707 2.293-.508.709-.468 1.066.163 1.681z" fill="currentColor"/></symbol>
<symbol id="i-youtube" viewBox="0 0 30 30" fill="none" xmlns="http://www.w3.org/2000/svg"><path d="M13.132 17.81L18.01 15l-4.88-2.81v5.62z" fill="currentColor"/><path d="M15 0C6.717 0 0 6.717 0 15c0 8.283 6.717 15 15 15 8.283 0 15-6.717 15-15 0-8.283-6.717-15-15-15zm9.373 15.015s0 3.042-.386 4.51a2.349 2.349 0 01-1.652 1.651c-1.467.387-7.335.387-7.335.387s-5.852 0-7.335-.402a2.349 2.349 0 01-1.652-1.652C5.627 18.057 5.627 15 5.627 15s0-3.042.386-4.509a2.396 2.396 0 011.652-1.667C9.132 8.438 15 8.438 15 8.438s5.868 0 7.334.401c.803.216 1.436.85 1.653 1.652.401 1.467.386 4.524.386 4.524z" fill="currentColor"/></symbol>
</svg>