<svg width="139" height="141" viewBox="0 0 139 141" fill="none" xmlns="http://www.w3.org/2000/svg">
<g filter="url(#filter0_ddd)">
<path d="M120.3 66.5C118.9 61.2 118.2 55.6 118.2 49.8C118.2 42.1 119.5 34.6 122 27.8C120.4 21 114.9 15.6 108.1 14C101.2 16.4 93.9001 17.8 86.2001 17.8C80.4001 17.8 74.8 17 69.5 15.7C64.2 17.1 58.6 17.8 52.8 17.8C45.1 17.8 37.7 16.5 30.9 14C24 15.5 18.6 20.9 17 27.8C19.5 34.7 20.8 42.1 20.8 49.8C20.8 55.6 20.0001 61.2 18.7001 66.5C20.1001 71.8 20.8 77.4 20.8 83.2C20.8 91 19.4 98.4 17 105.3C18.5 112.1 23.9 117.5 30.6 119.1C37.5 116.6 45 115.2 52.9 115.2C58.7 115.2 64.3 116 69.6 117.3C74.9 115.9 80.5 115.2 86.3 115.2C94.1001 115.2 101.6 116.6 108.6 119.1C115.4 117.5 120.7 112.1 122.2 105.3C119.7 98.4 118.4 90.8999 118.4 83.2C118.2 77.4 118.9 71.8 120.3 66.5Z" fill="white" stroke="black" stroke-width="1.3488" stroke-miterlimit="10"/>
<path d="M62.8 59.5C63.3 60.3 63.7 60.8 64.3 60.8C65 60.8 68.5 60.8 68.5 60.8C68.5 60.8 72.0001 60.8 72.7001 60.8C73.3001 60.8 73.7001 60.3 74.2001 59.5C73.7001 58.7 73.3001 58.2 72.7001 58.2C72.0001 58.2 68.5 58.2 68.5 58.2C68.5 58.2 65 58.2 64.3 58.2C63.7 58.1 63.3 58.6 62.8 59.5Z" fill="black"/>
<path d="M37.1002 46.6C36.2002 45.5 36.4002 44.7999 36.9002 44.1999C38.2002 42.3999 40.0002 41.2 42.3002 40.8C44.0002 40.5 45.9003 41.6 46.7003 43.3C47.6003 45.2 47.6003 47.2 46.2003 48.9C45.1003 50.2 44.1002 51.6 42.9002 52.8C41.8002 54 41.5002 55.2 41.8002 56.8C42.0002 58 42.1002 59.2 42.1002 60.3C42.1002 64.4 39.7002 67.6 35.9002 69C33.0002 70 30.3003 68.6 29.2003 66.4C28.2003 64.3 29.1002 60.5999 31.1002 59.1999C31.4002 58.9999 32.0002 58.8 32.3002 59C32.9002 59.4 32.5003 59.9 32.2003 60.3C31.9003 60.7 31.6002 61 31.3002 61.3C30.4002 62.4 30.1002 63.6 30.3002 65C30.5002 66.9 32.5002 68.1 34.3002 67.3C35.8002 66.7 36.9002 65.6 37.5002 64C38.6002 61.1 38.4003 58.0999 37.7003 55.1999C37.2003 53.2999 37.6002 51.8999 39.1002 50.6999C40.3002 49.6999 41.4002 48.5 42.5002 47.4C43.4002 46.4 44.1002 45.3 44.3002 43.9C44.5002 42.1 43.4003 41.1999 41.7003 41.6999C40.1003 42.1999 39.0002 43.1 38.4002 44.6C37.8002 45.3 37.5002 45.8 37.1002 46.6Z" fill="black"/>
<path d="M95.9999 49.0999C92.9999 49.6999 90.0998 50.4999 87.4999 52.4999C87.8998 52.6999 88.0999 52.8999 88.3999 53.0999C91.3999 54.9999 92.3998 57.7999 91.5998 61.2999C90.8998 64.1999 89.2999 66.4999 86.7999 67.9999C82.3999 70.7999 77.5999 68.3999 77.1999 63.1999C76.8999 59.6999 78.1999 56.6999 80.4999 54.1999C83.6999 50.8999 87.6999 49.0999 92.1999 48.4999C93.4999 48.2999 94.7999 48.2999 95.9999 49.0999ZM89.4999 57.8999C89.5999 55.8999 89.2999 54.6999 87.9999 54.0999C86.6999 53.3999 85.4998 53.8999 84.5998 54.7999C83.9998 55.3999 83.2999 55.9999 82.8999 56.6999C81.3999 58.9999 80.3999 61.4999 80.1999 64.2999C80.1999 64.7999 80.1999 65.1999 80.2999 65.6999C80.5999 67.1999 81.5998 67.7999 83.0998 67.4999C83.6998 67.3999 84.1999 67.0999 84.6999 66.6999C87.5999 64.1999 88.9999 60.9999 89.4999 57.8999Z" fill="black"/>
<path d="M60.5999 53.0999C60.1999 54.5999 59.9999 56.1999 59.3999 57.5999C57.9999 61.2999 56 64.6999 52.7 67.1999C51 68.4999 49.0999 69.3999 46.7999 68.7999C45.4999 68.3999 44.5999 67.6999 44.0999 66.4999C43.3999 64.8999 43.1999 63.1999 43.5999 61.4999C44.4999 57.0999 46.4999 53.2999 49.5999 50.0999C50.8999 48.7999 52.5 47.9999 54.2 47.5999C57.9 46.6999 60.3999 49.0999 60.5999 53.0999ZM59.2 52.9999C59.1 52.3999 59.0999 51.8999 59.0999 51.2999C58.6999 49.1999 57.3999 48.4999 55.4999 49.3999C54.7999 49.6999 54.0999 50.1999 53.4999 50.6999C50.4999 53.7999 48.1999 57.2999 46.9999 61.3999C46.5999 62.5999 46.4999 63.8999 46.4999 65.0999C46.4999 66.9999 47.9999 67.9999 49.7999 67.2999C50.5999 66.9999 51.5 66.4999 52.2 65.8999C55.8 62.8999 57.6999 58.8999 59.0999 54.4999C59.0999 54.0999 59.1 53.4999 59.2 52.9999Z" fill="black"/>
<path d="M110.3 53.0999C109.9 54.5999 109.7 56.1999 109.1 57.5999C107.7 61.2999 105.7 64.6999 102.4 67.1999C100.7 68.4999 98.8 69.3999 96.5 68.7999C95.2 68.3999 94.3001 67.6999 93.8001 66.4999C93.1001 64.8999 92.9001 63.1999 93.3001 61.4999C94.2001 57.0999 96.2001 53.2999 99.3001 50.0999C100.6 48.7999 102.2 47.9999 103.9 47.5999C107.5 46.6999 110.1 49.0999 110.3 53.0999ZM108.8 52.9999C108.7 52.3999 108.7 51.8999 108.7 51.2999C108.3 49.1999 107 48.4999 105.1 49.3999C104.4 49.6999 103.7 50.1999 103.1 50.6999C100.1 53.7999 97.8 57.2999 96.6 61.3999C96.2 62.5999 96.1 63.8999 96.1 65.0999C96.1 66.9999 97.6 67.9999 99.4 67.2999C100.2 66.9999 101.1 66.4999 101.8 65.8999C105.4 62.8999 107.3 58.8999 108.7 54.4999C108.8 54.0999 108.8 53.4999 108.8 52.9999Z" fill="black"/>
<path d="M96.8002 90.8C97.0002 90.9 97.3001 91 97.6001 91.1C97.6001 91.2 97.6001 91.3 97.6001 91.4C96.5001 91.4 95.3001 91.4 94.0001 91.4C94.4001 91.1 94.7001 90.9 95.1001 90.7C95.1001 88.6 95.1001 86.5 95.1001 84.3C95.1001 83.5 95.1001 82.6 94.0001 82.4C93.0001 82.3 91.5001 83 91.4001 84C91.2001 86.1 91.1001 88.3 91.1001 90.4C91.1001 90.7 91.8001 90.9 92.1001 91.2C92.0001 91.3 92.0001 91.4 91.9001 91.5C90.7001 91.5 89.5002 91.5 88.3002 91.5C88.3002 91.4 88.3002 91.3 88.2002 91.2C88.6002 91.1 88.9001 90.9 89.6001 90.7C89.6001 88.6 89.6001 86.5 89.6001 84.3C89.6001 82.8 89.3002 82.7 87.2002 82.7C88.4002 82 89.6001 81.3 90.9001 80.7C91.0001 80.8 91.0001 80.8 91.1001 80.9C91.0001 81.2 90.8002 81.5 90.7002 81.9C91.0002 82.2 91.2001 82.5 91.5001 82.9C94.4001 81 96.0001 81.1 96.9001 83.4C97.5001 82.9 98.0002 82.4 98.7002 82C100.8 80.8 102.5 81.6 102.6 84C102.7 85.8 102.6 87.5 102.6 89.3C102.6 89.8 102.6 90.3 102.6 90.8C103.1 91 103.5 91.1 103.8 91.2C103.8 91.3 103.8 91.4 103.8 91.5C102.6 91.5 101.3 91.5 100.1 91.5C101.1 91 101 90.2 101 89.4C100.9 87.5 100.9 85.6 100.8 83.8C100.7 82.5 99.9002 82.2 98.8002 82.7C97.8002 83.2 97.1001 84 97.1001 85.1C96.7001 86.9 96.8002 88.8 96.8002 90.8Z" fill="black"/>
<path d="M62.3999 91.1C63.6999 91 63.7 90.1 63.7 89.3C63.6 87.5 63.5999 85.7 63.4999 83.9C63.4999 83 63.4999 82.1 62.3999 81.7C63.7999 81.7 65.0999 81.7 66.7999 81.7C64.9999 82.4 65.2999 83.2 65.2999 86.3C66.5999 86.3 70.2999 86.3 70.2999 86.3C70.2999 86.3 70.2999 84.1 70.2999 83.6C70.3999 82.7 70.2999 81.9 68.9999 81.9C68.9999 81.8 69.0999 81.7 69.0999 81.6C70.4999 81.6 71.7999 81.6 73.2999 81.6C73.2999 81.7 73.1999 81.9 73.0999 81.9C71.8999 81.9 71.8999 82.7 71.8999 83.6C71.8999 86 71.8999 88.4 71.8999 90.8C72.4999 91 72.8 91.1 73.2 91.1C73.2 91.2 73.2 91.3 73.2 91.4C71.8 91.4 70.3999 91.4 68.8999 91.4C68.8999 91.3 68.8999 91.2 68.8999 91.1C69.2999 91 69.6999 90.9 70.2999 90.8C70.2999 89.5 70.2999 88.2 70.2999 86.9C68.5999 86.9 66.9999 86.9 65.3999 86.9C65.3999 88.2 65.3999 89.5 65.3999 90.8C65.7999 90.9 66.1999 91.1 66.5999 91.2C66.5999 91.3 66.5999 91.4 66.4999 91.5C65.1999 91.5 63.7999 91.5 62.4999 91.5C62.3999 91.3 62.3999 91.2 62.3999 91.1Z" fill="black"/>
<path d="M41.3002 88.8C40.2002 87.1 39.2001 85.6 38.1001 84.1C38.0001 84.1 37.9001 84.1 37.9001 84.2C37.9001 86.4 37.9001 88.7 37.9001 90.9C38.3001 91 38.6001 91.2 38.9001 91.3C38.9001 91.4 38.9001 91.5 38.9001 91.6C38.0001 92.1 36.9001 91.8 35.9001 91.8C35.9001 91.6 35.9001 91.4 35.9001 91.4C37.2001 91.2 37.3002 90.3 37.2002 89.2C37.1002 87.7 37.2002 86.2 37.2002 84.7C37.2002 83.3 37.0002 82 35.2002 81.6C36.9002 80.9 37.9002 81.2 38.8002 82.5C39.7002 83.9 40.6001 85.2 41.6001 86.7C42.4001 85.3 43.2002 84.1 43.8002 82.8C44.3002 81.7 44.9002 81.1 46.2002 81.2C46.7002 81.3 47.3001 81.1 48.0001 81C47.8001 81.3 47.8002 81.5 47.7002 81.5C46.2002 81.3 46.2002 82.2 46.2002 83.3C46.3002 85.4 46.4001 87.5 46.4001 89.6C46.4001 90.5 46.5001 91.1 47.6001 90.9C47.7001 90.9 47.9001 91 48.0001 91.3C46.5001 91.3 45.1001 91.3 43.6001 91.3V91.2C44.0001 91.1 44.3001 90.9 44.6001 90.9C44.6001 88.3 44.6001 85.8 44.6001 83.2C44.5001 83.2 44.3002 83.1 44.2002 83.1C43.5002 84.9 42.4002 86.8 41.3002 88.8Z" fill="black"/>
<path d="M76.0002 99.7999C76.8002 98.4999 77.6002 97.2999 78.4002 95.9999C78.5002 95.8999 78.5001 95.6999 78.6001 95.5999C80.3001 92.3999 80.3002 92.3999 78.8002 89.0999C78.0002 87.2999 77.2002 85.5999 76.4002 83.7999C76.1002 82.9999 75.8002 82.1999 74.7002 82.5999C74.5002 82.5999 74.3002 82.3999 74.0002 82.2999C74.0002 82.1999 74.0002 82.0999 74.0002 81.8999C75.1002 81.8999 76.2002 81.8999 77.3002 81.8999C77.5002 81.8999 77.7002 82.3999 77.8002 82.6999C78.7002 84.8999 79.6002 87.0999 80.5002 89.2999C80.6002 89.5999 80.9002 89.8999 81.3002 90.4999C82.1002 88.4999 82.8002 86.7999 83.5002 85.0999C83.6002 84.9999 83.5001 84.7999 83.6001 84.5999C84.2001 82.5999 84.2002 82.5999 82.5002 81.7999C83.9002 81.7999 85.4002 81.7999 86.9002 81.7999C86.8002 81.8999 86.7001 82.1999 86.6001 82.1999C85.1001 81.9999 84.9001 83.1999 84.6001 84.1999C82.8001 89.2999 80.5002 94.0999 77.7002 98.7999C77.3002 99.4999 76.5002 100.2 75.8002 100.6C75.4002 100.8 74.7002 100.6 74.2002 100.4C74.0002 100.3 73.9002 99.5999 74.0002 99.2999C74.1002 98.9999 74.4001 98.6999 74.6001 98.3999C74.9001 98.6999 75.2002 98.8999 75.5002 99.1999C75.6002 99.2999 75.6002 99.4999 75.7002 99.5999C75.7002 99.5999 75.9002 99.6999 76.0002 99.7999Z" fill="black"/>
<path d="M51.1001 82.3C50.4001 82.2 49.7001 82.1 49.1001 82.1C49.1001 82 49.1001 81.8 49.1001 81.7C50.7001 81.7 52.3001 81.7 53.9001 81.7C52.7001 82 52.8002 82.9 52.8002 83.9C52.8002 85.4 52.7002 86.9 52.7002 88.4C52.7002 90.7 53.9001 91.3 55.9001 90.4C57.3001 89.7 57.9002 88.8 57.8002 87.2C57.7002 86 57.8002 84.8 57.8002 83.6C57.8002 83.2 57.6001 82.8 57.6001 82.5C57.1001 82.3 56.7002 82.2 56.3002 82C56.3002 81.9 56.3001 81.8 56.4001 81.7C57.9001 81.7 59.4001 81.7 61.0001 81.7C61.0001 81.8 61.0001 81.9 61.1001 82C60.6001 82.1 60.1001 82.3 59.5001 82.5C59.5001 84.5 59.4001 86.5 59.5001 88.6C59.5001 89.8 60.0002 90.1 61.8002 90.2C60.9002 91.7 59.5001 91.7 58.6001 91.1C58.4001 90.8 58.1002 90.4 57.8002 90.1C56.9002 90.5 56.1002 91 55.3002 91.3C53.1002 92 51.0002 90.9 51.2002 88.3C51.3002 86.7 51.3001 85.2 51.4001 83.6C51.2001 83.1 51.2001 82.7 51.1001 82.3Z" fill="black"/>
</g>
<defs>
<filter id="filter0_ddd" x="0.297852" y="0.298584" width="138.603" height="140.504" filterUnits="userSpaceOnUse" color-interpolation-filters="sRGB">
<feFlood flood-opacity="0" result="BackgroundImageFix"/>
<feColorMatrix in="SourceAlpha" type="matrix" values="0 0 0 0 0 0 0 0 0 0 0 0 0 0 0 0 0 0 127 0"/>
<feOffset dy="5"/>
<feGaussianBlur stdDeviation="3"/>
<feColorMatrix type="matrix" values="0 0 0 0 0 0 0 0 0 0 0 0 0 0 0 0 0 0 0.2 0"/>
<feBlend mode="normal" in2="BackgroundImageFix" result="effect1_dropShadow"/>
<feColorMatrix in="SourceAlpha" type="matrix" values="0 0 0 0 0 0 0 0 0 0 0 0 0 0 0 0 0 0 127 0"/>
<feOffset dy="3"/>
<feGaussianBlur stdDeviation="8"/>
<feColorMatrix type="matrix" values="0 0 0 0 0 0 0 0 0 0 0 0 0 0 0 0 0 0 0.12 0"/>
<feBlend mode="normal" in2="effect1_dropShadow" result="effect2_dropShadow"/>
<feColorMatrix in="SourceAlpha" type="matrix" values="0 0 0 0 0 0 0 0 0 0 0 0 0 0 0 0 0 0 127 0"/>
<feOffset dy="9"/>
<feGaussianBlur stdDeviation="6"/>
<feColorMatrix type="matrix" values="0 0 0 0 0 0 0 0 0 0 0 0 0 0 0 0 0 0 0.14 0"/>
<feBlend mode="normal" in2="effect2_dropShadow" result="effect3_dropShadow"/>
<feBlend mode="normal" in="SourceGraphic" in2="effect3_dropShadow" result="shape"/>
</filter>
</defs>
</svg>
