<svg width="274" height="57" viewBox="0 0 274 57" fill="none" xmlns="http://www.w3.org/2000/svg">
<g clip-path="url(#clip0)">
<path d="M48.3661 1.48497C48.3661 6.62525 48.3661 11.7655 48.3661 17.2485C47.7944 16.7916 47.1084 16.4489 46.8797 15.8778C44.0212 6.62525 35.903 1.71343 26.4127 3.42685C14.4069 5.48297 8.34684 12.5651 7.88947 25.2445C7.66079 32.5551 8.57552 39.4088 13.0348 45.8056C20.467 56.4289 40.4766 58.0281 48.4805 42.9499C49.2808 41.4649 50.1956 40.0942 50.996 38.7234C51.339 38.8377 51.7963 39.0661 52.1394 39.1804C52.025 40.0942 52.2537 41.008 51.9107 41.8076C48.2518 49.5751 42.3061 56.0862 32.7014 56.7715C21.7247 57.5711 12.1201 54.8297 5.14529 45.5772C-2.51554 35.5251 -1.48647 19.5331 6.51738 10.0521C15.3216 -0.342685 29.3855 -2.96994 41.3913 3.31263C43.9068 4.68337 46.308 5.5972 47.1084 1.14229C47.5657 1.25651 48.0231 1.37074 48.3661 1.48497Z" fill="white"/>
<path d="M156.99 55.8577C161.106 55.515 161.106 52.8878 160.992 50.1463C160.763 44.5491 160.649 38.9519 160.42 33.2405C160.306 30.499 160.534 27.6433 156.875 26.2725C161.106 26.2725 165.451 26.2725 170.711 26.2725C164.994 28.3287 166.137 30.8417 166.137 40.5511C170.368 40.5511 181.802 40.5511 181.802 40.5511C181.802 40.5511 181.802 33.4689 181.916 31.984C182.145 29.014 181.802 26.7295 177.8 26.7295C177.914 26.3868 178.029 26.1583 178.257 25.8156C182.602 25.8156 186.833 25.8156 191.292 25.8156C191.178 26.0441 190.949 26.8437 190.72 26.8437C187.061 26.9579 186.947 29.3567 187.061 32.0982C187.176 39.6373 187.061 47.0621 187.061 54.6012C188.891 55.0581 190.034 55.4008 191.178 55.7435C191.178 56.0862 191.178 56.3146 191.063 56.6573C186.604 56.6573 182.145 56.6573 177.8 56.6573C177.8 56.3146 177.686 56.0862 177.686 55.7435C178.943 55.515 180.087 55.2866 181.916 54.8297C181.916 50.9459 181.916 46.8337 181.916 42.6072C176.656 42.6072 171.74 42.6072 166.48 42.6072C166.48 46.7194 166.48 50.7174 166.48 54.7154C167.624 55.1723 168.881 55.515 170.139 55.9719C170.025 56.2004 170.025 56.5431 169.91 56.7715C165.794 56.7715 161.563 56.7715 157.447 56.7715C157.333 56.6573 157.104 56.2004 156.99 55.8577Z" fill="white"/>
<path d="M201.354 28.6713C198.953 28.4429 197.009 28.1002 194.951 27.8717C194.951 27.4148 195.065 27.0721 195.065 26.6152C200.096 26.6152 205.013 26.6152 210.044 26.6152C206.271 27.6433 206.614 30.499 206.614 33.4689C206.614 38.1523 206.156 42.7214 206.156 47.4048C206.156 54.487 209.93 56.6573 216.218 53.5732C220.449 51.517 222.507 48.4329 222.164 43.6353C221.935 39.8657 222.164 35.982 222.05 32.2124C222.05 31.0701 221.592 29.8136 221.364 28.8998C219.877 28.3287 218.505 27.8717 217.247 27.4148C217.362 27.1864 217.362 26.8437 217.476 26.6152C222.278 26.6152 226.966 26.6152 231.769 26.6152C231.883 26.9579 231.883 27.1864 231.997 27.5291C230.397 27.986 228.91 28.4429 226.852 29.014C226.852 35.1824 226.623 41.6934 226.966 48.0902C227.081 51.7455 228.682 52.7736 234.17 53.1162C231.311 57.7996 226.966 57.7996 223.994 55.9719C223.193 54.9439 222.393 53.8016 221.592 52.7736C218.848 54.1443 216.447 55.6293 213.817 56.5431C206.957 58.7134 200.211 55.1723 201.011 47.1764C201.468 42.2645 201.468 37.3527 201.583 32.5551C201.583 31.0701 201.468 29.9279 201.354 28.6713Z" fill="white"/>
<path d="M69.1763 31.0701C66.6608 38.1523 64.4883 44.3206 62.2015 50.489C61.5155 52.3166 61.0581 54.3727 59.8004 55.7435C59 56.6573 56.9418 57 55.5697 56.8858C54.998 56.8858 54.655 54.9439 54.0833 53.9158C55.1124 53.5731 56.1414 53.002 57.1705 52.8878C57.8566 52.7735 58.5426 53.2305 59.343 53.3447C62.3159 45.006 65.1744 36.8958 68.0329 28.5571C67.0038 27.8717 65.9748 27.3006 64.717 26.501C70.5484 24.4449 72.4922 25.1303 74.436 29.8136C77.6375 37.3527 80.8391 44.8918 84.1549 52.3166C84.841 53.6874 86.4418 54.6012 87.5852 55.7435C84.6123 57.7996 80.3817 56.8858 78.8953 53.3447C76.2654 47.1763 73.7499 40.8938 71.1201 34.7254C70.6627 33.9258 70.2054 33.012 69.1763 31.0701Z" fill="white"/>
<path d="M146.814 41.3507C145.213 40.7795 143.498 40.0942 141.554 39.2946C142.469 38.8377 143.04 38.495 143.612 38.2665C146.585 37.2385 148.872 35.6393 148.415 31.984C148.071 28.7856 145.556 25.1302 142.469 24.9018C137.323 24.5591 132.178 24.7876 126.575 24.7876C128.062 26.8437 129.891 28.1002 129.891 29.4709C130.12 36.7816 130.006 44.2064 130.006 51.517C130.006 53.3447 129.663 54.9439 127.261 54.9439C126.804 54.9439 126.232 55.515 125.775 55.8577C125.889 56.2004 125.889 56.5431 126.004 56.8858C132.292 56.5431 138.581 56.3146 144.87 55.7435C148.414 55.4008 150.816 52.5451 150.93 48.6613C151.159 45.5771 150.358 42.6072 146.814 41.3507ZM135.265 27.3006C135.723 27.0721 136.18 26.7294 136.523 26.501C138.353 27.6433 140.639 28.5571 142.126 30.0421C144.641 32.5551 143.498 36.7816 140.182 38.1523C137.323 39.4088 135.38 38.2665 135.265 35.1824C135.151 32.5551 135.265 29.9278 135.265 27.3006ZM145.099 49.4609C144.298 53.002 140.982 54.7154 135.837 54.1443C135.608 50.6032 135.265 46.9479 135.151 43.2926C135.151 40.2084 136.637 39.4088 139.725 40.4369C143.841 42.0361 146.013 45.6914 145.099 49.4609Z" fill="white"/>
<path d="M104.736 24.5591C98.1043 23.3026 89.0714 32.3266 89.1857 39.523C89.4144 50.7174 95.1314 56.3146 104.05 57C113.769 57.6854 120.972 50.3747 121.087 40.5511C121.201 32.4409 115.027 24.4449 104.736 24.5591ZM114.455 47.4048C113.426 50.8317 111.482 53.8016 107.709 54.487C103.707 55.1723 100.391 53.8016 97.8756 50.3747C93.0733 43.8637 93.8737 34.1543 99.362 29.1283C103.364 25.4729 110.11 26.8437 112.511 31.4128C114.112 34.497 115.027 37.9238 115.941 40.4369C115.37 43.4068 115.141 45.5771 114.455 47.4048Z" fill="white"/>
<path d="M257.038 24.7876C260.24 24.7876 263.098 24.7876 265.957 24.7876C258.982 26.9579 257.267 34.0401 251.893 38.8377C257.267 39.523 258.639 43.2926 260.24 46.9479C262.984 53.1162 265.614 54.0301 272.017 51.8597C272.36 51.7455 272.703 51.9739 273.503 52.0882C271.674 55.6292 268.358 56.2004 265.271 56.7715C262.069 57.3427 258.982 56.5431 257.267 53.5731C255.552 50.6032 254.408 47.4048 252.808 44.3206C252.236 43.1783 251.207 42.2645 250.406 41.2365C250.063 41.3507 249.72 41.4649 249.492 41.6934C249.492 45.8056 249.492 49.8036 249.492 54.03C250.406 54.3727 251.55 54.7154 252.693 55.0581C251.321 57.1142 241.945 56.8858 238.972 54.6012C240.573 54.3727 241.831 54.1443 243.432 53.9158C243.432 44.8918 243.432 35.7535 243.432 26.501C242.631 26.2725 241.602 26.0441 240.687 25.7014C240.687 25.4729 240.687 25.1303 240.802 24.9018C244.461 24.9018 248.234 24.9018 252.35 24.9018C251.55 25.4729 249.377 27.1864 249.377 27.1864L249.606 39.6373C249.606 39.6373 255.78 31.7555 258.296 27.7575C258.41 27.1864 257.496 25.9299 257.038 24.7876Z" fill="white"/>
</g>
<defs>
<clipPath id="clip0">
<rect width="273.389" height="57" fill="white"/>
</clipPath>
</defs>
</svg>
