<svg width="41" height="43" viewBox="0 0 41 43" fill="none" xmlns="http://www.w3.org/2000/svg">
<g filter="url(#filter0_ddd)">
<path d="M3.13281 38.3155L5.57959 29.1888C4.07515 26.5184 3.27334 23.4846 3.2816 20.3831C3.2816 10.6648 11.0187 2.76343 20.5248 2.76343C25.1373 2.76343 29.4687 4.59723 32.7173 7.92681C35.9742 11.2564 37.7679 15.6846 37.7596 20.3916C37.7596 30.1099 30.0225 38.0113 20.5165 38.0113H20.5082C17.6233 38.0113 14.7881 37.2676 12.2669 35.8648L3.13281 38.3155ZM12.6967 32.6705L13.2175 32.9916C15.4163 34.3268 17.9375 35.0282 20.5082 35.0367H20.5165C28.4106 35.0367 34.8417 28.4705 34.8417 20.3916C34.8417 16.4789 33.3538 12.8029 30.6508 10.031C27.9477 7.2592 24.3437 5.73808 20.5165 5.73808C12.6141 5.73808 6.18301 12.3043 6.18301 20.3831C6.18301 23.1465 6.93523 25.8423 8.37354 28.1747L8.71245 28.7324L7.27414 34.124L12.6967 32.6705Z" fill="white"/>
<path d="M3.72803 37.6986L6.09214 28.8845C4.6373 26.307 3.86855 23.3746 3.86855 20.3831C3.86855 11.0028 11.3411 3.37183 20.5083 3.37183C24.9637 3.37183 29.1381 5.14647 32.2792 8.35774C35.4204 11.569 37.148 15.8451 37.148 20.3915C37.148 29.7718 29.6754 37.4028 20.5083 37.4028H20.5C17.7143 37.4028 14.9782 36.6845 12.548 35.3324L3.72803 37.6986Z" fill="url(#paint0_linear)"/>
<path d="M3.13281 38.3155L5.57959 29.1888C4.07515 26.5184 3.27334 23.4846 3.2816 20.3831C3.2816 10.6648 11.0187 2.76343 20.5248 2.76343C25.1373 2.76343 29.4687 4.59723 32.7173 7.92681C35.9742 11.2564 37.7679 15.6846 37.7596 20.3916C37.7596 30.1099 30.0225 38.0113 20.5165 38.0113H20.5082C17.6233 38.0113 14.7881 37.2676 12.2669 35.8648L3.13281 38.3155ZM12.6967 32.6705L13.2175 32.9916C15.4163 34.3268 17.9375 35.0282 20.5082 35.0367H20.5165C28.4106 35.0367 34.8417 28.4705 34.8417 20.3916C34.8417 16.4789 33.3538 12.8029 30.6508 10.031C27.9477 7.2592 24.3437 5.73808 20.5165 5.73808C12.6141 5.73808 6.18301 12.3043 6.18301 20.3831C6.18301 23.1465 6.93523 25.8423 8.37354 28.1747L8.71245 28.7324L7.27414 34.124L12.6967 32.6705Z" fill="url(#paint1_linear)"/>
<path fill-rule="evenodd" clip-rule="evenodd" d="M16.2099 13.0056C15.8875 12.2704 15.5486 12.2535 15.2427 12.245C14.9948 12.2366 14.7054 12.2366 14.4161 12.2366C14.1268 12.2366 13.6639 12.3464 13.2671 12.7859C12.8704 13.2253 11.7627 14.2901 11.7627 16.4619C11.7627 18.6253 13.3085 20.7211 13.5234 21.0168C13.7383 21.3126 16.5075 25.9013 20.8802 27.6675C24.5173 29.138 25.2613 28.8422 26.0466 28.7661C26.8401 28.6901 28.5925 27.7013 28.9562 26.6704C29.3117 25.6394 29.3117 24.7605 29.2042 24.5746C29.0968 24.3887 28.8075 24.2788 28.3776 24.0591C27.9478 23.8394 25.8316 22.7746 25.4349 22.6225C25.0381 22.4788 24.7488 22.4028 24.4677 22.8422C24.1784 23.2816 23.3518 24.2704 23.1038 24.5661C22.8558 24.8619 22.5996 24.8957 22.1698 24.676C21.7399 24.4563 20.3512 23.9915 18.7062 22.4873C17.425 21.3211 16.5571 19.876 16.3091 19.4366C16.0611 18.9971 16.2843 18.7605 16.4992 18.5408C16.6893 18.3464 16.929 18.0253 17.1439 17.7718C17.3589 17.5183 17.4333 17.3323 17.5738 17.0366C17.7143 16.7408 17.6482 16.4873 17.5407 16.2676C17.425 16.0563 16.5901 13.876 16.2099 13.0056Z" fill="white"/>
</g>
<defs>
<filter id="filter0_ddd" x="-3" y="-2" width="47" height="48" filterUnits="userSpaceOnUse" color-interpolation-filters="sRGB">
<feFlood flood-opacity="0" result="BackgroundImageFix"/>
<feColorMatrix in="SourceAlpha" type="matrix" values="0 0 0 0 0 0 0 0 0 0 0 0 0 0 0 0 0 0 127 0"/>
<feOffset dy="1"/>
<feGaussianBlur stdDeviation="1.5"/>
<feColorMatrix type="matrix" values="0 0 0 0 0 0 0 0 0 0 0 0 0 0 0 0 0 0 0.2 0"/>
<feBlend mode="normal" in2="BackgroundImageFix" result="effect1_dropShadow"/>
<feColorMatrix in="SourceAlpha" type="matrix" values="0 0 0 0 0 0 0 0 0 0 0 0 0 0 0 0 0 0 127 0"/>
<feOffset dy="2"/>
<feGaussianBlur stdDeviation="1"/>
<feColorMatrix type="matrix" values="0 0 0 0 0 0 0 0 0 0 0 0 0 0 0 0 0 0 0.12 0"/>
<feBlend mode="normal" in2="effect1_dropShadow" result="effect2_dropShadow"/>
<feColorMatrix in="SourceAlpha" type="matrix" values="0 0 0 0 0 0 0 0 0 0 0 0 0 0 0 0 0 0 127 0"/>
<feOffset/>
<feGaussianBlur stdDeviation="1"/>
<feColorMatrix type="matrix" values="0 0 0 0 0 0 0 0 0 0 0 0 0 0 0 0 0 0 0.14 0"/>
<feBlend mode="normal" in2="effect2_dropShadow" result="effect3_dropShadow"/>
<feBlend mode="normal" in="SourceGraphic" in2="effect3_dropShadow" result="shape"/>
</filter>
<linearGradient id="paint0_linear" x1="20.4435" y1="37.6979" x2="20.4435" y2="3.37169" gradientUnits="userSpaceOnUse">
<stop stop-color="#20B038"/>
<stop offset="1" stop-color="#60D66A"/>
</linearGradient>
<linearGradient id="paint1_linear" x1="20.4436" y1="38.3132" x2="20.4436" y2="2.75603" gradientUnits="userSpaceOnUse">
<stop stop-color="#F9F9F9"/>
<stop offset="1" stop-color="white"/>
</linearGradient>
</defs>
</svg>
