<svg width="24" height="24" viewBox="0 0 24 24" fill="none" xmlns="http://www.w3.org/2000/svg">
<path d="M20.9812 8.05094C20.9623 8.01834 20.9623 8.00204 20.9247 7.96943C20.9059 7.93683 20.8682 7.92053 20.8117 7.90423L16.5 5.96434L12.1318 4.02445C12.0565 3.99185 11.9623 3.99185 11.887 4.02445L7.5 5.96434L3.16946 7.90423C3.11297 7.92053 3.05649 7.96943 3.03766 8.01834C3.01883 8.05094 3.01883 8.06724 3 8.09985V8.11615V15.8757C3 15.9572 3.05649 16.0387 3.15063 16.0876L11.8682 19.9511C11.8682 19.9511 11.887 19.9511 11.887 19.9674C11.887 19.9674 11.9059 19.9674 11.9059 19.9837C11.9435 20 11.9623 20 12 20C12.0377 20 12.0565 20 12.0941 19.9837C12.0941 19.9837 12.113 19.9837 12.113 19.9674C12.113 19.9674 12.1318 19.9674 12.1318 19.9511L20.8494 16.0876C20.9435 16.0387 21 15.9572 21 15.8757V8.11615C21 8.08355 21 8.06724 20.9812 8.05094ZM12 4.4972L16.2364 6.38818L20.1339 8.11615L17.4602 9.30616L9.32636 5.68721L12 4.4972ZM15.5397 10.6755L16.4812 10.2517L17.1025 9.97453V10.9852L16.5941 10.7896C16.4812 10.7407 16.3494 10.7733 16.2741 10.8548L15.5586 11.621V10.6755H15.5397ZM7.7636 6.38818L8.72385 5.96434L16.8577 9.56699L15.2761 10.2843L7.14226 6.66531L7.7636 6.38818ZM11.7364 19.3805L3.54603 15.729L3.54603 8.50739L7.51883 10.268L11.7364 12.1426V19.3805ZM12 11.7351L7.7636 9.84412L3.86611 8.11615L6.53975 6.92613L14.6736 10.5451L12 11.7351ZM20.454 15.7453L12.2636 19.3642V12.1426L15.0126 10.92V12.2894C15.0126 12.4198 15.1255 12.5176 15.2761 12.5176C15.3703 12.5176 15.4456 12.485 15.5021 12.4198L16.5565 11.295L17.272 11.5558C17.4038 11.6047 17.5732 11.5558 17.6297 11.4254C17.6485 11.4091 17.6485 11.3765 17.6485 11.3439V9.74631L20.454 8.50739V15.7453Z" fill="black" stroke="black" stroke-width="0.4"/>
</svg>
