<svg width="19" height="19" viewBox="0 0 19 19" fill="none" xmlns="http://www.w3.org/2000/svg">
<path d="M16 19H2C0.9 19 0 18.1 0 17V3C0 1.9 0.9 1 2 1H8C8.6 1 9 1.4 9 2C9 2.6 8.6 3 8 3H2V17H16V10.8C16 10.2 16.4 9.8 17 9.8C17.6 9.8 18 10.2 18 10.8V17C18 18.1 17.1 19 16 19Z" fill="#B54C3E"/>
<path d="M12.3 0C11.7 0 11.3 0.4 11.3 1C11.3 1.6 11.7 2 12.3 2H15.5L7.99995 9.6C7.59995 10 7.59995 10.6 7.99995 11C8.19995 11.2 8.49995 11.3 8.69995 11.3C8.89995 11.3 9.19995 11.2 9.39995 11L17 3.4V6.6C17 7.2 17.4 7.6 18 7.6C18.6 7.6 19 7.2 19 6.6V0H12.3Z" fill="#B54C3E"/>
</svg>
