<svg width="181" height="321" viewBox="0 0 181 321" fill="none" xmlns="http://www.w3.org/2000/svg">
<path d="M32.22 240.06V244.026C32.22 246.458 31.638 248.309 30.474 249.578C29.31 250.847 27.5641 251.534 25.2362 251.534C22.9083 251.534 21.2152 250.9 19.9983 249.578C18.8344 248.309 18.2524 246.405 18.2524 244.026V228.533C18.2524 226.101 18.8344 224.25 19.9983 222.981C21.1623 221.712 22.9083 221.025 25.2362 221.025C27.5641 221.025 29.2571 221.659 30.474 222.981C31.638 224.25 32.22 226.154 32.22 228.533V231.441H27.7758V228.269C27.7758 227.211 27.5641 226.418 27.1408 225.995C26.7176 225.572 26.1356 225.361 25.3949 225.361C24.6542 225.361 24.0722 225.572 23.649 225.995C23.2257 226.418 23.0141 227.211 23.0141 228.269V244.396C23.0141 245.454 23.2257 246.247 23.649 246.67C24.0722 247.093 24.6542 247.304 25.3949 247.304C26.1356 247.304 26.7176 247.093 27.1408 246.67C27.5641 246.247 27.7758 245.506 27.7758 244.396V240.113H32.22V240.06Z" fill="#656553"/>
<path d="M43.2252 251.164H38.4106V221.341H42.5903V239.214L47.4049 221.341H53.2776V251.164H49.045V229.537L43.2252 251.164Z" fill="#656553"/>
<path d="M73.4348 240.06V244.026C73.4348 246.458 72.8528 248.309 71.6889 249.578C70.5249 250.847 68.7789 251.534 66.451 251.534C64.1231 251.534 62.4301 250.9 61.2132 249.578C60.0492 248.309 59.4673 246.405 59.4673 244.026V228.533C59.4673 226.101 60.0492 224.25 61.2132 222.981C62.3771 221.712 64.1231 221.024 66.451 221.024C68.7789 221.024 70.472 221.659 71.6889 222.981C72.8528 224.25 73.4348 226.153 73.4348 228.533V231.441H68.9906V228.269C68.9906 227.211 68.7789 226.418 68.3557 225.995C67.9324 225.572 67.3505 225.36 66.6098 225.36C65.8691 225.36 65.2871 225.572 64.8638 225.995C64.4405 226.418 64.2289 227.211 64.2289 228.269V244.396C64.2289 245.453 64.4405 246.247 64.8638 246.67C65.2871 247.093 65.8691 247.304 66.6098 247.304C67.3505 247.304 67.9324 247.093 68.3557 246.67C68.7789 246.247 68.9906 245.506 68.9906 244.396V240.113H73.4348V240.06Z" fill="#656553"/>
<path d="M77.5082 221.341H92.005V225.624H87.0845V251.217H82.3757V225.624H77.4553V221.341H77.5082Z" fill="#656553"/>
<path d="M101.158 233.873H107.613V238.156H101.158V246.881H109.253V251.164H96.4495V221.341H109.253V225.624H101.158V233.873Z" fill="#656553"/>
<path d="M125.231 242.492L128.405 221.288H134.913V251.111H130.469V229.696L127.241 251.111H122.797L119.305 230.013V251.111H115.231V221.288H121.739L125.231 242.492Z" fill="#656553"/>
<path d="M156.711 251.164H152.002L151.209 245.77H145.442L144.648 251.164H140.363L145.124 221.341H152.002L156.711 251.164ZM145.971 241.699H150.468L148.193 226.629L145.971 241.699Z" fill="#656553"/>
<path d="M5.66136 294.628H11.005V269.036H15.7666V294.628H18.1475V302.296H13.3858V298.911H0.952637V269.089H5.66136V294.628Z" fill="#656553"/>
<path d="M27.7232 281.62H34.1778V285.903H27.7232V294.628H35.8179V298.911H23.0144V269.089H35.8179V273.372H27.7232V281.62Z" fill="#656553"/>
<path d="M46.5054 298.911H41.7966V269.089H46.5054V281.885H51.849V269.089H56.6106V298.911H51.849V286.115H46.5054V298.911Z" fill="#656553"/>
<path d="M67.8801 298.911H63.1714V269.089H67.8801V281.885H73.2238V269.089H77.9855V298.911H73.2238V286.115H67.8801V298.911Z" fill="#656553"/>
<path d="M84.1758 276.227C84.1758 273.795 84.8107 271.944 86.0275 270.675C87.2444 269.406 88.9903 268.719 91.3182 268.719C93.6461 268.719 95.3921 269.354 96.6089 270.675C97.8258 271.944 98.4607 273.848 98.4607 276.227V291.72C98.4607 294.153 97.8258 296.003 96.6089 297.272C95.3921 298.541 93.6461 299.229 91.3182 299.229C88.9903 299.229 87.2444 298.594 86.0275 297.272C84.8107 296.003 84.1758 294.1 84.1758 291.72V276.227ZM88.8845 292.038C88.8845 293.095 89.0961 293.888 89.5194 294.311C89.9426 294.734 90.5246 294.946 91.2653 294.946C92.006 294.946 92.588 294.734 93.0112 294.311C93.4345 293.888 93.6461 293.095 93.6461 292.038V275.91C93.6461 274.853 93.4345 274.06 93.0112 273.637C92.588 273.214 92.006 273.002 91.2653 273.002C90.5246 273.002 89.9426 273.214 89.5194 273.637C89.0961 274.06 88.8845 274.853 88.8845 275.91V292.038Z" fill="#656553"/>
<path d="M118.142 287.755V291.72C118.142 294.153 117.56 296.003 116.396 297.272C115.232 298.541 113.486 299.229 111.158 299.229C108.83 299.229 107.137 298.594 105.92 297.272C104.756 296.003 104.174 294.1 104.174 291.72V276.227C104.174 273.795 104.756 271.944 105.92 270.675C107.084 269.406 108.83 268.719 111.158 268.719C113.486 268.719 115.179 269.354 116.396 270.675C117.56 271.944 118.142 273.848 118.142 276.227V279.136H113.698V275.963C113.698 274.906 113.486 274.112 113.063 273.689C112.639 273.266 112.058 273.055 111.317 273.055C110.576 273.055 109.994 273.266 109.571 273.689C109.148 274.112 108.936 274.906 108.936 275.963V292.09C108.936 293.148 109.148 293.941 109.571 294.364C109.994 294.787 110.576 294.999 111.317 294.999C112.058 294.999 112.639 294.787 113.063 294.364C113.486 293.941 113.698 293.201 113.698 292.09V287.807H118.142V287.755Z" fill="#656553"/>
<path d="M122.216 269.088H136.713V273.371H131.792V298.964H127.083V273.371H122.163V269.088H122.216Z" fill="#656553"/>
<path d="M145.865 281.62H152.32V285.903H145.865V294.628H153.96V298.911H141.156V269.088H153.96V273.371H145.865V281.62Z" fill="#656553"/>
<path d="M163.906 298.911H159.092V269.089H163.271V286.961L168.086 269.089H173.959V298.911H169.726V277.285L163.906 298.911ZM171.737 262.85V266.339H161.42V262.85H171.737Z" fill="#656553"/>
<path d="M108.566 318.475H71.4775V320.802H108.566V318.475Z" fill="#57959C"/>
<path d="M36.5588 147.473C35.0245 147.208 32.5379 146.098 31.0565 143.983C29.8396 142.291 28.0937 138.642 29.9454 133.725L33.1198 134.729C31.7972 138.272 33.2256 140.81 34.0192 142.026C35.0245 143.507 36.7704 144.406 38.4106 144.3C40.1036 144.194 41.6908 143.454 41.7966 141.022C41.9025 138.959 39.7333 137.796 37.2995 138.959L36.5588 136.527C39.0984 135.522 41.0559 135.575 42.6431 136.791C43.8071 137.69 44.6536 138.695 44.7594 140.704C45.1298 146.574 39.892 148.001 36.5588 147.473Z" fill="#787762"/>
<path d="M89.6779 181.895C89.3604 181.472 88.3552 180.415 88.3552 180.415C88.3023 180.362 84.8632 175.761 74.758 171.161L73.8057 170.738L73.8586 146.574L75.8161 146.944C76.0277 146.997 81.4243 148.107 87.297 152.972L85.1807 155.457C82.0063 152.813 78.9905 151.385 77.1388 150.698L77.0859 168.57C82.3766 171.055 86.0273 173.964 88.3023 176.607V157.73L88.3552 157.307C94.4395 148.847 103.116 146.997 103.487 146.891L105.444 146.468L105.497 170.685L104.545 171.108C100.788 172.8 95.5505 176.396 91.318 180.097C91.318 180.203 90.3127 181.155 89.6779 181.895ZM91.0534 158.841V176.66C93.5401 173.699 98.9895 170.315 102.217 168.676L102.164 150.751C99.6244 151.755 94.704 154.029 91.0534 158.841Z" fill="#57959C"/>
<path d="M90.8945 108.714H87.9846V122.144H90.8945V108.714Z" fill="#57959C"/>
<path d="M90.8945 62.077H87.9846V75.5077H90.8945V62.077Z" fill="#57959C"/>
<path d="M72.8535 90.6301H59.415V93.5384H72.8535V90.6301Z" fill="#57959C"/>
<path d="M119.517 90.6301H106.079V93.5384H119.517V90.6301Z" fill="#57959C"/>
<path d="M179.726 90.2077C179.303 89.7847 169.41 79.4737 160.468 78.5219C155.442 77.9932 152.268 78.7334 149.887 81.0071L149.728 81.1129C148.776 82.0118 147.4 83.9154 147.241 86.5063H150.469C150.575 85.1844 151.209 84.2326 152.003 83.4923L152.162 83.3337C153.749 81.8003 156.077 81.2186 160.098 81.6417C164.86 82.1176 171.156 85.9247 174.806 88.78C175.018 88.9386 175.97 89.9962 176.711 89.9962H141.263V92.7986H147.189C147.294 95.2838 147.929 100.096 150.892 102.528C152.797 104.061 154.701 104.59 156.923 104.59C157.982 104.59 159.198 104.484 160.468 104.273C169.198 102.951 179.197 93.0101 179.621 92.5871L180.785 91.4238L179.726 90.2077ZM160.045 101.1C155.918 101.735 154.49 101.153 153.008 99.9369C151.209 98.5093 150.628 94.8608 150.522 92.7986H152.109H158.035L163.696 100.201C162.373 100.571 161.209 100.942 160.045 101.1ZM174.806 93.7504C172.796 95.2838 169.886 97.5046 166.923 98.8794L161.421 92.7986H176.605C176.023 92.7457 174.965 93.5918 174.806 93.7504Z" fill="#57959C"/>
<path d="M130.68 41.6666L133.061 43.9404L134.225 42.7242L144.754 31.7258C144.913 31.4085 145.283 30.351 144.542 29.6636C143.801 28.9234 142.69 29.2935 142.373 29.4521L130.68 41.6666Z" fill="#787762"/>
<path d="M136.13 47.2189L138.511 49.4926L151.896 35.7447C152.055 35.4275 152.425 34.3699 151.685 33.6825C150.944 32.9423 149.833 33.3124 149.515 33.471L136.13 47.2189Z" fill="#787762"/>
<path d="M126.077 63.452C128.881 66.2545 133.22 66.7304 136.765 63.029L153.907 45.1567C154.065 44.8394 154.436 43.7819 153.695 43.0945C152.954 42.4071 151.896 42.7244 151.526 42.883L142.108 52.6652L142.055 52.7181L134.172 60.9668C132.003 63.1876 129.463 62.9233 127.929 61.4427L126.077 63.452Z" fill="#787762"/>
<path d="M130.839 48.9105C130.522 46.5839 129.411 44.3102 126.818 42.9883C126.289 42.7239 125.125 42.5653 125.125 42.5653C126.078 42.1952 128.088 39.4985 128.511 38.5996C130.257 35.0568 129.675 34.1579 129.517 33.5763C129.305 32.9418 128.194 31.7785 127.294 32.7303C127.294 32.7303 125.443 37.6478 122.004 41.4549C121.686 41.8251 121.475 41.9837 121.157 42.3538C119.2 44.3103 117.295 47.2714 116.607 50.1796C115.972 52.8234 117.348 55.3086 118.776 56.842C119.2 57.265 119.993 57.9524 121.051 58.2168L51.2137 127.908C48.0393 127.591 36.6113 126.956 30.5798 132.984C23.649 139.911 26.2414 153.236 26.3473 153.765L26.5589 154.822L27.617 155.034C27.8816 155.087 30.6328 155.668 34.2305 155.668C38.6218 155.668 44.2829 154.769 48.1451 150.962C52.2719 146.838 52.5893 140.493 52.3777 135.417L49.944 135.522C50.1027 139.964 49.0445 145.463 45.8172 148.689C42.1137 152.39 35.7648 152.707 31.7967 152.39C30.7915 152.337 28.9398 152.496 28.5165 152.919C28.9398 152.496 29.1514 150.804 29.0456 149.852C28.781 145.833 29.0456 139.065 32.8549 135.258C38.5689 129.547 51.4254 131.186 51.5312 131.239L52.3248 131.345C52.3248 131.345 121.316 62.4998 122.374 61.4423C123.221 60.5962 125.019 58.7984 125.019 58.7984C125.019 58.7984 123.221 57.4236 122.692 56.9478C120.946 55.2028 119.2 53.405 119.623 51.4486C120.152 49.122 121.686 47.007 123.379 45.3149C126.924 45.8437 128.3 48.1174 128.141 50.3911C128.088 51.1842 127.559 52.6648 126.342 53.6694L128.247 55.4672C129.887 53.7752 131.21 51.6601 130.839 48.9105Z" fill="#787762"/>
<path d="M50.4199 55.5732C50.4199 55.5732 118.776 124.577 128.67 134.359C128.67 134.359 123.802 136.21 123.644 141.075C123.644 141.127 123.644 141.18 123.644 141.233C123.591 145.992 127.294 151.491 135.707 152.602C143.59 153.606 153.325 154.505 153.431 154.505L155.282 154.664L155.176 152.76C155.176 152.655 154.542 142.872 153.695 134.994C153.113 129.442 150.415 125.106 146.394 123.52C143.484 122.356 140.362 122.779 138.14 124.736C135.336 127.115 134.119 131.028 135.23 135.84C136.341 140.652 137.77 143.56 137.77 143.56L139.675 142.767C139.675 142.767 138.616 139.647 137.77 135.523C137.029 131.98 138.087 128.966 139.939 127.38C141.262 126.269 143.114 126.005 144.912 126.692C147.769 127.855 149.78 131.134 150.203 135.47C150.626 139.647 151.261 144.089 151.526 147.578C151.632 148.9 152.214 151.227 152.637 151.861C152.055 151.386 149.621 150.857 148.246 150.645C144.225 150.011 140.31 149.588 136.236 149.006C129.781 148.16 126.977 144.353 126.977 140.916C126.977 140.863 126.977 140.863 126.977 140.81C127.03 138.642 129.199 136.421 131.633 136.369C131.051 133.672 131.157 132.138 131.157 132.138L52.5892 53.2994L51.3194 53.6696L50.4199 55.5732Z" fill="#787762"/>
<path d="M49.5207 45.2625C49.891 45.7384 50.2614 46.32 50.5259 47.0603C52.3248 51.6076 51.055 54.7802 48.4625 56.7367C47.0869 57.7942 44.4416 58.9046 42.6956 58.9575C36.9816 59.0632 34.495 55.309 33.3311 52.1364C35.8177 52.2422 39.3095 51.1846 39.3095 51.1846C39.3095 51.1846 29.8391 42.7772 31.056 34.2641C32.5903 35.4274 35.077 37.0137 37.6694 37.2781C42.1665 37.754 44.1242 39.3403 44.1242 39.3403C44.1242 39.3403 46.0288 36.8551 45.9229 33.3652C50.7375 35.4274 54.7056 38.7058 56.0812 42.1427C56.9277 44.2578 57.5626 47.3775 56.9277 49.7041L59.5202 49.9156C60.0492 47.9063 59.7318 44.8394 58.8852 41.8784C56.2399 32.4663 42.9602 29.4524 42.9602 29.4524C42.9602 29.4524 43.4892 33.5238 42.7485 35.4274C42.7485 35.4274 40.791 34.4228 38.0398 34.0526C32.802 33.3652 30.2624 28.8707 30.2624 28.8707C30.2624 28.8707 23.8606 39.2874 34.5479 49.757C32.4845 50.2329 29.7862 49.7041 29.7862 49.7041L30.1566 51.872C30.9502 55.309 35.1299 62.2887 43.066 61.9186C46.8224 61.76 50.2085 59.8035 52.3248 57.5298C55.1289 54.5159 54.3882 49.9685 53.3829 47.2718C52.9068 46.0027 51.9015 44.5222 51.9015 44.5222L49.5207 45.2625Z" fill="#787762"/>
<path d="M87.35 35.9032H75.8691V13.9594H78.9377V33.6295H84.2813V21.0977H95.0745V30.0867H92.0059V23.2656H87.35V35.9032Z" fill="#57959C"/>
<path d="M105.497 19.4586L89.6777 3.80712L73.8055 19.4586L71.6892 17.2378L89.6777 0L107.666 17.2378L105.497 19.4586Z" fill="#57959C"/>
<path d="M103.434 35.903H91.9001V33.6293H100.365V14.0121H103.434V35.903Z" fill="#57959C"/>
<path d="M91.2651 16.0217H88.1965V12.0031C88.1965 12.0031 88.5669 10.8927 89.7837 10.8927C91.0005 10.8927 91.2651 12.0031 91.2651 12.0031V16.0217Z" fill="#57959C"/>
<path d="M37.1409 96.9226H33.0141H31.7444L31.4269 98.0331C31.374 98.1917 30.2629 101.682 23.385 101.682C18.9937 101.682 15.7134 99.1963 12.2745 96.5525C10.7931 95.4421 6.34885 93.0098 4.44419 93.0098H22.3268L22.4856 93.327C23.0147 94.0673 23.8612 94.5432 24.8135 94.5432C26.3478 94.5432 27.6176 93.2742 27.6176 91.7407C27.6176 90.2073 26.3478 88.9383 24.8135 88.9383C23.8612 88.9383 23.0147 89.4142 22.4856 90.1544C22.4327 90.2602 22.3269 90.366 22.2739 90.4717H4.28548C6.29595 90.4717 10.5285 88.0923 11.9041 86.9819C15.3431 84.2851 18.6234 81.8 23.2792 81.8C30.1042 81.8 31.2682 85.2369 31.3211 85.3956L31.5856 86.5588H40.3153V84.1265H34.0193C33.067 82.1172 30.3688 78.5216 23.2792 78.5216C17.5123 78.5216 13.4913 81.6413 9.89363 84.3909C6.7721 86.8232 3.70351 89.0969 0 89.0969V94.4375C3.75642 94.4375 6.93083 96.764 10.1582 99.1963C13.703 101.893 17.7768 105.013 23.2792 105.013C30.3688 105.013 33.067 101.417 34.0193 99.4078H40.3153V90.4717H37.0351V96.9226H37.1409Z" fill="#57959C"/>
</svg>
