<svg xmlns="http://www.w3.org/2000/svg">
    <symbol id="facebook" viewBox="0 0 30 30" fill="none" xmlns="http://www.w3.org/2000/svg">
        <path d="M 30,15 C 30,6.71484 23.2852,0 15,0 6.71484,0 0,6.71484 0,15 c 0,8.2852 6.71484,15 15,15 0.0879,0 0.1758,0 0.2637,-0.0059 V 18.3223 H 12.041 v -3.7559 h 3.2227 v -2.7656 c 0,-3.2051 1.957,-4.95119 4.8164,-4.95119 1.3711,0 2.5488,0.09961 2.8887,0.14648 V 10.3477 H 21 c -1.5527,0 -1.8574,0.7382 -1.8574,1.8222 v 2.3906 h 3.7207 L 22.377,18.3164 H 19.1426 V 29.4199 C 25.4121,27.6211 30,21.8496 30,15 Z"
     fill="currentColor" />
    </symbol>
    <symbol id="instagram" viewBox="0 0 30 30" fill="none" xmlns="http://www.w3.org/2000/svg">
        <path d="M17.8711 15C17.8711 16.5857 16.5857 17.8711 15 17.8711C13.4143 17.8711 12.1289 16.5857 12.1289 15C12.1289 13.4143 13.4143 12.1289 15 12.1289C16.5857 12.1289 17.8711 13.4143 17.8711 15Z"
        fill="currentColor"/>
        <path d="M21.7144 9.92015C21.5764 9.54616 21.3562 9.20764 21.0701 8.92978C20.7923 8.64368 20.454 8.42349 20.0797 8.28548C19.7762 8.1676 19.3203 8.0273 18.4805 7.98907C17.5721 7.94765 17.2997 7.93872 14.9999 7.93872C12.6999 7.93872 12.4275 7.94742 11.5193 7.98885C10.6796 8.0273 10.2234 8.1676 9.92014 8.28548C9.54591 8.42349 9.2074 8.64368 8.92976 8.92978C8.64366 9.20764 8.42348 9.54593 8.28523 9.92015C8.16736 10.2236 8.02705 10.6798 7.98883 11.5196C7.9474 12.4278 7.93848 12.7001 7.93848 15.0002C7.93848 17.3 7.9474 17.5724 7.98883 18.4808C8.02705 19.3206 8.16736 19.7765 8.28523 20.08C8.42348 20.4542 8.64343 20.7925 8.92953 21.0704C9.2074 21.3565 9.54568 21.5766 9.91991 21.7147C10.2234 21.8328 10.6796 21.9731 11.5193 22.0113C12.4275 22.0527 12.6997 22.0614 14.9997 22.0614C17.3 22.0614 17.5723 22.0527 18.4803 22.0113C19.3201 21.9731 19.7762 21.8328 20.0797 21.7147C20.8309 21.4249 21.4247 20.8312 21.7144 20.08C21.8323 19.7765 21.9726 19.3206 22.011 18.4808C22.0525 17.5724 22.0612 17.3 22.0612 15.0002C22.0612 12.7001 22.0525 12.4278 22.011 11.5196C21.9728 10.6798 21.8325 10.2236 21.7144 9.92015ZM14.9999 19.4229C12.5571 19.4229 10.5768 17.4428 10.5768 15C10.5768 12.5571 12.5571 10.577 14.9999 10.577C17.4426 10.577 19.4229 12.5571 19.4229 15C19.4229 17.4428 17.4426 19.4229 14.9999 19.4229ZM19.5977 11.4358C19.0269 11.4358 18.5641 10.973 18.5641 10.4022C18.5641 9.83134 19.0269 9.36855 19.5977 9.36855C20.1685 9.36855 20.6313 9.83134 20.6313 10.4022C20.6311 10.973 20.1685 11.4358 19.5977 11.4358Z"
        fill="currentColor"/>
        <path d="M15 0C6.717 0 0 6.717 0 15C0 23.283 6.717 30 15 30C23.283 30 30 23.283 30 15C30 6.717 23.283 0 15 0ZM23.5613 18.5511C23.5197 19.468 23.3739 20.094 23.161 20.6419C22.7135 21.7989 21.7989 22.7135 20.6419 23.161C20.0942 23.3739 19.468 23.5194 18.5513 23.5613C17.6328 23.6032 17.3394 23.6133 15.0002 23.6133C12.6608 23.6133 12.3676 23.6032 11.4489 23.5613C10.5322 23.5194 9.90601 23.3739 9.35829 23.161C8.78334 22.9447 8.26286 22.6057 7.83257 22.1674C7.39449 21.7374 7.05551 21.2167 6.83922 20.6419C6.62636 20.0942 6.48056 19.468 6.4389 18.5513C6.39656 17.6326 6.38672 17.3392 6.38672 15C6.38672 12.6608 6.39656 12.3674 6.43867 11.4489C6.48033 10.532 6.6259 9.90601 6.83876 9.35806C7.05505 8.78334 7.39426 8.26263 7.83257 7.83257C8.26263 7.39426 8.78334 7.05528 9.35806 6.83899C9.90601 6.62613 10.532 6.48056 11.4489 6.43867C12.3674 6.39679 12.6608 6.38672 15 6.38672C17.3392 6.38672 17.6326 6.39679 18.5511 6.4389C19.468 6.48056 20.094 6.62613 20.6419 6.83876C21.2167 7.05505 21.7374 7.39426 22.1677 7.83257C22.6057 8.26286 22.9449 8.78334 23.161 9.35806C23.3741 9.90601 23.5197 10.532 23.5616 11.4489C23.6034 12.3674 23.6133 12.6608 23.6133 15C23.6133 17.3392 23.6034 17.6326 23.5613 18.5511Z"
        fill="currentColor"/>
    </symbol>
    <symbol id="vk" viewBox="0 0 30 30" fill="none" xmlns="http://www.w3.org/2000/svg">
        <path d="M15 0C6.71601 0 0 6.7157 0 15C0 23.2843 6.71601 30 15 30C23.284 30 30 23.2843 30 15C30 6.7157 23.284 0 15 0ZM22.6088 16.6223C23.3079 17.3052 24.0476 17.9478 24.6752 18.7013C24.9532 19.0346 25.2153 19.3792 25.4148 19.7669C25.6996 20.3196 25.4425 20.9257 24.9477 20.9586L21.8747 20.958C21.081 21.0236 20.4494 20.7035 19.9169 20.1609C19.4919 19.7285 19.0975 19.2666 18.6881 18.8194C18.5208 18.6359 18.3447 18.4631 18.1347 18.3272C17.7158 18.0546 17.3518 18.1381 17.1118 18.5758C16.8672 19.0211 16.8114 19.5146 16.788 20.0102C16.7546 20.7348 16.5361 20.9242 15.809 20.9583C14.2554 21.031 12.7814 20.7953 11.4114 20.0121C10.2028 19.3212 9.26731 18.3462 8.45217 17.2423C6.86486 15.0902 5.64921 12.7283 4.55693 10.2985C4.3111 9.7513 4.49095 9.45852 5.09463 9.44716C6.0976 9.42783 7.10056 9.43028 8.10353 9.44624C8.51171 9.45268 8.78179 9.68624 8.93862 10.0714C9.48061 11.4049 10.1451 12.6737 10.9777 13.8503C11.1996 14.1637 11.4261 14.4761 11.7486 14.6974C12.1047 14.9417 12.376 14.861 12.5438 14.4635C12.6513 14.2109 12.6976 13.9409 12.7209 13.6702C12.8007 12.743 12.8102 11.8162 12.6721 10.8927C12.5862 10.3148 12.2612 9.94158 11.6851 9.83233C11.3917 9.77678 11.4347 9.66813 11.5774 9.50056C11.8251 9.21084 12.0571 9.03161 12.5208 9.03161L15.9928 9.031C16.5401 9.13841 16.6628 9.38394 16.7371 9.93514L16.7402 13.7936C16.7337 14.0069 16.8473 14.6391 17.2303 14.7787C17.5372 14.88 17.7397 14.6339 17.9233 14.4396C18.7559 13.556 19.3492 12.5131 19.8804 11.4338C20.1149 10.9577 20.3171 10.4652 20.5136 9.97166C20.6596 9.60675 20.8868 9.42721 21.2986 9.43335L24.642 9.43734C24.7406 9.43734 24.8406 9.43826 24.9382 9.45514C25.5017 9.55151 25.6561 9.79396 25.4817 10.3436C25.2074 11.2073 24.6743 11.9266 24.1531 12.6479C23.5946 13.4201 22.9989 14.1652 22.4458 14.9408C21.9376 15.6497 21.9778 16.0066 22.6088 16.6223Z"
        fill="currentColor"/>
    </symbol>
    <symbol id="youtube" viewBox="0 0 30 30" fill="none" xmlns="http://www.w3.org/2000/svg">
        <path d="M13.1316 17.8101L18.0109 14.9999L13.1316 12.1897V17.8101Z" fill="currentColor"/>
        <path d="M15 0C6.717 0 0 6.717 0 15C0 23.283 6.717 30 15 30C23.283 30 30 23.283 30 15C30 6.717 23.283 0 15 0ZM24.3727 15.0153C24.3727 15.0153 24.3727 18.0574 23.9868 19.5243C23.7705 20.3272 23.1374 20.9603 22.3345 21.1764C20.8676 21.5625 15 21.5625 15 21.5625C15 21.5625 9.14772 21.5625 7.66548 21.161C6.86256 20.945 6.22948 20.3117 6.01318 19.5087C5.62706 18.0574 5.62706 15 5.62706 15C5.62706 15 5.62706 11.9582 6.01318 10.4913C6.22925 9.68834 6.8779 9.03969 7.66548 8.82362C9.13239 8.4375 15 8.4375 15 8.4375C15 8.4375 20.8676 8.4375 22.3345 8.83896C23.1374 9.05502 23.7705 9.68834 23.9868 10.4913C24.3883 11.9582 24.3727 15.0153 24.3727 15.0153Z"
        fill="currentColor" />
    </symbol>
    <symbol id="arrowToTop" viewBox="0 0 84 86" fill="none" xmlns="http://www.w3.org/2000/svg">
        <g filter="url(#filter0_ddd)">
        <circle cx="42" cy="37" r="20" fill="currentColor"/>
        </g>
        <path d="M34 40.3334L42.3333 32.3334L50.6667 40.3334" stroke="white" stroke-width="2" stroke-linejoin="round"/>
        <defs>
        <filter id="filter0_ddd" x="0" y="0" width="84" height="86" filterUnits="userSpaceOnUse" color-interpolation-filters="sRGB">
        <feFlood flood-opacity="0" result="BackgroundImageFix"/>
        <feColorMatrix in="SourceAlpha" type="matrix" values="0 0 0 0 0 0 0 0 0 0 0 0 0 0 0 0 0 0 127 0"/>
        <feOffset dy="7"/>
        <feGaussianBlur stdDeviation="4"/>
        <feColorMatrix type="matrix" values="0 0 0 0 0 0 0 0 0 0 0 0 0 0 0 0 0 0 0.2 0"/>
        <feBlend mode="normal" in2="BackgroundImageFix" result="effect1_dropShadow"/>
        <feColorMatrix in="SourceAlpha" type="matrix" values="0 0 0 0 0 0 0 0 0 0 0 0 0 0 0 0 0 0 127 0"/>
        <feOffset dy="5"/>
        <feGaussianBlur stdDeviation="11"/>
        <feColorMatrix type="matrix" values="0 0 0 0 0 0 0 0 0 0 0 0 0 0 0 0 0 0 0.12 0"/>
        <feBlend mode="normal" in2="effect1_dropShadow" result="effect2_dropShadow"/>
        <feColorMatrix in="SourceAlpha" type="matrix" values="0 0 0 0 0 0 0 0 0 0 0 0 0 0 0 0 0 0 127 0"/>
        <feOffset dy="12"/>
        <feGaussianBlur stdDeviation="8.5"/>
        <feColorMatrix type="matrix" values="0 0 0 0 0 0 0 0 0 0 0 0 0 0 0 0 0 0 0.14 0"/>
        <feBlend mode="normal" in2="effect2_dropShadow" result="effect3_dropShadow"/>
        <feBlend mode="normal" in="SourceGraphic" in2="effect3_dropShadow" result="shape"/>
        </filter>
        </defs>
    </symbol>
    <symbol id="truck" viewBox="0 0 24 24" fill="none" xmlns="http://www.w3.org/2000/svg">
        <svg width="24" height="24" viewBox="0 0 24 24" fill="none" xmlns="http://www.w3.org/2000/svg">
        <g clip-path="url(#clip0)">
        <path d="M6.5 17H4.5C4.224 17 4 16.776 4 16.5C4 16.224 4.224 16 4.5 16H6.5C6.776 16 7 16.224 7 16.5C7 16.776 6.776 17 6.5 17Z" fill="black"/>
        <path d="M22.7501 17H21.5001C21.2241 17 21.0001 16.776 21.0001 16.5C21.0001 16.224 21.2241 16 21.5001 16H22.3351L23.0091 12.408C23.0001 10.57 21.4301 9 19.5001 9H16.2171L14.6261 16H17.5001C17.7761 16 18.0001 16.224 18.0001 16.5C18.0001 16.776 17.7761 17 17.5001 17H14.0001C13.8481 17 13.7041 16.931 13.6091 16.812C13.5141 16.694 13.4781 16.538 13.5121 16.39L15.3301 8.39C15.3821 8.161 15.5841 8 15.8181 8H19.5001C21.9811 8 24.0001 10.019 24.0001 12.5L23.2411 16.592C23.1971 16.829 22.9911 17 22.7501 17Z" fill="black"/>
        <path d="M19.5 19C18.122 19 17 17.879 17 16.5C17 15.121 18.122 14 19.5 14C20.878 14 22 15.121 22 16.5C22 17.879 20.878 19 19.5 19ZM19.5 15C18.673 15 18 15.673 18 16.5C18 17.327 18.673 18 19.5 18C20.327 18 21 17.327 21 16.5C21 15.673 20.327 15 19.5 15Z" fill="black"/>
        <path d="M8.5 19C7.122 19 6 17.879 6 16.5C6 15.121 7.122 14 8.5 14C9.878 14 11 15.121 11 16.5C11 17.879 9.878 19 8.5 19ZM8.5 15C7.673 15 7 15.673 7 16.5C7 17.327 7.673 18 8.5 18C9.327 18 10 17.327 10 16.5C10 15.673 9.327 15 8.5 15Z" fill="black"/>
        <path d="M6.5 8.00001H2.5C2.224 8.00001 2 7.776 2 7.5C2 7.224 2.224 7 2.5 7H6.5C6.776 7 7 7.224 7 7.5C7 7.776 6.776 8.00001 6.5 8.00001Z" fill="black"/>
        <path d="M6.5 11H1.5C1.224 11 1 10.776 1 10.5C1 10.224 1.224 10 1.5 10H6.5C6.776 10 7 10.224 7 10.5C7 10.776 6.776 11 6.5 11Z" fill="black"/>
        <path d="M6.5 14H0.5C0.224 14 0 13.776 0 13.5C0 13.224 0.224 13 0.5 13H6.5C6.776 13 7 13.224 7 13.5C7 13.776 6.776 14 6.5 14Z" fill="black"/>
        <path d="M14 17H10.5C10.224 17 10 16.776 10 16.5C10 16.224 10.224 16 10.5 16H13.601L15.873 6H4.5C4.224 6 4 5.776 4 5.5C4 5.224 4.224 5 4.5 5H16.5C16.652 5 16.796 5.069 16.891 5.188C16.986 5.306 17.022 5.462 16.988 5.61L14.488 16.61C14.436 16.839 14.233 17 14 17Z" fill="black"/>
        </g>
        <defs>
        <clipPath id="clip0">
        <rect width="24" height="24" fill="white"/>
        </clipPath>
        </defs>
        </svg>
    </symbol>
    <symbol id="box" viewBox="0 0 24 24" fill="none" xmlns="http://www.w3.org/2000/svg">
        <path d="M20.9812 8.05094C20.9623 8.01834 20.9623 8.00204 20.9247 7.96943C20.9059 7.93683 20.8682 7.92053 20.8117 7.90423L16.5 5.96434L12.1318 4.02445C12.0565 3.99185 11.9623 3.99185 11.887 4.02445L7.5 5.96434L3.16946 7.90423C3.11297 7.92053 3.05649 7.96943 3.03766 8.01834C3.01883 8.05094 3.01883 8.06724 3 8.09985V8.11615V15.8757C3 15.9572 3.05649 16.0387 3.15063 16.0876L11.8682 19.9511C11.8682 19.9511 11.887 19.9511 11.887 19.9674C11.887 19.9674 11.9059 19.9674 11.9059 19.9837C11.9435 20 11.9623 20 12 20C12.0377 20 12.0565 20 12.0941 19.9837C12.0941 19.9837 12.113 19.9837 12.113 19.9674C12.113 19.9674 12.1318 19.9674 12.1318 19.9511L20.8494 16.0876C20.9435 16.0387 21 15.9572 21 15.8757V8.11615C21 8.08355 21 8.06724 20.9812 8.05094ZM12 4.4972L16.2364 6.38818L20.1339 8.11615L17.4602 9.30616L9.32636 5.68721L12 4.4972ZM15.5397 10.6755L16.4812 10.2517L17.1025 9.97453V10.9852L16.5941 10.7896C16.4812 10.7407 16.3494 10.7733 16.2741 10.8548L15.5586 11.621V10.6755H15.5397ZM7.7636 6.38818L8.72385 5.96434L16.8577 9.56699L15.2761 10.2843L7.14226 6.66531L7.7636 6.38818ZM11.7364 19.3805L3.54603 15.729L3.54603 8.50739L7.51883 10.268L11.7364 12.1426V19.3805ZM12 11.7351L7.7636 9.84412L3.86611 8.11615L6.53975 6.92613L14.6736 10.5451L12 11.7351ZM20.454 15.7453L12.2636 19.3642V12.1426L15.0126 10.92V12.2894C15.0126 12.4198 15.1255 12.5176 15.2761 12.5176C15.3703 12.5176 15.4456 12.485 15.5021 12.4198L16.5565 11.295L17.272 11.5558C17.4038 11.6047 17.5732 11.5558 17.6297 11.4254C17.6485 11.4091 17.6485 11.3765 17.6485 11.3439V9.74631L20.454 8.50739V15.7453Z" fill="black" stroke="black" stroke-width="0.4"/> 
    </symbol>
</svg>
