<svg width="24" height="24" viewBox="0 0 24 24" fill="none" xmlns="http://www.w3.org/2000/svg">
<g clip-path="url(#clip0)">
<path d="M6.5 17H4.5C4.224 17 4 16.776 4 16.5C4 16.224 4.224 16 4.5 16H6.5C6.776 16 7 16.224 7 16.5C7 16.776 6.776 17 6.5 17Z" fill="black"/>
<path d="M22.7501 17H21.5001C21.2241 17 21.0001 16.776 21.0001 16.5C21.0001 16.224 21.2241 16 21.5001 16H22.3351L23.0091 12.408C23.0001 10.57 21.4301 9 19.5001 9H16.2171L14.6261 16H17.5001C17.7761 16 18.0001 16.224 18.0001 16.5C18.0001 16.776 17.7761 17 17.5001 17H14.0001C13.8481 17 13.7041 16.931 13.6091 16.812C13.5141 16.694 13.4781 16.538 13.5121 16.39L15.3301 8.39C15.3821 8.161 15.5841 8 15.8181 8H19.5001C21.9811 8 24.0001 10.019 24.0001 12.5L23.2411 16.592C23.1971 16.829 22.9911 17 22.7501 17Z" fill="black"/>
<path d="M19.5 19C18.122 19 17 17.879 17 16.5C17 15.121 18.122 14 19.5 14C20.878 14 22 15.121 22 16.5C22 17.879 20.878 19 19.5 19ZM19.5 15C18.673 15 18 15.673 18 16.5C18 17.327 18.673 18 19.5 18C20.327 18 21 17.327 21 16.5C21 15.673 20.327 15 19.5 15Z" fill="black"/>
<path d="M8.5 19C7.122 19 6 17.879 6 16.5C6 15.121 7.122 14 8.5 14C9.878 14 11 15.121 11 16.5C11 17.879 9.878 19 8.5 19ZM8.5 15C7.673 15 7 15.673 7 16.5C7 17.327 7.673 18 8.5 18C9.327 18 10 17.327 10 16.5C10 15.673 9.327 15 8.5 15Z" fill="black"/>
<path d="M6.5 8.00001H2.5C2.224 8.00001 2 7.776 2 7.5C2 7.224 2.224 7 2.5 7H6.5C6.776 7 7 7.224 7 7.5C7 7.776 6.776 8.00001 6.5 8.00001Z" fill="black"/>
<path d="M6.5 11H1.5C1.224 11 1 10.776 1 10.5C1 10.224 1.224 10 1.5 10H6.5C6.776 10 7 10.224 7 10.5C7 10.776 6.776 11 6.5 11Z" fill="black"/>
<path d="M6.5 14H0.5C0.224 14 0 13.776 0 13.5C0 13.224 0.224 13 0.5 13H6.5C6.776 13 7 13.224 7 13.5C7 13.776 6.776 14 6.5 14Z" fill="black"/>
<path d="M14 17H10.5C10.224 17 10 16.776 10 16.5C10 16.224 10.224 16 10.5 16H13.601L15.873 6H4.5C4.224 6 4 5.776 4 5.5C4 5.224 4.224 5 4.5 5H16.5C16.652 5 16.796 5.069 16.891 5.188C16.986 5.306 17.022 5.462 16.988 5.61L14.488 16.61C14.436 16.839 14.233 17 14 17Z" fill="black"/>
</g>
<defs>
<clipPath id="clip0">
<rect width="24" height="24" fill="white"/>
</clipPath>
</defs>
</svg>
