<?xml version="1.0" encoding="UTF-8"?>
<svg version="1.1" xmlns="http://www.w3.org/2000/svg" xmlns:xlink="http://www.w3.org/1999/xlink">
<defs>
<filter id="filter0_ddd" x="0" y="0" width="84" height="86" filterUnits="userSpaceOnUse" color-interpolation-filters="sRGB"><feFlood flood-opacity="0" result="BackgroundImageFix"/><feColorMatrix in="SourceAlpha" values="0 0 0 0 0 0 0 0 0 0 0 0 0 0 0 0 0 0 127 0"/><feOffset dy="7"/><feGaussianBlur stdDeviation="4"/><feColorMatrix values="0 0 0 0 0 0 0 0 0 0 0 0 0 0 0 0 0 0 0.2 0"/><feBlend in2="BackgroundImageFix" result="effect1_dropShadow"/><feColorMatrix in="SourceAlpha" values="0 0 0 0 0 0 0 0 0 0 0 0 0 0 0 0 0 0 127 0"/><feOffset dy="5"/><feGaussianBlur stdDeviation="11"/><feColorMatrix values="0 0 0 0 0 0 0 0 0 0 0 0 0 0 0 0 0 0 0.12 0"/><feBlend in2="effect1_dropShadow" result="effect2_dropShadow"/><feColorMatrix in="SourceAlpha" values="0 0 0 0 0 0 0 0 0 0 0 0 0 0 0 0 0 0 127 0"/><feOffset dy="12"/><feGaussianBlur stdDeviation="8.5"/><feColorMatrix values="0 0 0 0 0 0 0 0 0 0 0 0 0 0 0 0 0 0 0.14 0"/><feBlend in2="effect2_dropShadow" result="effect3_dropShadow"/><feBlend in="SourceGraphic" in2="effect3_dropShadow" result="shape"/></filter>
<clipPath id="clip0"><path fill="#fff" d="M0 0h24v24H0z"/></clipPath>
</defs>
<symbol id="i-arrowtotop" viewBox="0 0 84 86" fill="none" xmlns="http://www.w3.org/2000/svg"><g filter="url(#filter0_ddd)"><circle cx="42" cy="37" r="20" fill="currentColor"/></g><path d="M34 40.333l8.333-8 8.334 8" stroke="#fff" stroke-width="2" stroke-linejoin="round"/></symbol>
<symbol id="i-box" viewBox="0 0 24 24" fill="none" xmlns="http://www.w3.org/2000/svg"><path d="M20.981 8.05c-.019-.032-.019-.048-.056-.08-.02-.033-.057-.05-.113-.066L16.5 5.964l-4.368-1.94a.319.319 0 00-.245 0L7.5 5.964l-4.33 1.94a.215.215 0 00-.132.114c-.02.033-.02.05-.038.082v7.776c0 .081.056.163.15.212l8.718 3.863s.019 0 .019.016c0 0 .019 0 .019.017.037.016.056.016.094.016s.056 0 .094-.016c0 0 .019 0 .019-.017 0 0 .019 0 .019-.016l8.717-3.863c.095-.05.151-.13.151-.212v-7.76c0-.032 0-.049-.019-.065zM12 4.498l4.236 1.891 3.898 1.728-2.674 1.19-8.134-3.619L12 4.497zm3.54 6.178l.941-.423.621-.277v1.01l-.508-.195a.288.288 0 00-.32.065l-.715.766v-.946h-.02zM7.764 6.388l.96-.424 8.134 3.603-1.582.717-8.134-3.619.622-.277zm3.972 12.993l-8.19-3.652V8.507l3.973 1.761 4.217 1.875v7.238zM12 11.735l-4.236-1.89-3.898-1.729 2.674-1.19 8.134 3.62L12 11.735zm8.454 4.01l-8.19 3.62v-7.222l2.749-1.223v1.37c0 .13.113.228.263.228.094 0 .17-.033.226-.098l1.054-1.125.716.26c.132.05.301 0 .358-.13.018-.016.018-.049.018-.081V9.746l2.806-1.239v7.238z" fill="#000" stroke="#000" stroke-width=".4"/></symbol>
<symbol id="i-close--icon" viewBox="0 0 20 20" fill="none" xmlns="http://www.w3.org/2000/svg"><path d="M11.832 10.016l7.788-7.788A1.294 1.294 0 1017.788.396L10 8.184 2.212.396A1.294 1.294 0 10.38 2.228l7.788 7.788L.38 17.804a1.294 1.294 0 00.916 2.212c.332 0 .664-.127.916-.38L10 11.85l7.788 7.787a1.292 1.292 0 001.832 0 1.294 1.294 0 000-1.832l-7.788-7.788z" fill="#E0E0E0"/></symbol>
<symbol id="i-facebook" viewBox="0 0 30 30" fill="none" xmlns="http://www.w3.org/2000/svg"><path d="M30 15c0-8.285-6.715-15-15-15S0 6.715 0 15s6.715 15 15 15c.088 0 .176 0 .264-.006V18.322H12.04v-3.756h3.223v-2.765c0-3.205 1.957-4.951 4.816-4.951 1.371 0 2.549.1 2.889.146v3.352H21c-1.553 0-1.857.738-1.857 1.822v2.39h3.72l-.486 3.756h-3.234V29.42C25.413 27.62 30 21.85 30 15z" fill="currentColor"/></symbol>
<symbol id="i-instagram" viewBox="0 0 30 30" fill="none" xmlns="http://www.w3.org/2000/svg"><path d="M17.871 15a2.871 2.871 0 11-5.742 0 2.871 2.871 0 015.742 0z" fill="currentColor"/><path d="M21.714 9.92a2.669 2.669 0 00-.644-.99 2.666 2.666 0 00-.99-.645c-.304-.117-.76-.258-1.6-.296-.908-.041-1.18-.05-3.48-.05s-2.572.008-3.48.05c-.84.038-1.297.179-1.6.296a2.665 2.665 0 00-.99.645 2.67 2.67 0 00-.645.99c-.118.304-.258.76-.296 1.6-.042.908-.05 1.18-.05 3.48s.008 2.572.05 3.48c.038.84.178 1.296.296 1.6.138.374.358.713.645.99.277.287.616.507.99.645.303.118.76.258 1.6.296.908.042 1.18.05 3.48.05s2.572-.008 3.48-.05c.84-.038 1.296-.178 1.6-.296a2.852 2.852 0 001.634-1.635c.118-.303.259-.76.297-1.6.041-.908.05-1.18.05-3.48s-.009-2.572-.05-3.48c-.038-.84-.178-1.296-.297-1.6zM15 19.423a4.423 4.423 0 110-8.846 4.423 4.423 0 010 8.846zm4.598-7.987a1.034 1.034 0 110-2.068 1.034 1.034 0 010 2.068z" fill="currentColor"/><path d="M15 0C6.717 0 0 6.717 0 15c0 8.283 6.717 15 15 15 8.283 0 15-6.717 15-15 0-8.283-6.717-15-15-15zm8.561 18.551c-.041.917-.187 1.543-.4 2.09a4.404 4.404 0 01-2.52 2.52c-.547.213-1.173.358-2.09.4-.918.042-1.212.052-3.55.052-2.34 0-2.633-.01-3.552-.052-.917-.042-1.543-.187-2.09-.4a4.22 4.22 0 01-1.526-.994 4.22 4.22 0 01-.994-1.525c-.213-.548-.358-1.174-.4-2.09-.042-.92-.052-1.213-.052-3.552 0-2.34.01-2.633.052-3.551.041-.917.187-1.543.4-2.09a4.22 4.22 0 01.994-1.526c.43-.439.95-.778 1.525-.994.548-.213 1.174-.358 2.09-.4.92-.042 1.213-.052 3.552-.052 2.34 0 2.633.01 3.551.052.917.042 1.543.187 2.09.4a4.222 4.222 0 011.527.994c.438.43.777.95.993 1.525.213.548.359 1.174.4 2.09.042.92.052 1.213.052 3.552 0 2.34-.01 2.633-.052 3.551z" fill="currentColor"/></symbol>
<symbol id="i-link-icons" viewBox="0 0 19 19" fill="none" xmlns="http://www.w3.org/2000/svg"><path d="M16 19H2c-1.1 0-2-.9-2-2V3c0-1.1.9-2 2-2h6c.6 0 1 .4 1 1s-.4 1-1 1H2v14h14v-6.2c0-.6.4-1 1-1s1 .4 1 1V17c0 1.1-.9 2-2 2z" fill="#B54C3E"/><path d="M12.3 0c-.6 0-1 .4-1 1s.4 1 1 1h3.2L8 9.6c-.4.4-.4 1 0 1.4.2.2.5.3.7.3.2 0 .5-.1.7-.3L17 3.4v3.2c0 .6.4 1 1 1s1-.4 1-1V0h-6.7z" fill="#B54C3E"/></symbol>
<symbol id="i-logo" xmlns="http://www.w3.org/2000/svg" viewBox="0 0 841.9 595.3"><path d="M414 338.6l11.7-35.8 11.6-2.1 23.8-2.5 36.7 1.3L516 303l18 3.3 17.5 4.2 17 6 10 5.8 4.1 1.8-8.1 5.3-2.1 4.5 7 3.2s10.8 6.1 16.1 9.8 11.2 9.4 11.2 9.4 6.2 12.4 5.9 12-9.4-6.8-9.4-6.8l-8.1-3.4-5 .1-4.3.2 2.8 2.8 3.5 7.5 2 7.9-2.4 6.4-7.5-11.4-9-4.9-8.2-2.6-12-2.8-9.2-1.5-10.5-2.4-5.8-3.5-1.7-2.2 3.8-7.5-2.9-1.1-16.9-3.4-20.8-2-25.4-1.2-18.9.1-20.8.3-6 .5-5.9 1.2z" fill="#fff"/><g fill="#000b18"><path d="M336 188.6c6.9 14 10.6 27 13.4 40.2 3.8 17.8 2.9 34.9-9.6 49.5-4.4 5.1-9.9 9.4-17.1 7.1-8-2.6-13.1-8.5-13.9-17.3-1.8-19 7.9-32.5 21.3-44.1 3.6-3 6.5-1.5 6.2 3.1-.2 3.8-.7 7.5-3.2 11.1-6.6 9.3-9.5 20.1-10.3 31.3-.3 3.4-.2 7.5 3.9 8.9 4.3 1.5 6.3-2.1 8.1-5.1 8.3-14.3 8-29.7 5.1-45.2-3.1-16.5-11.4-31.1-19.2-45.7-1.7-3.1-4.1-6.4-.7-9.4 3.4-3.1 6.7-.3 9.3 1.8 11.7 9.4 25.4 12.1 39.8 12.7 32.9 1.2 64.7-6.1 96.6-12.3 14-2.7 28.1-4.4 42.3-3.8 14.7.6 26.5 6.7 34.3 19.6 8.3 13.9 2.6 32.9-11.8 39-2.5 1.1-5.7 3-7.8.2-2.3-3.2 1.6-4.4 3.2-6.1 5.7-6.1 6.5-13.1 4-20.7-4.6-14.1-18.1-23.8-34.6-24.7-15.7-.9-30.8 3-46 5.9-22.8 4.2-43.7 8.3-68.7 9.7-14.4 1-28.6-.6-44.6-5.7zM182 266.5c.3-35.8 31.1-75.3 65.8-83.6 12.5-3 25.3-4.2 34.9 7.8 7.4 9.2 5.6 24-3.8 30.2-2.3 1.5-4.8 2.9-7.2 1.1-2.8-2.1-.1-4.3.7-6.3.6-1.4 1.4-2.8 1.8-4.2 4.7-15.4-2.7-23.9-18.2-20.1-19.3 4.7-32.6 17.4-41.7 34.4-9.8 18.3-16.3 37.9-12.5 59.1 4.5 24.7 23.1 34.1 45.7 23.5 7.2-3.4 13.5-8 18.8-14 1.3-1.4 2.6-3.6 4.8-2.2 2.2 1.5.9 3.6-.1 5.2-16.7 24.8-53.2 35.9-77.7 7.9-7.7-8.6-11.4-23-11.3-38.8z"/><path d="M386.7 261.1c-5.1 4.2-8.9 7.6-13 10.7-3.8 2.9-8.2 4.5-12.8 2.3-4.7-2.3-4.9-6.9-4.8-11.3.3-12.2 5.1-22.8 11.9-32.7.5-.7 1.1-1.3 1.8-1.9 3.4-2.7 7.3-6.5 11.6-3.5 4.1 2.9 1.5 7.5-.1 11.3-2.8 6.9-5.6 13.7-8.3 20.6-.6 1.5-1.5 3.6.3 4.7s3.2-.8 4.5-1.9c5.4-4.8 9.9-10.4 14.6-15.9 2.6-3 5.3-5.8 8.2-8.4 2-1.7 4.6-2.9 7.2-1.3 2.7 1.6 2.7 4.4 2.1 7-.8 3.4-1.8 6.7-2.9 10-2.1 6-4 12-5.1 18.2-.9 4.8-.7 9.2 2.4 13 3 3.6.4 4-2.3 4.1-7.7.4-14.5-5.8-15.3-14.1-.3-3.2 0-6.6 0-10.9zM277.7 265.6c-4.5 3.2-8.3 6.5-12.6 8.9-7.6 4.3-15.4 3.4-19.7-3-2.3-3.5-2.5-7.9-1.2-11.9 2.8-8.6 6.9-16.5 13.1-23.2 1.2-1.3 2.6-2.4 4.1-3.1 2.4-1.2 5.2-1.9 7.4-.1 2.4 2 .6 4.5-.4 6.5-3.2 6.7-15.2 24.8-9.7 28.6 4.6 3.2 23.3-15 28.7-23 1-1.5 1.9-2.9 3-4.3 2.2-2.9 4.7-5.7 8.7-3.9 4.4 2 4.3 5.9 2.6 9.5-11.8 25.1-9.6 42.8 1.6 44.5 2.2.4 1.2 2.3-.3 3.3-2.8 1.9-5.8 1.7-8.8.4-8.6-3.6-16.8-10.5-16.5-29.2zM284.8 316.3c4-5.6 10-7.9 15.6-10.5 18.9-8.8 38.6-13.5 59.5-11.5 11.6 1.1 21.1 8.6 24.3 20.9-33.8-17.7-66.6-11-99.4 1.1zM456.7 262.1c-3.5-14.6-8.1-29.1-7.5-44.4.1-3.3-1.6-3.1-3.7-1.6-2.1 1.6-4.2 3.1-6.2 4.8-13.3 11.5-19.1 27.1-22.3 43.5-4.6 23.6-8 47.3-12 71-1.1 6.5-2.9 12.8-6.5 18.4-1 1.6-2 3.6-4.4 3.4-2.4-.2-3-2.2-3.3-4.2-.3-3-1.6-5.4-4.9-4.4-3.5 1-3.4 4-2.4 7 2.5 7.1 10.5 10.2 17.1 6.5 5.5-3.1 9.3-7.9 12.5-13.1 9.7-15.8 13.7-33.5 16.5-51.4.9-5.8 2.8-7.3 8.6-7.1 12 .4 20.1-7.8 19.7-20.3-.4-1.7-.5-5-1.2-8.1zm-12.4 13.3c-.4 4.3-2.2 7.8-7.3 7.4-5.4-.4-5.9-4.5-5.4-8.7 1-8.7 2-17.3 6.4-25.6 3.4 8.8 7.1 17.4 6.3 26.9zM536.9 273.5c-5.8-2.4-9.6-2.5-19.6-1.8s-11.1-1-15.6-9c-.8-1.5-2-2.9-3.1-4.2-7-8.4-7.3-10.7-1.2-19.8 1.7-2.5 3.9-4.6 5.9-7 1.1-1.4 3.9-2.4 2.2-4.7-1.5-1.9-3.7-.3-5.4.4-8.8 3.4-14.9 9.7-18.6 18.3-4.5 10.4-8.4 18.6-12.8 29-.9 2.2-3.9 4.7-2.8 6.6 1.2 2.1 3.6 1.3 5.4 1.1 10.2-1.3 20.3-2.8 30.5-4.2 8.2-1.1 16.6-2.2 24.7-.1 7.1 1.8 9.3 7.2 6 12.9-.9 1.6-3.7 2.8-1.9 4.9 1.9 2.3 4.9 1.7 7.3.6 4.6-2.2 7.8-5.6 7.8-11.1-.2-6-3.6-9.8-8.8-11.9zm-47.6 1.1c-2.7.5-3.8-.4-3.2-2.7 1-3.7-.2-9.7 3.8-10.5 2.7-.5 4.2 5.3 4.6 8.9.6 4.2-3 3.7-5.2 4.3z"/></g><path d="M432.1 337.1c-.1 0-.1 0 0 0-.1.1 0 .1 0 .1v-.1c0 .1 0 0 0 0zM430.9 337.1v0c.1.1.1 0 0 0zM446.6 337c-.1 0-.1 0-.2.1.1 0 .1.1.2.1 0 0 .1-.1 0-.2.1 0 0 0 0 0z" fill="#fff9df"/><path d="M507.2 340.5h-.2c-.1.1 0 .2.1.2s.1-.1.2-.1c0 0 0-.1-.1-.1zM512.9 341.4s.1.1 0 0h0c.1 0 0 0 0 0zM517.5 341.1h.1-.1zM515.6 342c.1 0 .1.1.2.1s.1-.1.2-.1c-.1 0-.1-.1-.2-.1 0-.1-.1 0-.2.1zM511.2 341c-.1 0-.4 0-.4.1-.1.3.2.3.4.4.1-.2.4-.3 0-.5zM510.2 340.8c-.6-.1-1.1-.1-1.8-.2.6.6 1.2.5 1.8.2zM527.5 343.5c.3.2.6.2 1 0-.4-.2-.7-.1-1 0zM496.9 339.2h.1l-.1-.1z"/><path d="M471.2 337.2l.1.1s.1-.1.2-.1c-.1 0-.2-.1-.3 0 0-.1 0 0 0 0zM475.2 338.6h.1-.1zM485.1 339.5h.1-.1zM467.1 336.7v-.1l-.1.1zM453.9 337c.4.3.6.1 1-.2-.4-.2-.8-.3-1 .2zM451.1 336.9c0 .1 0 .1 0 0 .1.1.2.1.2 0h-.2c.1 0 0 0 0 0z" fill="#fff9df"/><path d="M502 339.8c-.4-.1-.7-.1-1.1-.2.3.5.7.4 1.1.2zM504 340h-.3c0 .1.1.2.1.2.1 0 .2 0 .3-.1-.1 0-.1-.1-.1-.1z"/><path fill="#fff9df" d="M485.4 338v-.1z"/><path d="M506.2 340.6s0 .1 0 0c.1.1.1 0 .1 0h-.1zM499.3 339.6h.1zM431.3 301.6z"/><path d="M468.6 298.4s0-.1 0 0zM461.2 298.3h.1zM481.4 299.2s0-.1 0 0c-.1-.1-.1-.1-.2-.1.1.1.1.1.2.1z" fill="#fff9df"/><path d="M577.8 336.4l-.1-.1-.1.1h.2c-.1 0-.1 0 0 0zM589.8 341.9zM594.2 345.8h.2c0-.1-.1-.1-.1-.1h-.2s0 .1.1.1zM591.8 344.1v.1-.1z"/><path fill="#fff9df" d="M610.4 364h.1z"/><path d="M528.3 354.7zM559.8 313.2c-.3-.1-.5-.1-.6-.1h-.1v.1c.1.2.3.2.7 0zM562.8 314.5zM564.7 315.3c-.1 0-.1 0-.2-.1 0 .1 0 .2.2.1zM578.6 336.6h-.1l.1.1zM580.3 337.3h-.1.1z"/><path d="M588.4 379.3z" fill="#fff9df"/><path d="M592.7 371.9c0-.1 0-.1 0 0-.1 0-.2 0-.2.1 0 0 .1.1.1 0s.1-.1.1-.1zM592 368.9c-.1 0-.1-.1-.2-.1l-.1.1c0 .1.1.1.1.2l.2-.2zM554.9 360.2zM580.1 339h-.1l.1.1z"/><path d="M488.2 334.8h.1c-.1-.1-.1-.1-.1 0 0-.1-.1 0 0 0zM462.1 300.7h.1z" fill="#fff9df"/><path d="M588.2 360.8z"/><path d="M450.8 300.8s.1.1 0 0c.1 0 .1 0 0 0 .1 0 0 0 0 0zM588.2 378.6v-.1.1z" fill="#fff9df"/><path d="M541.5 357.1c-.3-.1-.5-.3-.9.1.4.1.7.3.9-.1zM540.5 356.8c-1.8-.4-3.4-.9-5.3-1 1.5.8 4.2 1.3 5.3 1zM541.4 359.1c0 .1 0 .1 0 0 .1.1.1 0 .1 0h-.1zM535.9 356.8h-.1zM548 361.5l.1.1s.1 0 .1-.1c-.1 0-.1-.1-.2 0 0-.1 0-.1 0 0zM585.3 374.6h.1l-.1-.1zM570 331.2s.1 0 0 0h0zM533 355.2s-.1 0 0 0c-.1-.1-.2 0-.3 0l.1.1c.1 0 .1 0 .2-.1zM529.2 354.3h.1v-.1zM529.8 343v-.1zM538.9 358c-2.6-.6-5.1-1.6-7.7-2 2.3 1.6 5 1.8 7.7 2zM534.7 355.6s-.1 0-.2-.1l-.1.1c.1 0 .1.1.2.1 0 .1.1.1.1-.1z"/><path d="M569.4 337.5c.3.2.6.4.9.3.2-.4.4-.7.6-1.1.5-.9 1-1.8 1.6-2.9-1 .5-2.4 2.3-3.1 3.7z" fill="#fff"/><path d="M548.3 358.8c0-.1-.1-.1-.2-.2-.1 0-.2.1-.2.1 0 .1 0 .2.1.3.1 0 .2-.1.3-.2z"/><path d="M611.1 366.2s0 .1.1.1l.1-.1h-.2c0-.1 0 0 0 0zM611.6 365.4l.1-.1h-.1z" fill="#fff9df"/><path d="M550.5 358.9h.1zM551.6 359.1c-.2-.3-.4-.3-.6 0 .2.3.4.3.6 0zM570.1 325.6c.1 0 .1 0 0 0 .1 0 .1 0 0 0zM566 325.3c.1 0 0 0 0 0zM556.1 325.7zM558.6 344.8s.1 0 0 0c.1 0 .1 0 0 0zM571 329.7c.1 0 .1 0 0 0 .1 0 .1 0 0 0z"/><path d="M447.8 298.5h-.3.3z" fill="#331a0f"/><path d="M500.8 335.2c-1.6-.2-3.2-.3-4.7-.3-1.7 0-3.5-.2-5.1-.4-2-.3-4-.3-5.9-.7-.4-.1-.7.1-1 .4.5.1.7.5 1.1.5 2.8.3 5.7.6 8.5.8 3.1.3 6.2.1 9.2.8 3.7.8 7.5 1 11.6 1.3-2.4-1.3-4.8-1.1-7-1.5-2.3-.5-4.6-.6-6.7-.9zm-12.6-.4c-.1 0 0-.1 0 0 0-.1 0-.1 0 0 0-.1 0 0 0 0zM510.4 304.1zM505.9 303.2c-4.3-.4-8.7-.8-13-1-2.8-.2-5.6-.2-8.4 0 8.7.4 17.2 1.8 25.9 1.9-1.4-.9-3-.8-4.5-.9zM510.4 304.1z"/><path d="M470.8 332.8c-.9.1-1.8.2-2.7.1-1.5-.1-3-.4-4.6-.5-1.9-.1-3.7-.2-5.6-.2-.7 0-1.5-.1-2.3.7 5.7.2 11.1 1.1 16.6.7-.2-.8-.7-.9-1.4-.8z" fill="#331a0f"/><path d="M550.7 312c-3.9-.9-7.3-2.7-11.3-3.1-1.1-.1-2-.6-3.2-.5.1.2.1.4.1.4 6.5 1.7 12.9 3.4 19.4 5.1-1.5-1.1-3.4-1.5-5-1.9zM555.6 313.9zM445.9 332.1c-1.8.3-3.6.9-5.4 1-1.4.1-2.8.3-4.1.8 5.6.1 11.1-1.5 16.7-1.4-2.4-.8-4.8-.7-7.2-.4zM558.9 349c-.1 0-.4-.1-.4-.2-.5-.9-1.5-1-2.4-1.2-1.9-.5-3.5-1.4-5.2-2.2-1.7-.8-3.4-1.4-5.4-1.7.4.5.9.5 1.3.6 1.9.5 3.6 1.3 5.4 2.1 3.1 1.3 6.2 2.8 9.3 4.2-.6-1-1.2-1.8-2.6-1.6zM557.1 323.9c4 1.6 7.9 3.4 11.8 5.2.7.3 1.3.9 2.1.6-4.9-2.1-9.5-4.8-14.8-6.2.3.2.6.3.9.4zM571 329.7s.1 0 0 0zM531.8 340.5c.5.1.9.2 1.4.2-.5 0-1-.1-1.4-.2zM523.4 338.9c2.8.4 5.6 1.1 8.4 1.6-2.8-.6-5.3-2.4-8.4-1.6zM570.7 321.6c2.4 1.3 4.9 2.6 7 4.4-3.8-3.2-5.1-4-7-4.4zM521.1 305.6c1.4.8 3.1.6 4.7.8-1.4-.7-3.1-.5-4.7-.8zM565.9 325.2c-1-.4-1.8-1.2-3-1.2 1 .6 1.9 1 3 1.2zM566 325.3s-.1 0 0 0c-.1 0 0 0 0 0zM432.4 304.5zM543.9 344.2c-.4-.6-1.1-.6-1.7-.6.3.6 1.2.2 1.7.6zM570.1 325.6zM568.8 324.8c.5.3.9.5 1.3.7 0-.6-.5-.8-1.3-.7zM543.9 344.2c.4.3.8.5 1.3.9-.1-.9-.8-.7-1.3-.9zM556.1 325.7zM554.8 325.1c.4.2.9.4 1.3.6-.3-.3-.6-.7-1.3-.6zM557.8 344.6c.4.1.6.1.8.2-.1-.3-.2-.6-.8-.2zM558.6 344.8zM555.7 314c.1-.1 0-.1 0 0-.1-.1-.1-.1 0 0 0-.1 0-.1 0 0zM562.7 315.6c.2.1.3.2.5.2-.1-.1-.3-.1-.5-.2zM562.7 315.6c-.2-.1-.3-.2-.5-.2.2.1.3.1.5.2zM561.8 315.1c.1 0 .2.1.2.1-.1 0-.1 0-.2-.1zM562.2 315.4c-.1 0-.2-.1-.2-.1.1 0 .2 0 .2.1zM561.3 314.9c.2.1.3.2.5.2-.2 0-.4-.1-.5-.2zM510.4 304.2s0-.1 0 0c0-.1 0 0 0 0zM574.1 362.6c.2-.1.2-.1.1.1 1.1.6 2.2 1.3 3.5 1.7-2-3.2-22-8.6-24.9-6.9.3.4.7.6 1.2.6 2.5 0 5 .4 7.4.8 2.3.4 4.6.6 6.8 1.5 2 .8 4 1.5 5.9 2.2zM584 343.1c-1.1-.7-2.3-1-3.1-.5 9 2.9 15.5 8.5 22 14.4-1.7-2.2-4-3.9-6-5.8h-.1v-.1c-.1-.1-.1-.3-.2-.4-2.2-1.7-4.3-3.4-6.8-4.8-1.9-1-3.7-2.2-5.8-2.8z"/><path d="M582.6 368.2c-4.9-3.1-9.9-5.8-15.8-7.1-.6-.1-1.3-.7-2.1.4 4 .7 7.6 1.8 10.9 3.5 3.4 1.7 6.6 3.6 9.8 5.5-.6-1.1-1.7-1.6-2.8-2.3zM589.4 344.6c.5.3 1 .5 1.6.4-4.2-3.4-7.7-5.3-12.6-6.9-.9-.3-2-.8-3.1.1 1.3.4 2.4.7 3.5 1 4 1.3 7.5 3.1 10.6 5.4zM579.7 344.1c4.4 1.7 8.7 3.5 12.7 5.7-1.9-2.3-11.4-6.4-12.7-5.7zM564.1 357.5c4 .8 7.8 1.7 11.6 3.7-1-1.9-10.4-4.8-11.6-3.7zM599.8 356.4c.3.7 4.9 4.3 5.7 4.2-1.8-1.5-2.9-3.6-5.7-4.2zM595.4 347.1s0-.1.1-.1c0 0-.1 0-.2.1 0-.1.1 0 .1 0zM431.3 301.6zM462 308.3c.3-.1.6-.3 1-.5-.3-.2-.6-.5-.9-.5h-3.9c-.3 0-.7.2-1 .3v.4l1.8.3c-.2 2.3-.5 4.5-.7 6.9-3.6.1-7 .2-10.7.4.2-1.9.5-3.7.5-5.4 0-1.2.3-2 1.7-2l.3-.3c-.3-.1-.5-.3-.7-.3-1.2 0-2.4.1-3.6.2-.2 0-.5.3-.7.5.2.2.4.5.6.4.6 0 .9.2.8.8l-1.2 12.9c-.1.7-.3 1.1-1.1 1.1-.3 0-.6.4-.9.6.1.1.1.2.2.3l4.5-.3c.2 0 .5-.3.7-.5-.2-.1-.4-.3-.6-.4-.3-.1-.6 0-1 0 .2-2.3.5-4.6.7-6.8 3.3-.2 6.5-.3 9.7-.3.3 0 .7.4.7.6-.2 2-.4 4-.6 6.1-.4 0-.8 0-1.1.1-.3.1-.5.4-.7.5.2.1.4.3.7.3 1.1 0 2.1 0 3.2-.1.4 0 1.2.4 1.3-.5 0-.2-.7-.4-1.3-.7.5-4.7 1-9.5 1.5-14.4.2.3.5.4.8.3zM488.1 323.8c.5-4.5.9-9.1 1.5-13.6 0-.2.5-.4.8-.6.3-.2.6-.3.9-.5 0-.1-.1-.2-.1-.3-1.5-.1-3.1-.3-4.6-.4-.1.1-.1.2-.2.3.4.3.8.6 1.3 1-.1.6-.1 1.3-.2 2-.1.8-.2 1.5-.2 2.3-.2 1.9-1.8 3-3.7 2.7-.9-.2-1.3-.6-1.2-1.6.2-1.6.3-3.2.4-4.7.1-.7.1-1.4.2-2-1.1-.1-2-.3-3-.4-.2 0-.4.2-.7.3.2.2.3.4.6.5.3.1.7.2 1.1.3-.1.9-.2 1.7-.3 2.5-.1.9-.2 1.7-.3 2.6-.1 2.2 1 3.5 3.2 3.3 1-.1 1.9-.4 3-.7-.3 2.3-.5 4.7-.8 7.2-.5 0-.9-.1-1.2-.1-.2 0-.4.3-.5.4.1.2.2.4.4.4 1.5.1 3.1.2 4.6.3.1 0 .3-.2.6-.4-.6-.2-1-.4-1.5-.6-.1-.1-.1-.1-.1-.2zM527.4 328.7c-1.3-4.6-2.6-9.2-4-13.7-.8-2.5-.3-2-2.7-2.5l-1.8-.3c0 .1-.1.3-.1.4.3.2.6.4.9.5 1.3.5 1.5 1 .8 2.1-.8 1.2-1.5 2.5-2.3 3.8-1.4 2.2-2.8 4.3-4.2 6.5-.4.6-.9.9-1.7.3-.3-.2-1.1 0-1.3.2-.2.3-.1 1 .2 1.3.5.7 1.5.7 2.2 0 .8-.9 1.6-1.7 2.2-2.7 1.9-2.9 3.8-5.9 5.8-9 .1.4.3.6.3.8 1.2 4.3 2.5 8.5 3.7 12.8.2.8.6 1.1 1.2 1.2.8.2 1.6.4 2.3.5.2 0 .5-.2.7-.2-.2-.2-.4-.5-.7-.6-.9.1-1.3-.5-1.5-1.4zM539.4 315.7c-4.9-1.4-9.3 2-9.5 6.8-1 5.2 3.8 9.8 8.1 10.8 4.5 1.1 8.5-1.3 9.1-6.4.5-4.7-2.7-9.7-7.7-11.2zm3.2 15.7c-2.6 2.3-6.3 1.1-8.6-1.2-1.5-1.5-2-3.4-2.1-5.2-.1-2.6.5-5 2.1-6.9 1.7-1.9 3.9-2.1 6.4-1.1 2.3.9 3.6 2.7 4.1 5.1.3 1.4.3 2.8.4 4.2-.2 2-.8 3.8-2.3 5.1zM507.3 325.8c-1.1-3.4-2.1-6.8-3.1-10.1-.6-1.9-1-3.8-1.6-6-.4.5-.7.7-.9 1-.4.8-.8 1.8-1.3 2.6-2.1 3.4-4.2 6.7-6.2 10.1-.4.7-.9 1.4-1.9 1.2-.1 0-.3.3-.5.5 0 .1.1.3.1.4 1 .1 1.9.2 2.9.3.3 0 .7-.2 1-.3-.2-.2-.5-.4-.7-.6l-.3-.3c.9-1.5 1.8-2.9 2.8-4.3.2-.3.8-.5 1.2-.5 1.4.1 2.8.3 4.2.6.4.1.8.5.9.9.5 1.4 1 2.8 1.3 4.2.3 1.3.9 1.8 2.1 1.8.6 0 1.3.1 1.9.2 0-.2 0-.3.1-.5-.3-.1-.7-.2-1-.3-.5-.5-.9-.6-1-.9zm-9.1-7.1c1.1-1.8 2.1-3.5 3.2-5.2h.3c.5 1.9 1 3.8 1.5 5.9-1.8-.3-3.3-.5-5-.7zM477.6 322.9c-1.1-3.3-2.1-6.5-3.1-9.8-.6-1.8-1-3.7-1.6-5.8-.4.5-.7.8-.9 1.1-.4.9-.8 1.8-1.3 2.7-2.1 3.5-4.1 7.1-6.2 10.7-.4.7-.9 1.5-1.9 1.4-.1 0-.3.3-.5.5 0 .1.1.2.1.4h2.9c.3 0 .7-.3 1-.4-.2-.2-.5-.4-.7-.5l-.3-.3c.9-1.6 1.8-3.1 2.8-4.6.2-.3.8-.6 1.2-.6 1.4 0 2.8 0 4.2.2.4 0 .8.4.9.8.5 1.3 1 2.7 1.3 4.1.3 1.2.9 1.7 2.1 1.5.6-.1 1.3 0 1.9 0 0-.2 0-.3.1-.5-.3-.1-.7-.1-1-.2-.5-.3-.9-.5-1-.7zm-9.1-6.2c1.1-1.9 2.1-3.7 3.2-5.5h.3c.5 1.8 1 3.7 1.5 5.7-1.8-.1-3.3-.1-5-.2z"/><path d="M564.7 315.3c-.1 0-.1 0-.2-.1 0 .1 0 .2.2.1zM570.2 331.2h0c-.1 0-.1 0 0 0zM432 337.2h.1s0-.1-.1 0c0-.1 0-.1 0 0zM559.1 313.1c.1.3.3.3.7.1-.3-.1-.5-.1-.7-.1zM430.9 337.2c.1 0 .1-.1 0 0 .1-.1 0-.1 0-.1v.1zM481.3 299.1s0 .1.1.1c0 0 .1 0 .1-.1v-.1l-.2.1zM461.2 298.3h.1-.1zM450.9 300.8s-.1 0 0 0c-.1 0-.1 0 0 0-.1 0 0 .1 0 0zM468.6 298.5c0-.1 0-.1 0 0 .1-.1 0-.1 0-.1v.1zM528.3 354.7zM485.4 338v-.1zM485.1 339.5h.1-.1zM462.2 300.7h-.1.1zM446.4 337.1c.1 0 .1.1.2.1 0 0 0-.1.1-.1l-.1-.1s-.1 0-.2.1zM610.4 364h.1zM467.1 336.7v-.1l-.1.1zM475.2 338.6h.1-.1zM471.2 337.2l.1.1s.1-.1.2-.1c-.1 0-.2-.1-.3 0 0-.1 0 0 0 0z" fill="none"/><path d="M430.5 305c-1.8.3-3.7.6-5.5.9l-7.5 29.9c.3 0 .5-.1.8-.1 3.5-.7 7-1.3 10.8-1.2-1 .9-2.1.6-3.1.8-2.8.5-5.6.9-8.4 1.4h-.2l-.2.7c.6-.1 1.1-.1 1.7-.2 4-.4 8.1-.8 12.1-1 3.2-.1 6.3-.3 9.5-.4 3.1-.1 6.2 0 9.2-.3 3.7-.4 7.5-.1 11.2-.3 3-.1 6 .2 8.9.4 1.1.1 2.3.1 3.4.3 4.4.7 8.8 1.2 13.3 1.4 3.7.2 7.3.3 11 .7 5.6.5 11.1 1.3 16.7 2.2 4.5.7 9 1.2 13.5 1.9 2.8.4 5.6.8 8.4 1.5 3.7 1 7.3 2 11 2.9 4.7 1.1 9.5 2.2 12.9 5.7.7-.4 1.5-.7 1.7-1.5 1.9-1.3 2.6-3.3 4.1-4.8-.4-.4-.9-.5-1.4-.6-1.3 1.1-1.6 2.8-2.6 4.1-2.8-1.6-5.6-3.2-8.5-4.5-.4-.2-.8-.4-.6-1.1 3 1.8 6.1 3.2 8.8 5.1 1.2-1.2 1.1-1.7-.4-2.5-.7-.4-1.5-.8-2.2-1.2.8.1 1.6 0 2.2.6.5.5 1.1.8 1.7.6.5-.1 1-.5 1-1 0-.7-.8-.8-1.3-1.1-.6-.4-1.5-.4-1.8-1.4 1.4.1 2.5.8 3.6 1.4.3-.6.5-1.1.7-1.6-1.7-.9-3.4-1.9-5.2-2.9 1.5-.1 2.3.9 3.5 1 .3-.7.9-1.2 1-2-1.4-.7-2.7-1.3-4.2-2.1.7-.2.9.3 1.5.2-.3-.4 0-.7.3-1 .7-.6.5-.9-.2-1.3-1-.5-2-.8-3.1-1.1-.4-.1-.7-.2-.5-.7 1 .3 2.1.5 3 .8 1.9.7 1.9.8 3-.7v-.3c-2.7-1.3-5.5-2.7-8.3-4.1 2.1.8 4.1 1.6 6.2 2.4 1.3.5 2.4 2 4.1.7.1.6-.7 1.1-.1 1.2.7.1 1.4 1 2.1.1.1-.3.6-.4.5-.8-4.1-2.1-8.1-4.4-12.3-6.2.3.1.7.1 1 .2 2.8 1.2 5.5 2.5 8.3 3.7 1.7.8 3.4 2.4 5.5.6.2.8-.9 1-.9 1.8.7.3 1.4.6 2 .8.4-.6.8-1.1 1.2-1.7-.7-.4-1.3-.9-2.1-1.1v-.4c.6.2 1.2.5 1.7.7.4.2.8.2 1.1-.2.3-.4-.1-.7-.4-.9-.9-.5-1.9-1-2.8-1.5-1.5-.9-3.3-1.4-4.6-2.6 2.9 1.3 5.7 2.5 8.4 4.1.3-.6.1-.9-.7-1.5-1.1-.8-2.6-1.3-3.6-2.3 1.9.7 3.6 1.6 5.4 2.6.4-.9.4-.9-.2-1.3-.8-.5-1.7-.8-2.4-1.4v-.1h-.1c-.6-.3-1.2-.6-1.5-1.2 1.5.6 3 1.3 4.4 2.1 2 1.1 2 1.2 3.5-.3.1-.1.1-.2.2-.3-5.1-3.7-10.4-7.1-16.3-9.8.9.4 1.9.6 2.8 1.1 2.8 1.5 5.7 2.8 8.4 4.5 1.9 1.2 4.1 2.1 5.6 3.6.2.2.4.2.6.1.2-.2.2-.4 0-.6-.3-.4-.7-.7-1.1-1-2.2-2-4.9-3.4-7.7-4.7-4.5-2-8.9-4-13.6-5.5-3.6-1.1-7-2.6-10.7-3.5-1-.2-2-.3-3-.7-3-1.1-6.2-1.6-9.3-2.6 0-.1.1-.2.1-.2-.1 0-.2.1-.3.1-.4 0-.8 0-1.1-.1-2.8-.9-5.6-1.1-8.5-1.4-3.7-.4-7.3-1.2-11-1.8-2.1-.3-4.3-.6-6.4-.8-2.1-.2-4.1-.3-6.2-.6-2.7-.4-5.4-.9-8.1-1.2-4.4-.4-8.8-.7-13.1-1-5.2-.4-10.3-.5-15.5-.6-3.5 0-7 0-10.5.3-1.7.1-3.4.4-5.1.3 0-.1 0-.1-.1-.1-.4 0-.6.4-1.1.4-1.9.1-3.9.2-5.8.4-.7.4-1.7-.1-2.5.5.7.3 1.3.2 1.9.2 2.4-.3 4.8-.4 7.2-.4 2.9-.1 5.7.1 8.6-.1 2.2-.1 4.3 0 6.5.2 1.6.1 3.4.2 5.1.1 3.2-.1 6.2.8 9.3 1.2-.4.3-.8.2-1.3.2-2-.2-3.9-.5-5.9-.5-4 0-7.9-.6-11.9-.4-2.8.1-5.6.2-8.4.2-3.5 0-6.9.2-10.4.4-5.1.3-10.2 1.1-15.2 1.6l-.6 2.3c1.7-.4 3.5-.7 5.4-.8z" fill="none"/><path d="M569.4 337.5c.3.2.6.4.9.3.2-.4.4-.7.6-1.1.5-.9 1-1.8 1.6-2.9-1 .5-2.4 2.3-3.1 3.7zM451.1 336.9c0 .1 0 .1 0 0 .1.1.2.1.2 0h-.2c.1 0 0 0 0 0zM540.5 356.8c-1.8-.4-3.4-.9-5.3-1 1.5.8 4.2 1.3 5.3 1zM585.3 374.6h.1l-.1-.1zM535.9 356.8h-.1zM532.5 346.7c-.3-.3-.8-.6-.9-.2-.4 1.2-1.4 2.3-1 4 1-1.4 1.2-2.7 1.9-3.8zM538.9 358c-2.6-.6-5.1-1.6-7.7-2 2.3 1.6 5 1.8 7.7 2zM532.3 350.2c.7-.8 1.1-1.5.9-2.4-.4.7-1.4 1.2-.9 2.4zM534 347c0-.2-.2-.2-.3-.2-.3.1-.3.3-.3.7.4-.1.6-.2.6-.5zM533.8 351.8h.1l-.1-.1z" fill="none"/><path d="M609.4 363.3c.1-.1 0-.2-.1-.1-.1-.3-.5-.6-.4-1h-.1c-.3-.6-.7-1.1-1-1.7-2.7-5.4-6.6-10-12.3-13.2.1-.1.1-.2-.1-.3-.1-.1-.2-.1-.3-.1-.9-.6-1.8-1.3-2.8-1.9.1-.1.1-.2.2-.2-.1 0-.2.1-.3.1-2.1-1.4-4.1-2.8-6.2-4.2h-.1c-2.2-1.1-4.3-2.2-6.5-3.3.1-.1 0-.2-.1-.1-1.3-.4-2.7-.8-4-1.2-2.1-.7-2.3-.7-3.1 1.2-.8 1.7-1.8 3.4-2.8 5-.4.7-.7 1.3-.5 2-.3.2-.7.3-.9.5-.9 1.6-2.3 2.9-3.4 4.4-1.8 2.6-4.1 4.8-7.6 5.6-.5.1-1 .3-1.4.3-2.7-.1-5.4-.6-8-1.3-3.6-1-7.2-1.9-10.9-2.2-.8-.1-1.6-.2-2.5.4 2 1 4.5.5 6.1 2.1-3.1-.8-6.3-.6-9.6-.6-.1.4-.5.9-.3 1.4.4 0 .8 0 1.1.1.2.1.4.3.6.1-.1-.2-.3-.2-.5-.3-.1-.1-.3-.2-.3-.3.1-.3.4-.2.7-.2 2.3.3 4.5 1.1 6.8 1.5 1.8.3 3.5.9 5.3 1.4 1.7.4 3.4.4 5.1.9 3.2.1 6.2 1 9.2 1.9 2.9.9 5.7 1.9 8.5 2.9.3.1 1.1-.1 1 .7-2.2-1-4.5-1.2-6.6-2-1.8-.7-3.6-1.2-5.4-1.7-.4-.1-1-.5-1 .3-.5-.1-1-.7-1.3-.7-1.2.5-2.3 0-3.5-.2-2.8-.4-5.7-.9-8.5-1.2-.7-.1-1.6-.7-2.3.2h.1c1.9.3 3.8.6 5.8.8 3.6.5 7.2 1.1 10.7 2 2.5.7 5 1.3 7.5 1.9 4 .9 8.1 1.6 11.9 3.2 5.1 2.1 9.8 4.5 12.4 9.2.8 1.5 1.8 2.9 2.8 4.3.4.6.7 1.2 1.5 1.6.1-1.2.3-2.2.4-3.2.1-1.6-.2-3.2-.4-4.9.1-.1 0-.2-.1-.1-.2-2.2-1-4.2-1.3-6.4-.3-1.9-1.2-3.6-2-5.4-.5-.2-.7-.6-.9-1.1v-.1h-.1c-.6-.6-1.2-1.1-1.8-1.7-.3-.3-.3-.7-.2-1 .1-.3.6-.5.9-.4 1.3.3 2.6 0 3.9.4.6 0 1.2.1 1.8.1 3.8.1 7.2 1.3 10.4 3.1 2.6 1.5 5 3.2 7.5 4.8.3.2.5.6.9.1.1-.1 0-.2-.1-.1-.6-.6-1.1-1.4-1.5-2.1z" fill="none"/><path d="M567.4 342.9c.4-.7.8-1.3 1.1-1.9-.3-.4-.7-.6-1.2-.8-.5.7-1 1.3-1.6 2 .7.2 1.2.4 1.7.7zM588.2 378.6v-.1.1zM551.6 359.1c-.2-.3-.4-.3-.6 0 .2.3.4.3.6 0zM611.1 366.2s0 .1.1.1l.1-.1h-.2c0-.1 0 0 0 0zM541.5 357.1c-.3-.1-.5-.3-.9.1.4.1.7.3.9-.1zM592.7 371.9c0-.1 0-.1 0 0-.1 0-.2 0-.2.1 0 0 .1.1.1 0s.1-.1.1-.1zM588.4 379.3zM592 368.9c-.1 0-.1-.1-.2-.1l-.1.1c0 .1.1.1.1.2l.2-.2zM535.6 348.2c-1.1-.1-1.3 0-1.6 1.5 1 .3 1.1.2 1.6-1.5zM548.8 352.2c-.2-.6 0-1.2.3-1.7.2-.3.1-.6-.3-.8-.4-.2-.7-.1-.9.2-.4.6-.7 1.3-1.1 1.9.7.3 1.2.6 2 .4zM566.9 339.9c-.9-.3-1.6-1-2.6-1-.1.9-1.7 2 .5 2.5 1.6.5 1.3-1.1 2.1-1.5zM557.5 352.7c-.6-.4-.8-.8-1.4-.3-.7.6-2.2.1-2.1-.6.1-.8-.5-.7-1-.9-.6.6-.4 1.3-.6 1.9 1.6.5 3.2.5 5.1-.1zM566.5 344.4c.2-.3.3-.6.5-.9-.4-.3-.8-.7-1.4-.7-1.5 1.3-1.4 1.8.3 2.4.2-.3.4-.5.6-.8zM551.5 352.7c-.2-.4-.3-.8-.1-1.3.3-.7-.1-1.1-1-1.1-.6.7-.8 1.4-.5 2.1.2.5.9.4 1.6.3zM544.2 349.1c-.1 0-.2 0-.3-.1-.3.6-.5 1.3-.8 1.9.1 0 .2.1.3.1.6-.5 1.1-1 .8-1.9zM546.1 351.5c.8-2.1.8-2.1-.7-2.4-1.1 2.4-1.1 2.4.7 2.4zM611.6 365.4l.1-.1h-.1zM567.8 338.4c.5-1.1-.8-1.3-1.4-1.4-1.3-.3-.8 1-1.3 1.5 1-.1 2 1.4 2.7-.1zM569.9 338.4c-.6-.4-1-.6-1.4.1-.4.6-.7 1.1.4 1.6.6-.5.7-1.2 1-1.7zM571.1 333.4c-.3-.4-1-.8-1.6-.8-.6 0-.8.6-1.1 1 .7.5 1.2 1 2.1 1 .2-.4 1.1-.7.6-1.2zM542.5 350.7c-.2-.7.7-1.4-.1-2.2-1.1 1.6-1 2.1.1 2.2zM564.8 337.7c.2-.5.9-1.1.2-1.5-1.8-1-2.5-1.5-3.2.9.8 0 1.4.5 2 .7.4.1.8.4 1-.1zM564.9 335.3c.2.2.6.3 1 .4.4-.6.7-1.1 1.1-1.7-.2-.3-.5-.5-.8-.6-1.3-.5-2-.4-2.5.7-.5 1 .8.8 1.2 1.2zM566.5 336.2c.7.2 1.4.5 2 1 .6-.5.9-1.2 1.4-1.7l.1-.1-.1.1c-2.2-1-2.2-1-3.4.5v.2zM541 348.4c-1.6-.1-.9 1.2-1.5 1.9 2 .1 1.1-1.3 1.5-1.9zM538.9 348.1c-1.5 0-1 1.1-1.4 1.8 1.5.2 1.6 0 1.4-1.8zM536.7 348.2c-.2.5-.9 1-.4 1.9.5-.7.7-1.2.4-1.9z" fill="none"/><path d="M427.5 301.7l-.1-.1.1.1zM429.2 301.4v.1z"/><path fill="#fff9df" d="M424.7 335.2v.1z"/><path d="M425.9 335.3c1-.2 2.1.1 3.1-.8-3.8-.1-7.3.5-10.8 1.2-.3 0-.5.1-.8.1l-.2.9h.2c2.8-.5 5.7-.9 8.5-1.4zm-1.2-.1z"/><path d="M614.1 368.9c-.5-1.8-1.6-3.4-2.4-5-1.4-2.9-2.7-5.8-4.7-8.4-.9-1.2-1.7-2.6-3-3.5-8.6-7.6-18-14.3-29.6-18 .8-1 1.6-2 2.3-3.1 1.4-2 3.2-3.6 5.5-4.8 1.1-.6 1.4-1.2.6-2-1.3-1.2-2.5-2.5-4-3.5-2.8-1.8-5.8-3.3-8.9-4.6-6.6-2.8-13.3-5.2-20.3-7.2-3-.9-6.2-1.5-9.2-2.4-3.9-1.2-7.9-2.1-12-2.7l-9.9-1.5c-3.5-.5-7-1.2-10.6-1.5-3.3-.3-6.5-.7-9.8-1.1-4.5-.6-9.1-1.1-13.7-1.3-2.3-.1-4.6-.2-6.9-.4-4.8-.5-9.6-.3-14.3-.4-2 0-4.1 0-6.1.2-3 .3-6 .2-9 .8h-.3c-.7.1-1.5-.1-2.2.1-2.1.2-4.2.3-6.3.6-3.3.4-6.6.9-9.9 1.5-1 .2-2 .3-3 .5l-.4 1.5.1.1s-.1 0-.1.1l-.1.5c5.1-.5 10.1-1.3 15.2-1.6 3.4-.2 6.9-.4 10.4-.4 2.8 0 5.6-.1 8.4-.2 4-.1 7.9.4 11.9.4 2 0 3.9.3 5.9.5.4 0 .9.1 1.3-.2-3.1-.4-6.1-1.3-9.3-1.2-1.7.1-3.4 0-5.1-.1-2.2-.2-4.4-.3-6.5-.2-2.9.2-5.7 0-8.6.1-2.4.1-4.8.2-7.2.4-.6.1-1.2.1-1.9-.2.8-.6 1.8-.1 2.5-.5 1.9-.1 3.8-.3 5.8-.4.5 0 .7-.4 1.1-.4.1 0 .1 0 .1.1 1.7.1 3.4-.2 5.1-.3 3.5-.3 7-.4 10.5-.3 5.2 0 10.4.1 15.5.6 4.4.3 8.8.6 13.1 1 2.7.3 5.4.8 8.1 1.2 2 .3 4.1.4 6.2.6 2.1.2 4.3.5 6.4.8 3.7.6 7.3 1.4 11 1.8 2.8.3 5.7.5 8.5 1.4.3.1.7.1 1.1.1.1 0 .2-.1.3-.1 0 .1-.1.2-.1.2 3.1.9 6.3 1.5 9.3 2.6.9.3 2 .4 3 .7 3.7.9 7.1 2.4 10.7 3.5 4.7 1.5 9.2 3.6 13.6 5.5 2.8 1.2 5.5 2.7 7.7 4.7.4.3.7.7 1.1 1 .2.2.2.4 0 .6-.2.2-.4.1-.6-.1-1.6-1.6-3.7-2.5-5.6-3.6-2.7-1.7-5.6-2.9-8.4-4.5-.9-.5-1.9-.7-2.8-1.1 5.8 2.7 11.1 6.1 16.3 9.8-.1.1-.1.3-.2.3-1.5 1.5-1.5 1.5-3.5.3-1.4-.8-2.9-1.4-4.4-2.1.3.6.9.9 1.5 1.2h.1v.1c.7.6 1.7.9 2.4 1.4.6.4.6.4.2 1.3-1.7-1-3.5-1.9-5.4-2.6 1 1 2.5 1.5 3.6 2.3.8.6 1 .8.7 1.5-2.7-1.6-5.5-2.8-8.4-4.1 1.4 1.1 3.1 1.6 4.6 2.6.9.6 1.9 1 2.8 1.5.3.2.7.4.4.9-.3.4-.7.3-1.1.2-.6-.2-1.2-.5-1.7-.7v.4c.8.2 1.4.6 2.1 1.1-.4.6-.8 1.1-1.2 1.7-.7-.3-1.4-.6-2-.8 0-.7 1.1-1 .9-1.8-2.1 1.8-3.7.2-5.5-.6-2.8-1.3-5.5-2.5-8.3-3.7-.3-.1-.7-.2-1-.2 4.3 1.9 8.3 4.1 12.3 6.2.1.4-.3.5-.5.8-.7.9-1.5 0-2.1-.1-.7-.1.1-.6.1-1.2-1.8 1.3-2.8-.2-4.1-.7-2-.8-4.1-1.7-6.2-2.4 2.8 1.4 5.6 2.7 8.3 4.1v.3c-1.1 1.5-1.1 1.5-3 .7-1-.4-2-.6-3-.8-.2.5.1.6.5.7 1.1.2 2.1.6 3.1 1.1.7.4 1 .7.2 1.3-.3.2-.6.5-.3 1-.5 0-.7-.5-1.5-.2 1.5.7 2.8 1.4 4.2 2.1-.1.8-.7 1.3-1 2-1.1-.2-2-1.2-3.5-1 1.9 1 3.5 1.9 5.2 2.9-.2.5-.5 1-.7 1.6-1.2-.6-2.2-1.3-3.6-1.4.3.9 1.2 1 1.8 1.4.5.3 1.3.4 1.3 1.1 0 .5-.6.9-1 1-.6.2-1.2 0-1.7-.6s-1.4-.5-2.2-.6c.7.4 1.5.8 2.2 1.2 1.5.8 1.6 1.3.4 2.5-2.8-1.9-5.9-3.2-8.8-5.1-.2.8.2 1 .6 1.1 2.9 1.3 5.7 2.9 8.5 4.5 1-1.3 1.2-2.9 2.6-4.1.5.1.9.2 1.4.6-1.4 1.6-2.1 3.6-4.1 4.8-.2.8-.9 1.1-1.7 1.5-3.4-3.5-8.2-4.6-12.9-5.7-3.7-.9-7.3-1.9-11-2.9-2.7-.7-5.6-1.1-8.4-1.5-4.5-.7-9-1.2-13.5-1.9-5.5-.9-11.1-1.6-16.7-2.2-3.7-.4-7.3-.5-11-.7-4.4-.2-8.9-.7-13.3-1.4-1.1-.2-2.3-.2-3.4-.3-3-.2-6-.5-8.9-.4-3.7.2-7.5-.2-11.2.3-3 .3-6.2.2-9.2.3-3.2.1-6.3.3-9.5.4-4.1.2-8.1.6-12.1 1-.6.1-1.1.1-1.7.2l-.5 2h.1l.3.4c.6-.2 1.3-.3 2.1-.3 1.9.1 3.7-.1 5.6-.3 2.4-.2 4.9-.6 7.3-.4 2.4.2 4.8 0 7.1-.1 4-.2 8 .2 12-.2 2.3-.2 4.6.1 6.9.1 1.3 0 2.5-.1 3.8 0 2.1.1 4.2.1 6.2.1 4.7 0 9.4.1 14.1.6 4.8.5 9.6.8 14.5 1.4 3.3.4 6.5.8 9.8 1.3 2.9.4 5.8.9 8.7 1.3 4.6.7 9.2 1.6 13.8 2.5.7.1.9.7.5 1.1-1.5 1.4-2.1 3.1-3 4.8-.2.4-.4.9.2 1 .6.1.7.5.7.8.5 1.8 1.6 3.1 3.4 4.1 1.4.8 3 1.1 4.6 1.5 3.3.9 6.7 1.6 10.1 2.2 3.6.7 7.2 1 10.8 1.6 4.1.7 8.1 1.8 12.1 2.9h.1v.1l.9.3c4.9 1.7 9.4 3.9 13.6 6.6 2.2 1.4 3.6 3.4 5 5.4 0 .5.5.9.7 1.3.2.4.5.7.7 1.1.9 1.2 2.1 2.4 2.3 3.9 2-.2 2-.2 2.2-1.9.1-.9.1-1.9.3-2.8.1-.9.5-1.9.2-2.8-.8-6.2-1.2-12.5-5.6-18 1.7.2 3.1.3 4.4.4 0-.1 0-.2.2-.1 2.5.4 4.9 1.1 7.2 1.9h.2v.2c.6.3 1.1.6 1.7.9.8.5 1.6 1 2.3 1.5.1 0 .2 0 .1.1 3 1.7 5.7 3.7 8 6.1.5.5 1 .7 1.6.4-.1-.4-.5-.9-.6-1.4zm-151.9-68.2zm-11.4.1s.1 0 0 0c.1 0 .1 0 0 0 .1.1 0 0 0 0zm-21.6.6zm-1.7.3zm11.7-.7c-2.3.4-4.5.9-6.8 1.2-1.7.3-3.4.3-5.1.5-.3 0-.7.1-1-.3 1.6-.3 3.3-.5 4.9-.8 1.1-.4 2.3-.3 3.5-.5 1.6-.2 3.1-.7 4.8-.6 0 .3-.1.5-.3.5zm22-2.7zm7.4.2v-.1.1c0-.1 0-.1 0 0zm12.7.8s0-.1-.1-.1h.1c.1-.1.1 0 0 .1.1-.1.1-.1 0 0zm77.8 13.8c.2 0 .4 0 .7.1-.4.2-.6.2-.7-.1zm3.7 1.4zm1.7.7c.1 0 .1 0 .2.1-.2.1-.2 0-.2-.1zm5.7 16c-.1 0-.1 0 0 0h-.1.1zm-139.2 6c-.1 0-.1 0 0 0-.1 0-.1-.1 0 0-.1-.1-.1-.1 0 0 0-.1 0 0 0 0zm1 0c-.1-.1 0-.1 0-.1.1 0 .1.1 0 .1.1 0 .1 0 0 0zm14.6-.1c-.1 0-.1-.1-.2-.1.1 0 .1-.1.2-.1 0 .1.1.1 0 .2.1 0 0 .1 0 0zm4.5-.1v-.2c.1 0 .1.1.2.1 0 .1-.1.1-.2.1zm16-.3zm4.2.6l-.1-.1.1-.1c.1 0 .1 0 .2.1-.1 0-.2.1-.2.1zm3.9 1.3zm9.9.9zm.3-1.5zm42.9 16.7zm82.1 9.3zm-38-30.1c-.6 1-1.1 1.9-1.6 2.9-.2.3-.4.7-.6 1.1-.4.1-.6-.1-.9-.3.8-1.5 2.2-3.3 3.1-3.7zm-5.1 6.3c.5.2.9.4 1.2.8-.3.6-.7 1.2-1.1 1.9l-1.6-.8c.5-.6 1-1.3 1.5-1.9zm-2.2-1.7c.5-.5 0-1.8 1.3-1.5.6.1 1.9.3 1.4 1.4-.7 1.5-1.7 0-2.7.1zm3.4 0c.4-.7.8-.5 1.4-.1-.3.6-.4 1.2-1 1.7-1.1-.5-.8-1-.4-1.6zm1-5.9c.6 0 1.3.4 1.6.8.4.6-.5.8-.6 1.2-.9-.1-1.5-.6-2.1-1 .3-.5.5-1 1.1-1zm.4 2.8l.1-.1c0 .1-.1.1-.1.1-.4.6-.7 1.2-1.4 1.7-.6-.5-1.3-.8-2-1v-.2c1.2-1.5 1.2-1.5 3.4-.5zm-6.3-1.2c.5-1.1 1.2-1.2 2.5-.7.4.1.6.3.8.6-.3.5-.7 1-1.1 1.7-.4-.2-.8-.2-1-.4-.3-.5-1.6-.3-1.2-1.2zm.2 3.5c-.7-.2-1.2-.7-2-.7.7-2.4 1.4-1.9 3.2-.9.7.4 0 1-.2 1.5-.2.6-.6.3-1 .1zm1 3.8c-2.2-.5-.5-1.6-.5-2.5 1.1 0 1.7.6 2.6 1-.8.3-.5 1.9-2.1 1.5zm.8 1.3c.6 0 1 .4 1.4.7-.2.3-.3.6-.5.9-.2.3-.4.5-.6.8-1.7-.6-1.8-1.1-.3-2.4zm-12.7 8.2c.5.2 1.1.1 1 .9-.1.7 1.4 1.2 2.1.6.6-.5.8-.1 1.4.3-1.9.5-3.4.6-5.2.2.3-.7.2-1.4.7-2zm-2.5-.7c.9 0 1.3.4 1 1.1-.2.5-.1.8.1 1.3-.7.1-1.4.2-1.6-.2-.4-.8-.1-1.5.5-2.2zm-2.5-.4c.2-.3.5-.5.9-.2.4.2.5.5.3.8-.3.5-.5 1.1-.3 1.7-.8.2-1.3 0-2-.4.4-.6.7-1.3 1.1-1.9zm-2.5-.8c1.5.3 1.5.3.7 2.4-1.8 0-1.8 0-.7-2.4zm-1.5 0c.1 0 .2 0 .3.1.2.8-.3 1.4-.8 2-.1 0-.2-.1-.3-.1.3-.7.5-1.4.8-2zm-1.5-.6c.8.8-.1 1.5.1 2.2-1.1-.1-1.2-.6-.1-2.2zm-1.4-.1c-.4.6.5 2-1.5 1.9.6-.7 0-2 1.5-1.9zm-2.1-.3c.2 1.8 0 2-1.4 1.8.4-.7 0-1.8 1.4-1.8zm-2.2.1c.3.6.1 1.2-.4 1.9-.5-.8.1-1.3.4-1.9zm-1.1 0c-.5 1.6-.6 1.7-1.6 1.5.3-1.4.4-1.6 1.6-1.5zm-1.9-1.4c.2 0 .3 0 .3.2 0 .3-.2.4-.6.5 0-.3 0-.6.3-.7zm.2 5h-.1.1zm-1.6-1.6c-.5-1.2.5-1.7.9-2.4.2.9-.2 1.6-.9 2.4zm-.7-3.7c.1-.4.6-.1.9.2-.7 1.1-.9 2.5-1.9 3.8-.4-1.7.5-2.8 1-4zm-.4 9.6c2.7.3 5.1 1.4 7.7 2-2.7-.3-5.4-.5-7.7-2zm4.1-.3c1.9.2 3.5.6 5.3 1-1.2.3-3.9-.2-5.3-1zm.6 1zm49.4 17.8zm2.9 4zm.2.7zm4.2-7.5c.1 0 .1 0 0 0v.2h-.1c0-.1.1-.2.1-.2zm-.8-3c.1 0 .1.1.2.1l-.1.1c-.1 0-.1-.1-.1-.2 0 .1 0 0 0 0zm19-3.1c-.4.4-.6 0-.9-.1-2.5-1.6-4.9-3.3-7.5-4.8-3.1-1.8-6.6-3-10.4-3.1-.6 0-1.2-.1-1.8-.1-1.3-.4-2.6 0-3.9-.4-.3-.1-.7.1-.9.4-.2.3-.1.7.2 1 .6.5 1.2 1.1 1.8 1.7h.1v.1c.2.4.4.8.9 1.1.7 1.8 1.7 3.5 2 5.4.3 2.1 1.1 4.2 1.3 6.4.1 0 .2 0 .1.1.2 1.6.5 3.2.4 4.9-.1 1-.2 2.1-.4 3.2-.8-.4-1.1-1.1-1.5-1.6-.9-1.4-1.9-2.9-2.8-4.3-2.7-4.7-7.4-7.1-12.4-9.2-3.8-1.6-7.8-2.3-11.9-3.2-2.5-.6-5-1.2-7.5-1.9-3.5-.9-7.1-1.5-10.7-2-1.9-.3-3.8-.6-5.8-.8h-.1c.7-.9 1.6-.2 2.3-.2 2.8.3 5.7.8 8.5 1.2 1.2.2 2.2.6 3.5.2.2-.1.7.6 1.3.7 0-.8.7-.4 1-.3 1.8.5 3.6 1 5.4 1.7 2.1.8 4.5 1 6.6 2 .1-.8-.7-.6-1-.7-2.8-1-5.6-2-8.5-2.9-3-.9-6-1.8-9.2-1.9-1.6-.5-3.4-.5-5.1-.9-1.8-.5-3.5-1.1-5.3-1.4-2.3-.4-4.5-1.2-6.8-1.5-.3 0-.6-.1-.7.2 0 .1.2.2.3.3.2.1.4 0 .5.3-.3.2-.4 0-.6-.1-.4 0-.7 0-1.1-.1-.2-.6.2-1 .3-1.4 3.2 0 6.4-.3 9.6.6-1.7-1.5-4.1-1.1-6.1-2.1.9-.7 1.8-.5 2.5-.4 3.7.3 7.3 1.2 10.9 2.2 2.6.7 5.3 1.2 8 1.3.5 0 1-.2 1.4-.3 3.5-.8 5.8-2.9 7.6-5.6 1.1-1.5 2.5-2.8 3.4-4.4.1-.2.5-.3.9-.5-.2-.7.1-1.3.5-2 1-1.6 2-3.3 2.8-5 .9-1.9 1-1.9 3.1-1.2 1.3.4 2.7.8 4 1.2.2-.1.2 0 .1.1 2.2 1.1 4.3 2.2 6.5 3.3h.1c2.1 1.4 4.1 2.8 6.2 4.2.1 0 .2-.1.3-.1-.1.1-.1.2-.2.2.9.6 1.8 1.3 2.8 1.9.1-.1.2-.1.3.1.2.1.1.2.1.3 5.7 3.2 9.6 7.7 12.3 13.2.3.6.7 1.1 1 1.7h.1c-.1.4.2.7.4 1 .2-.1.2 0 .1.1.4.8.9 1.5 1.3 2.3.3-.2.4-.2.3-.1zm-22.5-4.9zm-47.6-3.6c.3-.4.6-.2.9-.1-.3.4-.6.2-.9.1zm10.3 2c.2-.3.4-.3.6 0-.2.2-.4.2-.6 0zm60.1 7.1s0-.1-.1-.1h.1c.1 0 .1 0 0 .1.1-.1.1 0 0 0zm.5-.9zM447.8 298.5z"/><path d="M431.3 301.6c-1.6.2-3.3.5-4.9.8.2.3.6.3 1 .3 1.7-.1 3.4-.2 5.1-.5 2.3-.3 4.5-.8 6.8-1.2.2 0 .3-.2.4-.4-1.7-.1-3.2.4-4.8.6-1.3.1-2.5 0-3.6.4zM425.5 302.7c.1 0 .1.1.2.1l.1-.1v-.1l-.1-.1c-.1.1-.1.2-.2.2zM425.8 302.7c0 .1 0 0 0 0zM423.6 302.9h-.3c0 .1-.1.1-.1.2.1 0 .1-.1.2-.1s.1-.1.2-.1zM418.9 304zM425 305.6l-.1.3c1.8-.3 3.7-.6 5.5-.9-1.8.1-3.6.4-5.4.6zM418.9 304zM419.8 303.9c-.3-.1-.6-.1-.8.1.2-.1.5.1.8-.1z"/></symbol>
<symbol id="i-logo-cvz" viewBox="0 0 181 321" fill="none" xmlns="http://www.w3.org/2000/svg"><path d="M32.22 240.06v3.966c0 2.432-.582 4.283-1.746 5.552-1.164 1.269-2.91 1.956-5.238 1.956-2.328 0-4.02-.634-5.238-1.956-1.164-1.269-1.746-3.173-1.746-5.552v-15.493c0-2.432.582-4.283 1.746-5.552 1.164-1.269 2.91-1.956 5.238-1.956 2.328 0 4.021.634 5.238 1.956 1.164 1.269 1.746 3.173 1.746 5.552v2.908h-4.444v-3.172c0-1.058-.212-1.851-.635-2.274-.423-.423-1.005-.634-1.746-.634-.74 0-1.323.211-1.746.634-.423.423-.635 1.216-.635 2.274v16.127c0 1.058.212 1.851.635 2.274.423.423 1.005.634 1.746.634.74 0 1.323-.211 1.746-.634.423-.423.635-1.164.635-2.274v-4.283h4.444v-.053zM43.225 251.164h-4.814v-29.823h4.18v17.873l4.814-17.873h5.873v29.823h-4.233v-21.627l-5.82 21.627zM73.435 240.06v3.966c0 2.432-.582 4.283-1.746 5.552-1.164 1.269-2.91 1.956-5.238 1.956-2.328 0-4.02-.634-5.238-1.956-1.164-1.269-1.746-3.173-1.746-5.552v-15.493c0-2.432.582-4.283 1.746-5.552 1.164-1.269 2.91-1.957 5.238-1.957 2.328 0 4.021.635 5.238 1.957 1.164 1.269 1.746 3.172 1.746 5.552v2.908H68.99v-3.172c0-1.058-.212-1.851-.635-2.274-.424-.423-1.005-.635-1.746-.635-.74 0-1.323.212-1.746.635-.424.423-.635 1.216-.635 2.274v16.127c0 1.057.212 1.851.635 2.274.423.423 1.005.634 1.746.634.74 0 1.322-.211 1.746-.634.423-.423.635-1.164.635-2.274v-4.283h4.444v-.053zM77.508 221.341h14.497v4.283h-4.92v25.593h-4.71v-25.593h-4.92v-4.283h.053zM101.158 233.873h6.455v4.283h-6.455v8.725h8.095v4.283H96.45v-29.823h12.803v4.283h-8.095v8.249zM125.231 242.492l3.174-21.204h6.508v29.823h-4.444v-21.415l-3.228 21.415h-4.444l-3.492-21.098v21.098h-4.074v-29.823h6.508l3.492 21.204zM156.711 251.164h-4.709l-.793-5.394h-5.767l-.794 5.394h-4.285l4.761-29.823h6.878l4.709 29.823zm-10.74-9.465h4.497l-2.275-15.07-2.222 15.07zM5.661 294.628h5.344v-25.592h4.762v25.592h2.38v7.668h-4.761v-3.385H.953v-29.822H5.66v25.539zM27.723 281.62h6.455v4.283h-6.455v8.725h8.095v4.283H23.014v-29.822h12.804v4.283h-8.095v8.248zM46.505 298.911h-4.708v-29.822h4.708v12.796h5.344v-12.796h4.762v29.822h-4.762v-12.796h-5.344v12.796zM67.88 298.911h-4.709v-29.822h4.71v12.796h5.343v-12.796h4.761v29.822h-4.761v-12.796H67.88v12.796zM84.176 276.227c0-2.432.635-4.283 1.852-5.552 1.216-1.269 2.962-1.956 5.29-1.956s4.074.635 5.29 1.956c1.218 1.269 1.853 3.173 1.853 5.552v15.493c0 2.433-.635 4.283-1.852 5.552-1.217 1.269-2.963 1.957-5.29 1.957-2.329 0-4.075-.635-5.291-1.957-1.217-1.269-1.852-3.172-1.852-5.552v-15.493zm4.709 15.811c0 1.057.211 1.85.634 2.273.424.423 1.006.635 1.746.635.741 0 1.323-.212 1.746-.635.424-.423.635-1.216.635-2.273V275.91c0-1.057-.212-1.85-.635-2.273-.423-.423-1.005-.635-1.746-.635-.74 0-1.322.212-1.746.635-.423.423-.635 1.216-.635 2.273v16.128zM118.142 287.755v3.965c0 2.433-.582 4.283-1.746 5.552-1.164 1.269-2.91 1.957-5.238 1.957-2.328 0-4.021-.635-5.238-1.957-1.164-1.269-1.746-3.172-1.746-5.552v-15.493c0-2.432.582-4.283 1.746-5.552 1.164-1.269 2.91-1.956 5.238-1.956 2.328 0 4.021.635 5.238 1.956 1.164 1.269 1.746 3.173 1.746 5.552v2.909h-4.444v-3.173c0-1.057-.212-1.851-.635-2.274-.424-.423-1.005-.634-1.746-.634-.741 0-1.323.211-1.746.634-.423.423-.635 1.217-.635 2.274v16.127c0 1.058.212 1.851.635 2.274.423.423 1.005.635 1.746.635.741 0 1.322-.212 1.746-.635.423-.423.635-1.163.635-2.274v-4.283h4.444v-.052zM122.216 269.088h14.497v4.283h-4.921v25.593h-4.709v-25.593h-4.92v-4.283h.053zM145.865 281.62h6.455v4.283h-6.455v8.725h8.095v4.283h-12.804v-29.823h12.804v4.283h-8.095v8.249zM163.906 298.911h-4.814v-29.822h4.179v17.872l4.815-17.872h5.873v29.822h-4.233v-21.626l-5.82 21.626zm7.831-36.061v3.489H161.42v-3.489h10.317z" fill="#656553"/><path d="M108.566 318.475H71.478v2.327h37.088v-2.327z" fill="#57959C"/><path d="M36.559 147.473c-1.534-.265-4.021-1.375-5.502-3.49-1.217-1.692-2.963-5.341-1.112-10.258l3.175 1.004c-1.323 3.543.106 6.081.9 7.297 1.005 1.481 2.75 2.38 4.39 2.274 1.694-.106 3.28-.846 3.387-3.278.106-2.063-2.064-3.226-4.497-2.063l-.741-2.432c2.54-1.005 4.497-.952 6.084.264 1.164.899 2.01 1.904 2.116 3.913.37 5.87-4.867 7.297-8.2 6.769z" fill="#787762"/><path d="M89.678 181.895c-.318-.423-1.323-1.48-1.323-1.48-.053-.053-3.492-4.654-13.597-9.254l-.952-.423.053-24.164 1.957.37c.212.053 5.608 1.163 11.481 6.028l-2.116 2.485c-3.175-2.644-6.19-4.072-8.042-4.759l-.053 17.872c5.29 2.485 8.941 5.394 11.216 8.037V157.73l.053-.423c6.084-8.46 14.761-10.31 15.132-10.416l1.957-.423.053 24.217-.952.423c-3.757 1.692-8.995 5.288-13.227 8.989 0 .106-1.005 1.058-1.64 1.798zm1.375-23.054v17.819c2.487-2.961 7.937-6.345 11.164-7.984l-.053-17.925c-2.54 1.004-7.46 3.278-11.11 8.09zM90.894 108.714h-2.91v13.43h2.91v-13.43zM90.894 62.077h-2.91v13.43h2.91v-13.43zM72.853 90.63H59.415v2.908h13.438V90.63zM119.517 90.63h-13.438v2.908h13.438V90.63zM179.726 90.208c-.423-.423-10.316-10.734-19.258-11.686-5.026-.529-8.2.211-10.581 2.485l-.159.106c-.952.899-2.328 2.802-2.487 5.393h3.228c.106-1.322.74-2.273 1.534-3.014l.159-.158c1.587-1.534 3.915-2.115 7.936-1.692 4.762.476 11.058 4.283 14.708 7.138.212.159 1.164 1.216 1.905 1.216h-35.448V92.8h5.926c.105 2.485.74 7.297 3.703 9.729 1.905 1.533 3.809 2.062 6.031 2.062a22.05 22.05 0 003.545-.317c8.73-1.322 18.729-11.263 19.153-11.686l1.164-1.163-1.059-1.216zM160.045 101.1c-4.127.635-5.555.053-7.037-1.163-1.799-1.428-2.38-5.076-2.486-7.138h7.513l5.661 7.402c-1.323.37-2.487.741-3.651.899zm14.761-7.35c-2.01 1.534-4.92 3.755-7.883 5.13l-5.502-6.081h15.184c-.582-.053-1.64.793-1.799.951z" fill="#57959C"/><path d="M130.68 41.667l2.381 2.273 1.164-1.216 10.529-10.998c.159-.317.529-1.375-.212-2.062-.741-.74-1.852-.37-2.169-.212L130.68 41.667zM136.13 47.219l2.381 2.274 13.385-13.748c.159-.317.529-1.375-.211-2.063-.741-.74-1.852-.37-2.17-.211L136.13 47.219zM126.077 63.452c2.804 2.802 7.143 3.278 10.688-.423l17.142-17.872c.158-.318.529-1.375-.212-2.063-.741-.687-1.799-.37-2.169-.211l-9.418 9.782-.053.053-7.883 8.249c-2.169 2.22-4.709 1.956-6.243.476l-1.852 2.009zM130.839 48.91c-.317-2.326-1.428-4.6-4.021-5.922-.529-.264-1.693-.423-1.693-.423.953-.37 2.963-3.066 3.386-3.965 1.746-3.543 1.164-4.442 1.006-5.024-.212-.634-1.323-1.797-2.223-.846 0 0-1.851 4.918-5.29 8.725-.318.37-.529.529-.847.899-1.957 1.956-3.862 4.917-4.55 7.826-.635 2.643.741 5.129 2.169 6.662.424.423 1.217 1.11 2.275 1.375l-69.837 69.691c-3.175-.317-14.603-.952-20.634 5.076-6.931 6.927-4.339 20.252-4.233 20.781l.212 1.057 1.058.212c.265.053 3.016.634 6.613.634 4.392 0 10.053-.899 13.915-4.706 4.127-4.124 4.444-10.469 4.233-15.545l-2.434.105c.159 4.442-.9 9.941-4.127 13.167-3.703 3.701-10.052 4.018-14.02 3.701-1.006-.053-2.857.106-3.28.529.423-.423.634-2.115.529-3.067-.265-4.019 0-10.787 3.809-14.594 5.714-5.711 18.57-4.072 18.676-4.019l.794.106s68.991-68.845 70.049-69.903l2.645-2.644s-1.798-1.374-2.327-1.85c-1.746-1.745-3.492-3.543-3.069-5.5.529-2.326 2.063-4.441 3.756-6.133 3.545.529 4.921 2.802 4.762 5.076-.053.793-.582 2.274-1.799 3.278l1.905 1.798c1.64-1.692 2.963-3.807 2.592-6.556z" fill="#787762"/><path d="M50.42 55.573s68.356 69.004 78.25 78.786c0 0-4.868 1.851-5.026 6.716v.158c-.053 4.759 3.65 10.258 12.063 11.369 7.883 1.004 17.618 1.903 17.724 1.903l1.851.159-.106-1.904c0-.105-.634-9.888-1.481-17.766-.582-5.552-3.28-9.888-7.301-11.474-2.91-1.164-6.032-.741-8.254 1.216-2.804 2.379-4.021 6.292-2.91 11.104 1.111 4.812 2.54 7.72 2.54 7.72l1.905-.793s-1.059-3.12-1.905-7.244c-.741-3.543.317-6.557 2.169-8.143 1.323-1.111 3.175-1.375 4.973-.688 2.857 1.163 4.868 4.442 5.291 8.778.423 4.177 1.058 8.619 1.323 12.108.106 1.322.688 3.649 1.111 4.283-.582-.475-3.016-1.004-4.391-1.216-4.021-.634-7.936-1.057-12.01-1.639-6.455-.846-9.259-4.653-9.259-8.09v-.106c.053-2.168 2.222-4.389 4.656-4.441-.582-2.697-.476-4.231-.476-4.231L52.589 53.299l-1.27.37-.9 1.904z" fill="#787762"/><path d="M49.52 45.263c.371.475.741 1.057 1.006 1.797 1.799 4.548.529 7.72-2.064 9.677-1.375 1.057-4.02 2.168-5.766 2.22-5.714.106-8.201-3.648-9.365-6.82 2.487.105 5.978-.952 5.978-.952s-9.47-8.408-8.253-16.92c1.534 1.162 4.021 2.749 6.613 3.013 4.498.476 6.455 2.062 6.455 2.062s1.905-2.485 1.799-5.975c4.814 2.062 8.783 5.34 10.158 8.778.847 2.115 1.482 5.234.847 7.561l2.592.212c.53-2.01.212-5.077-.635-8.038C56.24 32.466 42.96 29.452 42.96 29.452s.53 4.072-.212 5.975c0 0-1.957-1.004-4.708-1.374-5.238-.688-7.778-5.182-7.778-5.182s-6.401 10.416 4.286 20.886c-2.064.476-4.762-.053-4.762-.053l.37 2.168c.794 3.437 4.974 10.417 12.91 10.047 3.756-.159 7.142-2.115 9.259-4.39 2.804-3.013 2.063-7.56 1.058-10.257-.476-1.27-1.482-2.75-1.482-2.75l-2.38.74z" fill="#787762"/><path d="M87.35 35.903H75.87V13.96h3.068v19.67h5.343V21.099h10.793v8.989h-3.068v-6.821H87.35v12.637z" fill="#57959C"/><path d="M105.497 19.459L89.677 3.807 73.806 19.46l-2.116-2.221L89.678 0l17.988 17.238-2.169 2.22z" fill="#57959C"/><path d="M103.434 35.903H91.9v-2.274h8.465V14.012h3.069v21.891zM91.265 16.022h-3.069v-4.019s.37-1.11 1.588-1.11c1.216 0 1.481 1.11 1.481 1.11v4.019zM37.14 96.923H31.745l-.317 1.11c-.053.159-1.164 3.649-8.042 3.649-4.391 0-7.672-2.486-11.11-5.13-1.482-1.11-5.926-3.542-7.83-3.542h17.882l.159.317a2.858 2.858 0 002.328 1.216 2.822 2.822 0 002.804-2.802 2.822 2.822 0 00-2.804-2.803c-.953 0-1.8.476-2.328 1.216-.053.106-.16.212-.212.318H4.285c2.011 0 6.243-2.38 7.62-3.49 3.438-2.697 6.718-5.182 11.374-5.182 6.825 0 7.99 3.437 8.042 3.596l.265 1.163h8.73v-2.433h-6.297c-.952-2.009-3.65-5.604-10.74-5.604-5.767 0-9.788 3.12-13.385 5.869-3.122 2.432-6.19 4.706-9.894 4.706v5.34c3.756 0 6.93 2.327 10.158 4.76 3.545 2.696 7.619 5.816 13.121 5.816 7.09 0 9.788-3.596 10.74-5.605h6.296v-8.936h-3.28v6.45h.106z" fill="#57959C"/></symbol>
<symbol id="i-maestro" data-name="Layer 1" xmlns="http://www.w3.org/2000/svg" viewBox="0 0 146.78 120.64"><path fill="none" d="M0 0h146.78v120.64H0z"/><path d="M50.39 105.24v-6a3.55 3.55 0 00-3.75-3.79 3.7 3.7 0 00-3.36 1.7 3.51 3.51 0 00-3.16-1.7 3.16 3.16 0 00-2.8 1.42v-1.18h-2.08v9.55h2.1v-5.29a2.23 2.23 0 012.34-2.54c1.38 0 2.08.9 2.08 2.52v5.31h2.1v-5.29a2.25 2.25 0 012.34-2.54c1.42 0 2.1.9 2.1 2.52v5.31zm11.7-4.77V95.7h-2.1v1.16a3.62 3.62 0 00-3-1.4 5 5 0 000 10 3.62 3.62 0 003-1.4v1.16h2.08zm-7.73 0a2.89 2.89 0 112.9 3.06 2.86 2.86 0 01-2.92-3.06zm52.17-5a5.38 5.38 0 012 .38 5 5 0 011.63 1.06 4.84 4.84 0 011.08 1.59 5.3 5.3 0 010 4 4.83 4.83 0 01-1.08 1.59 5 5 0 01-1.63 1.06 5.66 5.66 0 01-4.1 0 4.94 4.94 0 01-1.62-1.06 4.88 4.88 0 01-1.07-1.59 5.31 5.31 0 010-4 4.88 4.88 0 011.07-1.59 4.94 4.94 0 011.62-1.06 5.38 5.38 0 012.08-.41zm0 2a3.1 3.1 0 00-1.19.22 2.81 2.81 0 00-.95.63 2.93 2.93 0 00-.63 1 3.47 3.47 0 000 2.48 2.92 2.92 0 00.63 1 2.8 2.8 0 00.95.63 3.25 3.25 0 002.37 0 2.86 2.86 0 001-.63 2.9 2.9 0 00.63-1 3.47 3.47 0 000-2.48 2.9 2.9 0 00-.63-1 2.86 2.86 0 00-1-.63 3.1 3.1 0 00-1.2-.28zm-33.14 3c0-3-1.86-5-4.53-5a5 5 0 00.14 10 5.8 5.8 0 003.91-1.34l-1-1.54a4.55 4.55 0 01-2.78 1 2.65 2.65 0 01-2.86-2.34h7.09c.03-.25.03-.5.03-.78zm-7.11-.84a2.46 2.46 0 012.51-2.31 2.37 2.37 0 012.42 2.32zm15.86-1.5a6.15 6.15 0 00-3-.82c-1.14 0-1.82.42-1.82 1.12s.72.82 1.62.94l1 .14c2.08.3 3.34 1.18 3.34 2.86s-1.6 3.12-4.35 3.12a6.89 6.89 0 01-4.13-1.24l1-1.62a5.09 5.09 0 003.18 1c1.42 0 2.18-.42 2.18-1.16 0-.54-.54-.84-1.68-1l-1-.14c-2.14-.3-3.3-1.26-3.3-2.82 0-1.9 1.56-3.06 4-3.06a7.14 7.14 0 013.89 1zm10-.54h-3.39v4.31c0 1 .34 1.6 1.38 1.6a3.84 3.84 0 001.84-.54l.6 1.78a4.88 4.88 0 01-2.6.74c-2.46 0-3.32-1.32-3.32-3.54v-4.35h-1.94v-1.9h1.94v-2.9h2.1v2.9h3.39zm7.19-2.14a4.44 4.44 0 011.48.26l-.64 2a3.38 3.38 0 00-1.3-.24c-1.36 0-2 .88-2 2.46v5.35h-2.08v-9.55h2.06v1.16a2.82 2.82 0 012.52-1.4zm14.38 8.4a1 1 0 01.38.07 1 1 0 01.31.2 1 1 0 01.21.3.93.93 0 010 .74 1 1 0 01-.21.3 1 1 0 01-.31.2.94.94 0 01-.38.08 1 1 0 01-.9-.58.94.94 0 010-.74 1 1 0 01.21-.3 1 1 0 01.31-.2 1 1 0 01.33-.07zm0 1.69a.71.71 0 00.29-.06.75.75 0 00.23-.16.74.74 0 00-.23-1.2.72.72 0 00-.29-.06.75.75 0 00-.29.06.73.73 0 00-.24.16.74.74 0 000 1 .74.74 0 00.53.22zm.06-1.19a.4.4 0 01.26.08.25.25 0 01.09.21.24.24 0 01-.07.18.35.35 0 01-.21.09l.29.33h-.23l-.27-.33h-.09v.33h-.19v-.92zm-.22.17v.24h.22a.21.21 0 00.12 0 .1.1 0 000-.09.1.1 0 000-.09.21.21 0 00-.12 0z"/><g data-name="&lt;Group&gt;"><path fill="#7673c0" d="M57.64 22.83h31.5v56.61h-31.5z"/><path data-name="&lt;Path&gt;" d="M59.64 51.14a35.94 35.94 0 0113.75-28.31 36 36 0 100 56.61 35.94 35.94 0 01-13.75-28.3z" fill="#eb001b"/><path d="M128.2 73.44v-1.12h.47v-.24h-1.19v.24h.47v1.16zm2.31 0v-1.4h-.36l-.42 1-.42-1h-.37v1.4h.26v-1.05l.39.91h.27l.39-.91v1.06zM131.63 51.14a36 36 0 01-58.24 28.3 36 36 0 000-56.61 36 36 0 0158.25 28.3z" fill="#00a1df"/></g></symbol>
<symbol id="i-mastercard" xmlns="http://www.w3.org/2000/svg" viewBox="0 0 146.8 120.41"><g data-name="Layer 2"><g data-name="Layer 1"><path fill="none" d="M0 0h146.8v120.41H0z"/><path d="M36.35 105.26v-6a3.56 3.56 0 00-3.76-3.8 3.7 3.7 0 00-3.36 1.7 3.51 3.51 0 00-3.16-1.7 3.16 3.16 0 00-2.8 1.42V95.7h-2.08v9.56h2.1V100a2.24 2.24 0 012.34-2.54c1.38 0 2.08.9 2.08 2.52v5.32h2.1V100a2.25 2.25 0 012.34-2.54c1.42 0 2.1.9 2.1 2.52v5.32zm31.07-9.56H64v-2.9h-2.1v2.9H60v1.9h1.94v4.4c0 2.22.86 3.54 3.32 3.54a4.88 4.88 0 002.6-.74l-.6-1.78a3.84 3.84 0 01-1.84.54c-1 0-1.38-.64-1.38-1.6V97.6h3.4zm17.74-.24a2.82 2.82 0 00-2.52 1.4V95.7h-2.06v9.56h2.08V99.9c0-1.58.68-2.46 2-2.46a3.39 3.39 0 011.3.24l.64-2a4.45 4.45 0 00-1.48-.26zm-26.82 1a7.15 7.15 0 00-3.9-1c-2.42 0-4 1.16-4 3.06 0 1.56 1.16 2.52 3.3 2.82l1 .14c1.14.16 1.68.46 1.68 1 0 .74-.76 1.16-2.18 1.16a5.09 5.09 0 01-3.18-1l-1 1.62a6.9 6.9 0 004.14 1.24c2.76 0 4.36-1.3 4.36-3.12s-1.26-2.56-3.34-2.86l-1-.14c-.9-.12-1.62-.3-1.62-.94s.68-1.12 1.82-1.12a6.16 6.16 0 013 .82zm55.71-1a2.82 2.82 0 00-2.52 1.4V95.7h-2.06v9.56h2.08V99.9c0-1.58.68-2.46 2-2.46a3.39 3.39 0 011.3.24l.64-2a4.45 4.45 0 00-1.48-.26zm-26.8 5a4.83 4.83 0 005.1 5 5 5 0 003.44-1.14l-1-1.68a4.2 4.2 0 01-2.5.86 3.07 3.07 0 010-6.12 4.2 4.2 0 012.5.86l1-1.68a5 5 0 00-3.44-1.14 4.83 4.83 0 00-5.1 5zm19.48 0V95.7h-2.08v1.16a3.63 3.63 0 00-3-1.4 5 5 0 000 10 3.63 3.63 0 003-1.4v1.16h2.08zm-7.74 0a2.89 2.89 0 112.9 3.06 2.87 2.87 0 01-2.9-3.06zm-25.1-5a5 5 0 00.14 10 5.81 5.81 0 003.97-1.3l-1-1.54a4.55 4.55 0 01-2.78 1 2.65 2.65 0 01-2.86-2.34h7.1v-.8c0-3-1.86-5-4.54-5zm0 1.86a2.37 2.37 0 012.42 2.32h-5a2.46 2.46 0 012.54-2.32zm52.11 3.16v-8.62h-2v5a3.63 3.63 0 00-3-1.4 5 5 0 000 10 3.63 3.63 0 003-1.4v1.16h2zm3.47 3.39a1 1 0 01.38.07 1 1 0 01.31.2 1 1 0 01.21.3.93.93 0 010 .74 1 1 0 01-.21.3 1 1 0 01-.31.2.94.94 0 01-.38.08 1 1 0 01-.9-.58.94.94 0 010-.74 1 1 0 01.21-.3 1 1 0 01.31-.2 1 1 0 01.41-.07zm0 1.69a.71.71 0 00.29-.06.75.75 0 00.23-.16.74.74 0 000-1 .74.74 0 00-.23-.16.72.72 0 00-.29-.06.75.75 0 00-.29.06.73.73 0 00-.24.16.74.74 0 000 1 .74.74 0 00.24.16.74.74 0 00.32.06zm.06-1.19a.4.4 0 01.26.08.25.25 0 01.09.21.24.24 0 01-.07.18.35.35 0 01-.21.09l.29.33h-.23l-.27-.33h-.09v.33h-.19v-.88zm-.22.17v.24h.22a.21.21 0 00.12 0 .1.1 0 000-.09.1.1 0 000-.09.21.21 0 00-.12 0zm-11-4.06a2.89 2.89 0 112.9 3.06 2.87 2.87 0 01-2.9-3.06zm-70.23 0V95.7H46v1.16a3.63 3.63 0 00-3-1.4 5 5 0 000 10 3.63 3.63 0 003-1.4v1.16h2.08zm-7.74 0a2.89 2.89 0 112.9 3.06 2.87 2.87 0 01-2.92-3.06z" fill="#231f20"/><g data-name="&lt;Group&gt;"><path fill="#ff5f00" d="M57.65 22.85h31.5v56.61h-31.5z"/><path data-name="&lt;Path&gt;" d="M59.65 51.16A35.94 35.94 0 0173.4 22.85a36 36 0 100 56.61 35.94 35.94 0 01-13.75-28.3z" fill="#eb001b"/><path d="M131.65 51.16a36 36 0 01-58.25 28.3 36 36 0 000-56.61 36 36 0 0158.25 28.3zM128.21 73.46V72.3h.47v-.24h-1.19v.24h.51v1.16zm2.31 0v-1.4h-.36l-.42 1-.42-1H129v1.4h.26v-1.05l.39.91h.27l.39-.91v1.06z" fill="#f79e1b"/></g></g></g></symbol>
<symbol id="i-pick-up" viewBox="0 0 24 24" fill="none" xmlns="http://www.w3.org/2000/svg" xmlns:xlink="http://www.w3.org/1999/xlink"><g style="mix-blend-mode:luminosity"><path fill="url(#pattern0)" d="M0 0h24v24H0z"/><path fill="#fff" style="mix-blend-mode:color" d="M0 0h24v24H0z"/></g></symbol>
<symbol id="i-sprite" xmlns="http://www.w3.org/2000/svg"/>
<symbol id="i-truck" viewBox="0 0 24 24" fill="none" xmlns="http://www.w3.org/2000/svg"><g clip-path="url(#clip0)" fill="#000"><path d="M6.5 17h-2a.5.5 0 010-1h2a.5.5 0 010 1zM22.75 17H21.5a.5.5 0 010-1h.835l.674-3.592C23 10.57 21.43 9 19.5 9h-3.283l-1.59 7H17.5a.5.5 0 010 1H14a.5.5 0 01-.488-.61l1.818-8a.5.5 0 01.488-.39H19.5c2.481 0 4.5 2.019 4.5 4.5l-.759 4.092a.499.499 0 01-.49.408z"/><path d="M19.5 19a2.503 2.503 0 01-2.5-2.5c0-1.379 1.122-2.5 2.5-2.5s2.5 1.121 2.5 2.5-1.122 2.5-2.5 2.5zm0-4c-.827 0-1.5.673-1.5 1.5s.673 1.5 1.5 1.5 1.5-.673 1.5-1.5-.673-1.5-1.5-1.5zM8.5 19A2.503 2.503 0 016 16.5C6 15.121 7.122 14 8.5 14s2.5 1.121 2.5 2.5S9.878 19 8.5 19zm0-4c-.827 0-1.5.673-1.5 1.5S7.673 18 8.5 18s1.5-.673 1.5-1.5S9.327 15 8.5 15zM6.5 8h-4a.5.5 0 010-1h4a.5.5 0 010 1zM6.5 11h-5a.5.5 0 010-1h5a.5.5 0 010 1zM6.5 14h-6a.5.5 0 010-1h6a.5.5 0 010 1z"/><path d="M14 17h-3.5a.5.5 0 010-1h3.101l2.272-10H4.5a.5.5 0 010-1h12a.5.5 0 01.488.61l-2.5 11A.5.5 0 0114 17z"/></g></symbol>
<symbol id="i-visa" xmlns="http://www.w3.org/2000/svg" viewBox="0 0 750 471"><path fill="#0E4595" d="M278.198 334.228l33.36-195.763h53.358l-33.384 195.763h-53.334zM524.307 142.687c-10.57-3.966-27.135-8.222-47.822-8.222-52.725 0-89.863 26.551-90.18 64.604-.297 28.129 26.514 43.821 46.754 53.185 20.77 9.597 27.752 15.716 27.652 24.283-.133 13.123-16.586 19.116-31.924 19.116-21.355 0-32.701-2.967-50.225-10.274l-6.877-3.112-7.488 43.823c12.463 5.466 35.508 10.199 59.438 10.445 56.09 0 92.502-26.248 92.916-66.884.199-22.27-14.016-39.216-44.801-53.188-18.65-9.056-30.072-15.099-29.951-24.269 0-8.137 9.668-16.838 30.559-16.838 17.447-.271 30.088 3.534 39.936 7.5l4.781 2.259 7.232-42.428M661.615 138.464h-41.23c-12.773 0-22.332 3.486-27.941 16.234L513.2 334.1h56.031s9.16-24.121 11.232-29.418c6.123 0 60.555.084 68.336.084 1.596 6.854 6.492 29.334 6.492 29.334h49.512l-43.188-195.636zm-65.417 126.408c4.414-11.279 21.26-54.724 21.26-54.724-.314.521 4.381-11.334 7.074-18.684l3.607 16.878s10.217 46.729 12.352 56.527h-44.293v.003z"/><path d="M45.879 138.465l-.682 4.072c21.093 5.106 39.932 12.496 56.426 21.69l47.346 169.687 56.455-.062 84.004-195.387h-56.526L180.664 271.96l-5.564-27.13a87.94 87.94 0 00-.834-2.52l-18.16-87.319c-3.23-12.396-12.597-16.095-24.186-16.527H45.879z" fill="#0e4595"/></symbol>
<symbol id="i-vk" viewBox="0 0 30 30" fill="none" xmlns="http://www.w3.org/2000/svg"><path d="M15 0C6.716 0 0 6.716 0 15c0 8.284 6.716 15 15 15 8.284 0 15-6.716 15-15 0-8.284-6.716-15-15-15zm7.609 16.622c.699.683 1.439 1.326 2.066 2.08.278.333.54.677.74 1.065.285.553.027 1.159-.467 1.192l-3.073-.001c-.794.066-1.426-.255-1.958-.797-.425-.433-.82-.894-1.229-1.342a2.871 2.871 0 00-.553-.492c-.42-.272-.783-.189-1.023.249-.245.445-.3.939-.324 1.434-.033.725-.252.914-.979.948-1.554.073-3.028-.163-4.398-.946-1.208-.69-2.144-1.666-2.959-2.77-1.587-2.152-2.803-4.514-3.895-6.944-.246-.547-.066-.84.538-.85a85.522 85.522 0 013.009-.002c.408.007.678.24.835.625.542 1.334 1.206 2.603 2.039 3.78.222.313.448.625.77.846.357.245.628.164.796-.233.107-.253.154-.523.177-.794.08-.927.09-1.854-.049-2.777-.086-.578-.41-.951-.987-1.06-.293-.056-.25-.165-.108-.332.248-.29.48-.47.944-.47h3.472c.547.107.67.353.744.904l.003 3.859c-.006.213.107.845.49.985.307.101.51-.145.693-.34.833-.883 1.426-1.926 1.957-3.005.235-.476.437-.969.634-1.462.146-.365.373-.545.785-.539l3.343.004c.099 0 .199.001.296.018.564.097.718.339.544.889-.275.863-.808 1.583-1.329 2.304-.558.772-1.154 1.517-1.707 2.293-.508.709-.468 1.066.163 1.681z" fill="currentColor"/></symbol>
<symbol id="i-youtube" viewBox="0 0 30 30" fill="none" xmlns="http://www.w3.org/2000/svg"><path d="M13.132 17.81L18.01 15l-4.88-2.81v5.62z" fill="currentColor"/><path d="M15 0C6.717 0 0 6.717 0 15c0 8.283 6.717 15 15 15 8.283 0 15-6.717 15-15 0-8.283-6.717-15-15-15zm9.373 15.015s0 3.042-.386 4.51a2.349 2.349 0 01-1.652 1.651c-1.467.387-7.335.387-7.335.387s-5.852 0-7.335-.402a2.349 2.349 0 01-1.652-1.652C5.627 18.057 5.627 15 5.627 15s0-3.042.386-4.509a2.396 2.396 0 011.652-1.667C9.132 8.438 15 8.438 15 8.438s5.868 0 7.334.401c.803.216 1.436.85 1.653 1.652.401 1.467.386 4.524.386 4.524z" fill="currentColor"/></symbol>
</svg>