<svg width="139" height="141" viewBox="0 0 139 141" fill="none" xmlns="http://www.w3.org/2000/svg">
<g filter="url(#filter0_ddd)">
<path d="M120.3 66.5C118.9 61.2 118.2 55.6 118.2 49.8C118.2 42.1 119.5 34.6 122 27.8C120.4 21 114.9 15.6 108.1 14C101.2 16.4 93.8999 17.8 86.2 17.8C80.4 17.8 74.8 17 69.5 15.7C64.2 17.1 58.6 17.8 52.8 17.8C45.1 17.8 37.7 16.5 30.9 14C24 15.5 18.6 20.9 17 27.8C19.5 34.7 20.8 42.1 20.8 49.8C20.8 55.6 20 61.2 18.7 66.5C20.1 71.8 20.8 77.4 20.8 83.2C20.8 91 19.4 98.4 17 105.3C18.5 112.1 23.9 117.5 30.6 119.1C37.5 116.6 45 115.2 52.9 115.2C58.7 115.2 64.3 116 69.6 117.3C74.9 115.9 80.5 115.2 86.3 115.2C94.1001 115.2 101.6 116.6 108.6 119.1C115.4 117.5 120.7 112.1 122.2 105.3C119.7 98.4 118.4 90.8999 118.4 83.2C118.2 77.4 118.9 71.8 120.3 66.5Z" fill="white" stroke="black" stroke-width="1.3488" stroke-miterlimit="10"/>
<path d="M44.3002 65.4999C49.1002 66.1999 53.9002 66.0999 58.8002 65.6999C58.6002 66.8999 57.6002 67.2999 56.6002 67.7999C56.0002 68.0999 55.2002 68.1999 54.5002 68.1999C50.3002 68.1999 46.2002 68.1999 42.0002 67.9999C40.5002 67.8999 39.0002 67.3999 38.5002 65.6999C37.9002 63.8999 38.3002 61.9999 39.9002 60.7999C42.0002 59.0999 44.3002 57.6999 46.3002 56.0999C49.1002 53.8999 51.9002 51.5999 54.6002 49.1999C56.1002 47.8999 56.9002 45.9999 57.0002 43.9999C57.1002 41.2999 55.0002 39.7999 52.5002 40.6999C50.7002 41.3999 49.8001 42.6999 49.2001 44.3999C49.1001 44.7999 49.1002 45.2999 48.9002 45.7999C48.7002 46.4999 48.3002 47.1999 47.4002 46.9999C46.5002 46.7999 46.5002 45.9999 46.5002 45.2999C46.5002 45.0999 46.6002 44.7999 46.6002 44.5999C48.1002 40.3999 53.7001 38.0999 57.7001 39.8999C60.7001 41.2999 62.5002 45.0999 61.3002 48.1999C60.8002 49.5999 60.0002 50.8999 59.1002 52.0999C57.0002 54.6999 54.6002 56.8999 51.8002 58.6999C49.8002 60.0999 47.9002 61.4999 45.9002 62.9999C45.2002 63.5999 44.5002 64.1999 43.8002 64.7999C44.1002 64.9999 44.2002 65.2999 44.3002 65.4999Z" fill="black"/>
<path d="M86.7 55.4C88.2 55.4 89.5 55.5 90.7 55.3C91.4 55.2 92.1 54.6 92.5 54C93.2 53.1 93.6 51.9 94.3 51C95 50.1 96 49.3 97 48.9C98.4 48.4 99.5 49.5 99.1 51C98.7 52.3 98.1 53.4999 97.6 54.6999C98.5 54.8999 99.4 54.9999 100.6 55.1999C99.8 56.1999 99 56.1 98.3 56C97.1 55.9 96.5 56.5 96 57.5C94.6 60.1 93.3 62.6 91.7 65C90 67.5 87.7 68.1 85 67.3C87 63.8 89 60.2 91.2 56.3C89 56.4 87.3 56.6 85.5 56.6C83.7 56.6 81.9 56.8999 80.5 55.1999C80.9 54.4999 81.3 53.9 81.7 53.4C84.4 49.6 86.9 45.6 88.5 41.1C89 39.5 90.4 38.7 91.9 38.8C93 38.9 93.6 39.5 93.5 40.6C93.5 41.1 93.3 41.5 93.2 42C91.7 46.3 89.9 50.5 87.3 54.3C87 54.6 86.9 54.8 86.7 55.4Z" fill="black"/>
<path d="M62.3999 55.9C63.0999 57.1 63.5999 57.7 64.4999 57.7C65.4999 57.7 70.1998 57.7 70.1998 57.7C70.1998 57.7 74.9999 57.7 75.8999 57.7C76.7999 57.7 77.2999 57 77.9999 55.9C77.2999 54.7 76.7999 54.1 75.8999 54.1C74.8999 54.1 70.1998 54.1 70.1998 54.1C70.1998 54.1 65.3999 54.1 64.4999 54.1C63.6999 54.1 63.1999 54.7 62.3999 55.9Z" fill="black"/>
<path d="M39.2 82.4C38.5 82.3 37.8 82.2 37.2 82.2C37.2 82.1 37.2 81.9 37.2 81.8C38.7 81.8 40.3 81.8 41.8 81.8C40.6 82.1 40.7 83 40.7 83.9C40.7 85.3 40.6 86.8 40.6 88.2C40.6 90.4 41.8 91.1 43.7 90.1C45 89.4 45.6 88.5 45.6 87C45.5 85.8 45.6 84.6 45.6 83.5C45.6 83.1 45.5 82.8 45.4 82.5C44.9 82.3 44.5 82.2 44.1 82C44.1 81.9 44.1 81.8 44.2 81.7C45.7 81.7 47.1 81.7 48.6 81.7C48.6 81.8 48.6 81.9 48.7 82C48.2 82.1 47.7 82.3 47.1 82.5C47.1 84.4 47 86.4 47.1 88.4C47.1 89.5 47.6 89.8 49.3 90C48.4 91.4 47.1 91.4 46.2 90.9C46 90.6 45.7 90.2 45.5 89.9C44.6 90.3 43.9 90.8 43.1 91.1C41 91.8 38.9 90.7 39.1 88.2C39.2 86.7 39.2 85.2 39.3 83.7C39.2 83.2 39.2 82.8 39.2 82.4Z" fill="black"/>
<path d="M53 90.7C53.6 90.9 54 91 54.3 91.1C54.3 91.2 54.3 91.3 54.2 91.3C52.9 91.3 51.6 91.3 50.3 91.3C50.3 91.2 50.3 91.1 50.2 91.1C50.5 91 50.8 90.8001 51.4 90.5001C51.4 88.1001 51.4 85.5 51.4 82.9C51.4 82.5 50.8 82.2 50.4 81.7C50.5 81.7 50.8 81.6 51.1 81.6C52.8 81.5 54.6 81.4 56.3 81.4C56.5 81.4 56.9 81.7 57 81.9C57.2 82.5 57.3 83.2 57.4 83.9C56.5 82.7 55.3 82.2 53.9 82.1C53 82 52.8 82.3 52.8 83.1C53 85.7 53 88.2 53 90.7Z" fill="black"/>
<path d="M69.2 83.9C68.7 82.7 67.8 82.1 66.6 81.8C64.9 81.4 63.6 81.9 62.2 83.1C62 82.3 61.8 81.7 61.7 81C60.5 81.6 59.3 82.3 58.2 82.9C58.2 83 58.3 83.1 58.3 83.2C58.9 83 59.5 82.9 60.3 82.6C60.5 83.2 60.8 83.8 60.8 84.4C60.7 88.6 60.6 92.8 60.5 96.9C60.5 98.4 60.4 98.4 58.8 98.3C58.7 98.3 58.6 98.4 58.5 98.5C58.5 98.6 58.5 98.7 58.5 98.8C60.4 98.8 62.2 98.8 64.1 98.8C64 98.7 63.7 98.4 63.6 98.4C62.2 98.6 62.3 97.7 62.3 96.8C62.3 96.4 62.3 96 62.3 95.5C62.3 93.7 62.3 91.9 62.3 89.9C62.8 90.2 62.9 90.2 63.1 90.3C65.4 92.1 68.1 91.6 69.3 88.9C70 87.4 69.9 85.6 69.2 83.9ZM65.9 90.5C64.5 91.2 62.8 90.3 62.5 88.8C62.4 87.9 62.3 87 62.3 86.1C62.3 86.1 62.3 86.1 62.4 86.1C62.4 85.8 62.4 85.6 62.4 85.3C62.4 84.2 62.6 83.2 63.6 82.7C64.6 82.2 66.3 82.6 67.1 83.4C68.8 85.2 68.1 89.4 65.9 90.5Z" fill="black"/>
<path d="M75.9 81.3999C73.9 80.9999 70.9999 83.8 71.0999 86C71.1999 89.5 72.8999 91.1999 75.6999 91.3999C78.6999 91.5999 80.9 89.3 81 86.3C81.1 83.9 79.1 81.3999 75.9 81.3999ZM79 88.5999C78.7 89.6999 78.1 90.6 76.9 90.8C75.7 91 74.6 90.6 73.8 89.5C72.3 87.5 72.6 84.4999 74.3 82.8999C75.5 81.7999 77.6 82.1999 78.4 83.5999C78.9 84.4999 79.2 85.5999 79.5 86.3999C79.2 87.2999 79.2 87.9999 79 88.5999Z" fill="black"/>
<path d="M99.9 90.1001C99.8 89.4001 99.7 88.8001 99.6 88.1001V88.0001C99.5 86.5001 99.6 85.0001 99.4 83.6001C99.3 82.4001 98.2 81.7001 96.5 81.5001C95.3 81.4001 94.2001 82.1 93.8001 83.2C93.5001 84.1 93.8001 84.8001 94.8001 85.0001C94.8001 84.8001 94.8001 84.7001 94.8001 84.6001C94.5001 83.5001 94.9001 82.5 95.8001 82.4C96.8001 82.2 97.7001 83.0001 97.8001 84.1001C97.9001 85.1001 97.8001 86.1 97.8001 87.2C96.8001 87.2 96 87.1 95.1 87.2C93.8 87.3 93 88.5001 93.2 89.8001C93.4 90.9001 94.5 91.5001 95.7 91.3001C96.2 91.2001 96.6 91.0001 97.1 90.8001C97.6 90.5001 97.9 90.4 98.5 90.9C98.8 91.2 99.6 91.4001 100.1 91.3001C100.9 91.1001 101.6 90.6 101.7 89.7C101 89.8 100.4 90.0001 99.9 90.1001ZM97.9 88.7C97.9 89.9 97.4001 90.4 96.3001 90.4C95.5001 90.4 94.8001 89.7001 94.8001 88.8001C94.8001 87.9001 95.6 87.4 96.6 87.4C97.6 87.5 98 87.9 97.9 88.7Z" fill="black"/>
<path d="M87.2 81.4999C88.2 81.4999 89.1 81.4999 90 81.4999C87.8 82.1999 87.3 84.3999 85.6 85.8999C87.3 86.0999 87.7 87.2999 88.2 88.3999C89.1 90.2999 89.9 90.5999 91.8 89.8999C91.9 89.8999 92 89.8999 92.2 89.9999C91.6 91.0999 90.6 91.2999 89.7 91.3999C88.7 91.5999 87.8 91.2999 87.2 90.3999C86.7 89.4999 86.3 88.4999 85.8 87.4999C85.6 87.0999 85.3 86.8999 85 86.4999C84.9 86.4999 84.8 86.5999 84.7 86.5999C84.7 87.8999 84.7 89.0999 84.7 90.3999C85 90.4999 85.3 90.5999 85.7 90.6999C85.3 91.2999 82.4 91.2999 81.5 90.4999C82 90.3999 82.4 90.3999 82.9 90.2999C82.9 87.4999 82.9 84.6999 82.9 81.7999C82.6 81.6999 82.3 81.5999 82 81.5999C82 81.4999 82 81.3999 82 81.2999C83.1 81.2999 84.3 81.2999 85.6 81.2999C85.3 81.4999 84.7 81.9999 84.7 81.9999L84.8 85.8999C84.8 85.8999 86.7 83.3999 87.5 82.1999C87.7 82.1999 87.4 81.7999 87.2 81.4999Z" fill="black"/>
</g>
<defs>
<filter id="filter0_ddd" x="0.297852" y="0.298584" width="138.603" height="140.504" filterUnits="userSpaceOnUse" color-interpolation-filters="sRGB">
<feFlood flood-opacity="0" result="BackgroundImageFix"/>
<feColorMatrix in="SourceAlpha" type="matrix" values="0 0 0 0 0 0 0 0 0 0 0 0 0 0 0 0 0 0 127 0"/>
<feOffset dy="5"/>
<feGaussianBlur stdDeviation="3"/>
<feColorMatrix type="matrix" values="0 0 0 0 0 0 0 0 0 0 0 0 0 0 0 0 0 0 0.2 0"/>
<feBlend mode="normal" in2="BackgroundImageFix" result="effect1_dropShadow"/>
<feColorMatrix in="SourceAlpha" type="matrix" values="0 0 0 0 0 0 0 0 0 0 0 0 0 0 0 0 0 0 127 0"/>
<feOffset dy="3"/>
<feGaussianBlur stdDeviation="8"/>
<feColorMatrix type="matrix" values="0 0 0 0 0 0 0 0 0 0 0 0 0 0 0 0 0 0 0.12 0"/>
<feBlend mode="normal" in2="effect1_dropShadow" result="effect2_dropShadow"/>
<feColorMatrix in="SourceAlpha" type="matrix" values="0 0 0 0 0 0 0 0 0 0 0 0 0 0 0 0 0 0 127 0"/>
<feOffset dy="9"/>
<feGaussianBlur stdDeviation="6"/>
<feColorMatrix type="matrix" values="0 0 0 0 0 0 0 0 0 0 0 0 0 0 0 0 0 0 0.14 0"/>
<feBlend mode="normal" in2="effect2_dropShadow" result="effect3_dropShadow"/>
<feBlend mode="normal" in="SourceGraphic" in2="effect3_dropShadow" result="shape"/>
</filter>
</defs>
</svg>
