<svg width="279" height="58" viewBox="0 0 279 58" fill="none" xmlns="http://www.w3.org/2000/svg">
<g clip-path="url(#clip0)">
<path d="M49.3584 1.51102C49.3584 6.74148 49.3584 11.9719 49.3584 17.5511C48.7749 17.0862 48.0748 16.7375 47.8414 16.1563C44.9242 6.74148 36.6394 1.74349 26.9544 3.48697C14.7022 5.57916 8.51772 12.7856 8.05097 25.6874C7.8176 33.1263 8.75109 40.1002 13.3019 46.6092C20.8866 57.4188 41.3069 59.0461 49.4751 43.7034C50.2919 42.1924 51.2254 40.7976 52.0422 39.4028C52.3922 39.519 52.859 39.7515 53.2091 39.8677C53.0924 40.7976 53.3257 41.7275 52.9757 42.5411C49.2417 50.4449 43.1739 57.0701 33.3722 57.7675C22.1702 58.5812 12.3684 55.7916 5.25047 46.3768C-2.5676 36.1483 -1.51741 19.8757 6.65072 10.2285C15.6357 -0.348697 29.9882 -3.02204 42.2404 3.37074C44.8076 4.76553 47.258 5.69539 48.0748 1.16233C48.5416 1.27856 49.0083 1.39479 49.3584 1.51102Z" fill="#B54C3E"/>
<path d="M160.212 56.8377C164.413 56.489 164.413 53.8157 164.296 51.0261C164.063 45.3307 163.946 39.6353 163.713 33.8237C163.596 31.0341 163.829 28.1283 160.095 26.7335C164.413 26.7335 168.847 26.7335 174.215 26.7335C168.38 28.8257 169.547 31.3828 169.547 41.2625C173.865 41.2625 185.533 41.2625 185.533 41.2625C185.533 41.2625 185.533 34.0561 185.65 32.5451C185.883 29.5231 185.533 27.1984 181.449 27.1984C181.566 26.8497 181.683 26.6173 181.916 26.2686C186.35 26.2686 190.668 26.2686 195.218 26.2686C195.102 26.501 194.868 27.3146 194.635 27.3146C190.901 27.4309 190.784 29.8718 190.901 32.6613C191.018 40.3327 190.901 47.8878 190.901 55.5591C192.768 56.0241 193.935 56.3728 195.102 56.7215C195.102 57.0702 195.102 57.3026 194.985 57.6513C190.434 57.6513 185.883 57.6513 181.449 57.6513C181.449 57.3026 181.333 57.0702 181.333 56.7215C182.616 56.489 183.783 56.2565 185.65 55.7916C185.65 51.8397 185.65 47.6553 185.65 43.3547C180.282 43.3547 175.265 43.3547 169.897 43.3547C169.897 47.5391 169.897 51.6072 169.897 55.6754C171.064 56.1403 172.348 56.489 173.631 56.9539C173.515 57.1864 173.515 57.5351 173.398 57.7676C169.197 57.7676 164.88 57.7676 160.679 57.7676C160.562 57.6513 160.329 57.1864 160.212 56.8377Z" fill="#B54C3E"/>
<path d="M205.487 29.1743C203.036 28.9419 201.053 28.5932 198.952 28.3607C198.952 27.8958 199.069 27.5471 199.069 27.0822C204.203 27.0822 209.221 27.0822 214.355 27.0822C210.504 28.1282 210.855 31.0341 210.855 34.0561C210.855 38.8216 210.388 43.4709 210.388 48.2365C210.388 55.4429 214.238 57.6513 220.656 54.513C224.974 52.4208 227.074 49.2826 226.724 44.4008C226.491 40.5651 226.724 36.6132 226.607 32.7775C226.607 31.6152 226.141 30.3367 225.907 29.4068C224.39 28.8256 222.99 28.3607 221.706 27.8958C221.823 27.6633 221.823 27.3146 221.94 27.0822C226.841 27.0822 231.625 27.0822 236.526 27.0822C236.642 27.4309 236.642 27.6633 236.759 28.012C235.126 28.4769 233.609 28.9419 231.508 29.523C231.508 35.7996 231.275 42.4248 231.625 48.9339C231.742 52.6533 233.375 53.6994 238.976 54.0481C236.059 58.8136 231.625 58.8136 228.591 56.9539C227.774 55.9078 226.957 54.7455 226.141 53.6994C223.34 55.0942 220.89 56.6052 218.206 57.5351C211.205 59.7435 204.32 56.1403 205.137 48.004C205.604 43.006 205.604 38.008 205.72 33.1262C205.72 31.6152 205.604 30.4529 205.487 29.1743Z" fill="#B54C3E"/>
<path d="M70.5959 31.6152C68.0287 38.8216 65.8117 45.0982 63.4779 51.3748C62.7778 53.2345 62.3111 55.3267 61.0275 56.7214C60.2107 57.6513 58.1103 58 56.7101 57.8838C56.1266 57.8838 55.7766 55.9078 55.1931 54.8617C56.2433 54.513 57.2935 53.9319 58.3437 53.8156C59.0438 53.6994 59.7439 54.1643 60.5607 54.2806C63.5946 45.7956 66.5118 37.5431 69.429 29.0581C68.3788 28.3607 67.3286 27.7796 66.0451 26.9659C71.9961 24.8737 73.9798 25.5711 75.9635 30.3367C79.2308 38.008 82.498 45.6794 85.8819 53.2345C86.5821 54.6293 88.2157 55.5591 89.3826 56.7214C86.3487 58.8136 82.0313 57.8838 80.5143 54.2806C77.8305 48.004 75.2634 41.6112 72.5796 35.3347C72.1128 34.521 71.6461 33.5912 70.5959 31.6152Z" fill="#B54C3E"/>
<path d="M149.827 42.0762C148.193 41.495 146.443 40.7976 144.459 39.984C145.393 39.519 145.976 39.1703 146.56 38.9379C149.594 37.8918 151.927 36.2645 151.461 32.5451C151.111 29.2906 148.543 25.5711 145.393 25.3387C140.142 24.99 134.891 25.2225 129.173 25.2225C130.69 27.3146 132.557 28.5932 132.557 29.988C132.791 37.4269 132.674 44.982 132.674 52.4208C132.674 54.2806 132.324 55.9078 129.873 55.9078C129.407 55.9078 128.823 56.489 128.356 56.8377C128.473 57.1864 128.473 57.5351 128.59 57.8838C135.008 57.5351 141.425 57.3026 147.843 56.7215C151.461 56.3728 153.911 53.4669 154.028 49.515C154.261 46.3768 153.444 43.3547 149.827 42.0762ZM138.042 27.7796C138.508 27.5471 138.975 27.1984 139.325 26.9659C141.192 28.1283 143.526 29.0581 145.043 30.5691C147.61 33.1263 146.443 37.4269 143.059 38.8217C140.142 40.1002 138.158 38.9379 138.042 35.7996C137.925 33.1263 138.042 30.4529 138.042 27.7796ZM148.077 50.3287C147.26 53.9319 143.876 55.6754 138.625 55.0942C138.392 51.491 138.042 47.7716 137.925 44.0521C137.925 40.9138 139.442 40.1002 142.592 41.1463C146.793 42.7736 149.01 46.493 148.077 50.3287Z" fill="#B54C3E"/>
<path d="M106.886 24.99C100.118 23.7114 90.8995 32.8938 91.0162 40.2164C91.2496 51.6072 97.084 57.3026 106.186 58C116.104 58.6974 123.455 51.2585 123.572 41.2625C123.689 33.01 117.388 24.8738 106.886 24.99ZM116.804 48.2365C115.754 51.7235 113.77 54.7455 109.92 55.4429C105.836 56.1403 102.452 54.7455 99.8845 51.2585C94.9836 44.6333 95.8004 34.7535 101.401 29.6393C105.485 25.9198 112.37 27.3146 114.821 31.9639C116.454 35.1022 117.388 38.5892 118.321 41.1463C117.738 44.1684 117.504 46.3768 116.804 48.2365Z" fill="#B54C3E"/>
<path d="M262.314 25.2224C265.581 25.2224 268.498 25.2224 271.415 25.2224C264.297 27.4308 262.547 34.6372 257.063 39.519C262.547 40.2164 263.947 44.0521 265.581 47.7715C268.381 54.0481 271.065 54.9779 277.6 52.7695C277.95 52.6533 278.3 52.8857 279.117 53.002C277.25 56.6052 273.866 57.1863 270.715 57.7675C267.448 58.3487 264.297 57.535 262.547 54.513C260.797 51.4909 259.63 48.2364 257.996 45.0982C257.413 43.9358 256.363 43.006 255.546 41.9599C255.196 42.0761 254.846 42.1924 254.612 42.4248C254.612 46.6092 254.612 50.6773 254.612 54.9779C255.546 55.3266 256.713 55.6753 257.879 56.024C256.479 58.1162 246.911 57.8837 243.877 55.5591C245.511 55.3266 246.794 55.0942 248.428 54.8617C248.428 45.6793 248.428 36.3807 248.428 26.9659C247.611 26.7334 246.561 26.501 245.627 26.1523C245.627 25.9198 245.627 25.5711 245.744 25.3386C249.478 25.3386 253.329 25.3386 257.529 25.3386C256.713 25.9198 254.496 27.6633 254.496 27.6633L254.729 40.3326C254.729 40.3326 261.03 32.3126 263.597 28.2445C263.714 27.6633 262.78 26.3847 262.314 25.2224Z" fill="#B54C3E"/>
</g>
<defs>
<clipPath id="clip0">
<rect width="279" height="58" fill="white"/>
</clipPath>
</defs>
</svg>
